M48
; DRILL file KiCad 10.0.5 date 2026-08-28T17:45:17
; FORMAT={-:-/ absolute / metric / decimal}
; #@! TF.CreationDate,2026-08-28T17:45:17-07:00
; #@! TF.GenerationSoftware,Kicad,Pcbnew,10.0.5
; #@! TF.FileFunction,NonPlated,1,2,NPTH
FMAT,2
METRIC
; #@! TA.AperFunction,NonPlated,NPTH,ComponentDrill
T1C1.750
; #@! TA.AperFunction,NonPlated,NPTH,ComponentDrill
T2C1.850
; #@! TA.AperFunction,NonPlated,NPTH,ComponentDrill
T3C2.200
; #@! TA.AperFunction,NonPlated,NPTH,ComponentDrill
T4C3.000
; #@! TA.AperFunction,NonPlated,NPTH,ComponentDrill
T5C3.048
; #@! TA.AperFunction,NonPlated,NPTH,ComponentDrill
T6C3.988
%
G90
G05
T1
X147.328Y-152.382
X147.328Y-181.275
X147.328Y-257.475
X152.09Y-200.325
X154.472Y-219.375
X157.488Y-152.382
X157.488Y-181.275
X157.488Y-257.475
X159.234Y-238.425
X162.25Y-200.325
X164.632Y-219.375
X166.378Y-181.275
X166.378Y-257.475
X169.394Y-238.425
X175.903Y-200.325
X176.538Y-181.275
X176.538Y-257.475
X180.665Y-219.375
X185.428Y-152.382
X185.428Y-181.275
X185.428Y-257.475
X186.063Y-200.325
X190.19Y-238.425
X190.826Y-219.375
X194.953Y-200.325
X195.588Y-152.382
X195.588Y-181.275
X195.588Y-257.475
X199.715Y-219.375
X200.35Y-238.425
X204.478Y-152.382
X204.478Y-181.275
X205.113Y-200.325
X209.24Y-238.425
X209.875Y-219.375
X214.003Y-200.325
X214.638Y-152.382
X214.638Y-181.275
X218.766Y-219.375
X219.4Y-238.425
X223.528Y-152.382
X223.528Y-181.275
X224.163Y-200.325
X228.29Y-238.425
X228.925Y-219.375
X233.053Y-200.325
X233.688Y-152.382
X233.688Y-181.275
X237.815Y-219.375
X238.45Y-238.425
X242.578Y-152.382
X242.578Y-181.275
X243.213Y-200.325
X247.34Y-238.425
X247.975Y-219.375
X252.103Y-200.325
X252.738Y-152.382
X252.738Y-181.275
X256.865Y-219.375
X257.5Y-238.425
X261.628Y-181.275
X262.263Y-200.325
X266.39Y-238.425
X267.025Y-219.375
X271.153Y-200.325
X271.153Y-257.475
X271.788Y-181.275
X275.916Y-219.375
X276.55Y-238.425
X280.678Y-181.275
X281.313Y-200.325
X281.313Y-257.475
X285.44Y-238.425
X286.075Y-219.375
X290.203Y-200.325
X290.838Y-181.275
X294.965Y-219.375
X295.601Y-238.425
X299.728Y-181.275
X300.363Y-200.325
X304.49Y-238.425
X305.125Y-219.375
X309.253Y-200.325
X309.888Y-181.275
X314.015Y-219.375
X314.65Y-238.425
X318.778Y-181.275
X319.413Y-200.325
X323.541Y-238.425
X324.175Y-219.375
X328.303Y-200.325
X328.938Y-181.275
X333.065Y-219.375
X333.7Y-238.425
X337.828Y-181.275
X338.463Y-200.325
X342.59Y-238.425
X343.226Y-219.375
X347.353Y-200.325
X347.988Y-181.275
X352.115Y-219.375
X352.75Y-238.425
X356.878Y-181.275
X356.878Y-257.475
X357.513Y-200.325
X361.64Y-238.425
X362.275Y-219.375
X366.403Y-200.325
X367.038Y-181.275
X367.038Y-257.475
X371.166Y-219.375
X371.8Y-238.425
X375.928Y-181.275
X375.928Y-257.475
X376.563Y-200.325
X381.325Y-219.375
X385.453Y-200.325
X386.088Y-181.275
X386.088Y-257.475
X394.978Y-257.475
X395.613Y-200.325
X397.359Y-238.425
X402.122Y-219.375
X404.503Y-181.275
X405.138Y-257.475
X407.519Y-238.425
X409.265Y-200.325
X412.282Y-219.375
X414.028Y-257.475
X414.663Y-181.275
X419.425Y-200.325
X424.188Y-257.475
T2
X454.975Y-143.177
X459.825Y-143.177
T3
X454.675Y-140.147
X460.125Y-140.147
T4
X148.598Y-149.843
X148.598Y-178.735
X148.598Y-254.935
X153.361Y-197.785
X154.948Y-147.302
X154.948Y-176.195
X154.948Y-252.395
X155.742Y-216.835
X159.71Y-195.245
X160.504Y-235.885
X162.092Y-214.295
X166.854Y-233.345
X167.648Y-178.735
X167.648Y-254.935
X173.998Y-176.195
X173.998Y-252.395
X177.173Y-197.785
X181.935Y-216.835
X183.523Y-195.245
X186.698Y-149.843
X186.698Y-178.735
X186.698Y-254.935
X188.285Y-214.295
X191.46Y-235.885
X193.048Y-147.302
X193.048Y-176.195
X193.048Y-252.395
X196.223Y-197.785
X197.81Y-233.345
X200.986Y-216.835
X202.573Y-195.245
X205.748Y-149.843
X205.748Y-178.735
X207.335Y-214.295
X210.51Y-235.885
X212.098Y-147.302
X212.098Y-176.195
X215.273Y-197.785
X216.861Y-233.345
X220.035Y-216.835
X221.623Y-195.245
X224.798Y-149.843
X224.798Y-178.735
X226.385Y-214.295
X229.56Y-235.885
X231.148Y-147.302
X231.148Y-176.195
X234.323Y-197.785
X235.91Y-233.345
X239.085Y-216.835
X240.673Y-195.245
X243.848Y-149.843
X243.848Y-178.735
X245.435Y-214.295
X248.611Y-235.885
X250.198Y-147.302
X250.198Y-176.195
X253.373Y-197.785
X254.96Y-233.345
X258.135Y-216.835
X259.723Y-195.245
X262.898Y-178.735
X264.486Y-214.295
X267.661Y-235.885
X269.248Y-176.195
X272.423Y-197.785
X272.423Y-254.935
X274.01Y-233.345
X277.185Y-216.835
X278.773Y-195.245
X278.773Y-252.395
X281.948Y-178.735
X283.536Y-214.295
X286.71Y-235.885
X288.298Y-176.195
X291.473Y-197.785
X293.06Y-233.345
X296.236Y-216.835
X297.823Y-195.245
X300.998Y-178.735
X302.585Y-214.295
X305.76Y-235.885
X307.348Y-176.195
X310.523Y-197.785
X312.111Y-233.345
X315.286Y-216.835
X316.873Y-195.245
X320.048Y-178.735
X321.635Y-214.295
X324.81Y-235.885
X326.398Y-176.195
X329.573Y-197.785
X331.161Y-233.345
X334.335Y-216.835
X335.923Y-195.245
X339.098Y-178.735
X340.685Y-214.295
X343.861Y-235.885
X345.448Y-176.195
X348.623Y-197.785
X350.21Y-233.345
X353.385Y-216.835
X354.973Y-195.245
X358.148Y-178.735
X358.148Y-254.935
X359.736Y-214.295
X362.91Y-235.885
X364.498Y-176.195
X364.498Y-252.395
X367.673Y-197.785
X369.26Y-233.345
X372.435Y-216.835
X374.023Y-195.245
X377.198Y-178.735
X377.198Y-254.935
X378.785Y-214.295
X383.548Y-176.195
X383.548Y-252.395
X386.723Y-197.785
X393.073Y-195.245
X396.248Y-254.935
X398.629Y-235.885
X402.598Y-252.395
X403.392Y-216.835
X404.979Y-233.345
X405.773Y-178.735
X409.742Y-214.295
X410.535Y-197.785
X412.123Y-176.195
X415.298Y-254.935
X416.885Y-195.245
X421.648Y-252.395
T5
X152.4Y-231.457
X176.213Y-231.457
X264.319Y-250.507
X288.131Y-250.507
X390.525Y-231.457
X395.287Y-212.407
X397.669Y-174.308
X414.337Y-231.457
X419.1Y-212.407
X421.481Y-174.308
T6
X152.4Y-246.697
X152.408Y-152.382
X152.408Y-181.275
X152.408Y-257.475
X157.171Y-200.325
X159.552Y-219.375
X164.314Y-238.425
X171.458Y-181.275
X171.458Y-257.475
X176.213Y-246.697
X180.983Y-200.325
X185.745Y-219.375
X190.508Y-152.382
X190.508Y-181.275
X190.508Y-257.475
X195.27Y-238.425
X200.033Y-200.325
X204.796Y-219.375
X209.558Y-152.382
X209.558Y-181.275
X214.32Y-238.425
X219.075Y-265.748
X219.083Y-200.325
X223.845Y-219.375
X228.608Y-152.382
X228.608Y-181.275
X233.37Y-238.425
X238.133Y-200.325
X242.895Y-219.375
X247.658Y-152.382
X247.658Y-181.275
X252.42Y-238.425
X257.183Y-200.325
X261.945Y-219.375
X264.319Y-265.748
X266.708Y-181.275
X271.471Y-238.425
X276.233Y-200.325
X276.233Y-257.475
X280.995Y-219.375
X285.758Y-181.275
X288.131Y-265.748
X290.52Y-238.425
X295.283Y-200.325
X300.046Y-219.375
X304.808Y-181.275
X309.57Y-238.425
X314.333Y-200.325
X319.095Y-219.375
X323.858Y-181.275
X328.62Y-238.425
X333.375Y-265.748
X333.383Y-200.325
X338.145Y-219.375
X342.908Y-181.275
X347.671Y-238.425
X352.433Y-200.325
X357.195Y-219.375
X361.958Y-181.275
X361.958Y-257.475
X366.72Y-238.425
X371.483Y-200.325
X376.245Y-219.375
X381.008Y-181.275
X381.008Y-257.475
X390.525Y-246.697
X390.533Y-200.325
X395.287Y-227.647
X397.669Y-189.547
X400.058Y-257.475
X402.439Y-238.425
X407.202Y-219.375
X409.583Y-181.275
X414.337Y-246.697
X414.345Y-200.325
X419.1Y-227.647
X419.108Y-257.475
X421.481Y-189.547
M30
