%TF.GenerationSoftware,KiCad,Pcbnew,10.0.5*%
%TF.CreationDate,2026-09-20T16:54:13-07:00*%
%TF.ProjectId,Custom Keyboard,43757374-6f6d-4204-9b65-79626f617264,rev?*%
%TF.SameCoordinates,Original*%
%TF.FileFunction,Soldermask,Bot*%
%TF.FilePolarity,Negative*%
%FSLAX46Y46*%
G04 Gerber Fmt 4.6, Leading zero omitted, Abs format (unit mm)*
G04 Created by KiCad (PCBNEW 10.0.5) date 2026-09-20 16:54:13*
%MOMM*%
%LPD*%
G01*
G04 APERTURE LIST*
G04 Aperture macros list*
%AMRoundRect*
0 Rectangle with rounded corners*
0 $1 Rounding radius*
0 $2 $3 $4 $5 $6 $7 $8 $9 X,Y pos of 4 corners*
0 Add a 4 corners polygon primitive as box body*
4,1,4,$2,$3,$4,$5,$6,$7,$8,$9,$2,$3,0*
0 Add four circle primitives for the rounded corners*
1,1,$1+$1,$2,$3*
1,1,$1+$1,$4,$5*
1,1,$1+$1,$6,$7*
1,1,$1+$1,$8,$9*
0 Add four rect primitives between the rounded corners*
20,1,$1+$1,$2,$3,$4,$5,0*
20,1,$1+$1,$4,$5,$6,$7,0*
20,1,$1+$1,$6,$7,$8,$9,0*
20,1,$1+$1,$8,$9,$2,$3,0*%
%AMFreePoly0*
4,1,37,0.603843,0.796157,0.639018,0.796157,0.711114,0.766294,0.766294,0.711114,0.796157,0.639018,0.796157,0.603843,0.800000,0.600000,0.800000,-0.600000,0.796157,-0.603843,0.796157,-0.639018,0.766294,-0.711114,0.711114,-0.766294,0.639018,-0.796157,0.603843,-0.796157,0.600000,-0.800000,0.000000,-0.800000,0.000000,-0.796148,-0.078414,-0.796148,-0.232228,-0.765552,-0.377117,-0.705537,
-0.507515,-0.618408,-0.618408,-0.507515,-0.705537,-0.377117,-0.765552,-0.232228,-0.796148,-0.078414,-0.796148,0.078414,-0.765552,0.232228,-0.705537,0.377117,-0.618408,0.507515,-0.507515,0.618408,-0.377117,0.705537,-0.232228,0.765552,-0.078414,0.796148,0.000000,0.796148,0.000000,0.800000,0.600000,0.800000,0.603843,0.796157,0.603843,0.796157,$1*%
%AMFreePoly1*
4,1,37,0.000000,0.796148,0.078414,0.796148,0.232228,0.765552,0.377117,0.705537,0.507515,0.618408,0.618408,0.507515,0.705537,0.377117,0.765552,0.232228,0.796148,0.078414,0.796148,-0.078414,0.765552,-0.232228,0.705537,-0.377117,0.618408,-0.507515,0.507515,-0.618408,0.377117,-0.705537,0.232228,-0.765552,0.078414,-0.796148,0.000000,-0.796148,0.000000,-0.800000,-0.600000,-0.800000,
-0.603843,-0.796157,-0.639018,-0.796157,-0.711114,-0.766294,-0.766294,-0.711114,-0.796157,-0.639018,-0.796157,-0.603843,-0.800000,-0.600000,-0.800000,0.600000,-0.796157,0.603843,-0.796157,0.639018,-0.766294,0.711114,-0.711114,0.766294,-0.639018,0.796157,-0.603843,0.796157,-0.600000,0.800000,0.000000,0.800000,0.000000,0.796148,0.000000,0.796148,$1*%
G04 Aperture macros list end*
%ADD10O,7.000000X3.000000*%
%ADD11R,2.550000X2.500000*%
%ADD12C,1.750000*%
%ADD13C,3.500000*%
%ADD14C,3.987800*%
%ADD15C,1.600000*%
%ADD16RoundRect,0.250000X0.550000X-0.550000X0.550000X0.550000X-0.550000X0.550000X-0.550000X-0.550000X0*%
%ADD17R,2.000000X2.000000*%
%ADD18C,2.000000*%
%ADD19C,3.200000*%
%ADD20RoundRect,0.170000X0.680000X-0.680000X0.680000X0.680000X-0.680000X0.680000X-0.680000X-0.680000X0*%
%ADD21C,1.700000*%
%ADD22RoundRect,0.250000X-0.550000X-0.550000X0.550000X-0.550000X0.550000X0.550000X-0.550000X0.550000X0*%
%ADD23C,3.048000*%
%ADD24C,2.200000*%
%ADD25C,1.850000*%
%ADD26RoundRect,0.200000X-0.600000X-0.600000X0.600000X-0.600000X0.600000X0.600000X-0.600000X0.600000X0*%
%ADD27FreePoly0,0.000000*%
%ADD28FreePoly1,0.000000*%
%ADD29C,4.000000*%
%ADD30RoundRect,0.205000X0.470000X0.205000X-0.470000X0.205000X-0.470000X-0.205000X0.470000X-0.205000X0*%
%ADD31RoundRect,0.250000X0.550000X0.550000X-0.550000X0.550000X-0.550000X-0.550000X0.550000X-0.550000X0*%
G04 APERTURE END LIST*
D10*
%TO.C,TS2*%
X411100000Y-152400000D03*
X411100000Y-159400000D03*
%TD*%
D11*
%TO.C,SW1*%
X158508000Y-147297500D03*
X145308000Y-149837500D03*
D12*
X157488000Y-152377500D03*
D13*
X155108000Y-147127500D03*
D14*
X152408000Y-152377500D03*
D13*
X148658000Y-149727500D03*
D12*
X147328000Y-152377500D03*
%TD*%
D11*
%TO.C,SW17*%
X368058000Y-176190000D03*
X354858000Y-178730000D03*
D12*
X367038000Y-181270000D03*
D13*
X364658000Y-176020000D03*
D14*
X361958000Y-181270000D03*
D13*
X358208000Y-178620000D03*
D12*
X356878000Y-181270000D03*
%TD*%
D11*
%TO.C,SW6*%
X158508000Y-176190000D03*
X145308000Y-178730000D03*
D12*
X157488000Y-181270000D03*
D13*
X155108000Y-176020000D03*
D14*
X152408000Y-181270000D03*
D13*
X148658000Y-178620000D03*
D12*
X147328000Y-181270000D03*
%TD*%
D11*
%TO.C,SW66*%
X425208000Y-252390000D03*
X412008000Y-254930000D03*
D12*
X424188000Y-257470000D03*
D13*
X421808000Y-252220000D03*
D14*
X419108000Y-257470000D03*
D13*
X415358000Y-254820000D03*
D12*
X414028000Y-257470000D03*
%TD*%
D11*
%TO.C,SW65*%
X406158000Y-252390000D03*
X392958000Y-254930000D03*
D12*
X405138000Y-257470000D03*
D13*
X402758000Y-252220000D03*
D14*
X400058000Y-257470000D03*
D13*
X396308000Y-254820000D03*
D12*
X394978000Y-257470000D03*
%TD*%
D11*
%TO.C,SW64*%
X387108000Y-252390000D03*
X373908000Y-254930000D03*
D12*
X386088000Y-257470000D03*
D13*
X383708000Y-252220000D03*
D14*
X381008000Y-257470000D03*
D13*
X377258000Y-254820000D03*
D12*
X375928000Y-257470000D03*
%TD*%
D11*
%TO.C,SW63*%
X368058000Y-252390000D03*
X354858000Y-254930000D03*
D12*
X367038000Y-257470000D03*
D13*
X364658000Y-252220000D03*
D14*
X361958000Y-257470000D03*
D13*
X358208000Y-254820000D03*
D12*
X356878000Y-257470000D03*
%TD*%
D11*
%TO.C,SW62*%
X282333000Y-252390000D03*
X269133000Y-254930000D03*
D12*
X281313000Y-257470000D03*
D13*
X278933000Y-252220000D03*
D14*
X276233000Y-257470000D03*
D13*
X272483000Y-254820000D03*
D12*
X271153000Y-257470000D03*
%TD*%
D11*
%TO.C,SW61*%
X196608000Y-252390000D03*
X183408000Y-254930000D03*
D12*
X195588000Y-257470000D03*
D13*
X193208000Y-252220000D03*
D14*
X190508000Y-257470000D03*
D13*
X186758000Y-254820000D03*
D12*
X185428000Y-257470000D03*
%TD*%
D11*
%TO.C,SW60*%
X177558000Y-252390000D03*
X164358000Y-254930000D03*
D12*
X176538000Y-257470000D03*
D13*
X174158000Y-252220000D03*
D14*
X171458000Y-257470000D03*
D13*
X167708000Y-254820000D03*
D12*
X166378000Y-257470000D03*
%TD*%
D11*
%TO.C,SW59*%
X158508000Y-252390000D03*
X145308000Y-254930000D03*
D12*
X157488000Y-257470000D03*
D13*
X155108000Y-252220000D03*
D14*
X152408000Y-257470000D03*
D13*
X148658000Y-254820000D03*
D12*
X147328000Y-257470000D03*
%TD*%
D11*
%TO.C,SW58*%
X408539250Y-233340000D03*
X395339250Y-235880000D03*
D12*
X407519250Y-238420000D03*
D13*
X405139250Y-233170000D03*
D14*
X402439250Y-238420000D03*
D13*
X398689250Y-235770000D03*
D12*
X397359250Y-238420000D03*
%TD*%
D11*
%TO.C,SW57*%
X372820500Y-233340000D03*
X359620500Y-235880000D03*
D12*
X371800500Y-238420000D03*
D13*
X369420500Y-233170000D03*
D14*
X366720500Y-238420000D03*
D13*
X362970500Y-235770000D03*
D12*
X361640500Y-238420000D03*
%TD*%
D11*
%TO.C,SW56*%
X353770500Y-233340000D03*
X340570500Y-235880000D03*
D12*
X352750500Y-238420000D03*
D13*
X350370500Y-233170000D03*
D14*
X347670500Y-238420000D03*
D13*
X343920500Y-235770000D03*
D12*
X342590500Y-238420000D03*
%TD*%
D11*
%TO.C,SW55*%
X334720500Y-233340000D03*
X321520500Y-235880000D03*
D12*
X333700500Y-238420000D03*
D13*
X331320500Y-233170000D03*
D14*
X328620500Y-238420000D03*
D13*
X324870500Y-235770000D03*
D12*
X323540500Y-238420000D03*
%TD*%
D11*
%TO.C,SW54*%
X315670500Y-233340000D03*
X302470500Y-235880000D03*
D12*
X314650500Y-238420000D03*
D13*
X312270500Y-233170000D03*
D14*
X309570500Y-238420000D03*
D13*
X305820500Y-235770000D03*
D12*
X304490500Y-238420000D03*
%TD*%
D11*
%TO.C,SW53*%
X296620500Y-233340000D03*
X283420500Y-235880000D03*
D12*
X295600500Y-238420000D03*
D13*
X293220500Y-233170000D03*
D14*
X290520500Y-238420000D03*
D13*
X286770500Y-235770000D03*
D12*
X285440500Y-238420000D03*
%TD*%
D11*
%TO.C,SW52*%
X277570500Y-233340000D03*
X264370500Y-235880000D03*
D12*
X276550500Y-238420000D03*
D13*
X274170500Y-233170000D03*
D14*
X271470500Y-238420000D03*
D13*
X267720500Y-235770000D03*
D12*
X266390500Y-238420000D03*
%TD*%
D11*
%TO.C,SW51*%
X258520500Y-233340000D03*
X245320500Y-235880000D03*
D12*
X257500500Y-238420000D03*
D13*
X255120500Y-233170000D03*
D14*
X252420500Y-238420000D03*
D13*
X248670500Y-235770000D03*
D12*
X247340500Y-238420000D03*
%TD*%
D11*
%TO.C,SW50*%
X239470500Y-233340000D03*
X226270500Y-235880000D03*
D12*
X238450500Y-238420000D03*
D13*
X236070500Y-233170000D03*
D14*
X233370500Y-238420000D03*
D13*
X229620500Y-235770000D03*
D12*
X228290500Y-238420000D03*
%TD*%
D11*
%TO.C,SW49*%
X220420500Y-233340000D03*
X207220500Y-235880000D03*
D12*
X219400500Y-238420000D03*
D13*
X217020500Y-233170000D03*
D14*
X214320500Y-238420000D03*
D13*
X210570500Y-235770000D03*
D12*
X209240500Y-238420000D03*
%TD*%
D11*
%TO.C,SW48*%
X201370500Y-233340000D03*
X188170500Y-235880000D03*
D12*
X200350500Y-238420000D03*
D13*
X197970500Y-233170000D03*
D14*
X195270500Y-238420000D03*
D13*
X191520500Y-235770000D03*
D12*
X190190500Y-238420000D03*
%TD*%
D11*
%TO.C,SW47*%
X170414250Y-233340000D03*
X157214250Y-235880000D03*
D12*
X169394250Y-238420000D03*
D13*
X167014250Y-233170000D03*
D14*
X164314250Y-238420000D03*
D13*
X160564250Y-235770000D03*
D12*
X159234250Y-238420000D03*
%TD*%
D11*
%TO.C,SW46*%
X413301750Y-214290000D03*
X400101750Y-216830000D03*
D12*
X412281750Y-219370000D03*
D13*
X409901750Y-214120000D03*
D14*
X407201750Y-219370000D03*
D13*
X403451750Y-216720000D03*
D12*
X402121750Y-219370000D03*
%TD*%
D11*
%TO.C,SW45*%
X382345500Y-214290000D03*
X369145500Y-216830000D03*
D12*
X381325500Y-219370000D03*
D13*
X378945500Y-214120000D03*
D14*
X376245500Y-219370000D03*
D13*
X372495500Y-216720000D03*
D12*
X371165500Y-219370000D03*
%TD*%
D11*
%TO.C,SW44*%
X363295500Y-214290000D03*
X350095500Y-216830000D03*
D12*
X362275500Y-219370000D03*
D13*
X359895500Y-214120000D03*
D14*
X357195500Y-219370000D03*
D13*
X353445500Y-216720000D03*
D12*
X352115500Y-219370000D03*
%TD*%
D11*
%TO.C,SW43*%
X344245500Y-214290000D03*
X331045500Y-216830000D03*
D12*
X343225500Y-219370000D03*
D13*
X340845500Y-214120000D03*
D14*
X338145500Y-219370000D03*
D13*
X334395500Y-216720000D03*
D12*
X333065500Y-219370000D03*
%TD*%
D11*
%TO.C,SW42*%
X325195500Y-214290000D03*
X311995500Y-216830000D03*
D12*
X324175500Y-219370000D03*
D13*
X321795500Y-214120000D03*
D14*
X319095500Y-219370000D03*
D13*
X315345500Y-216720000D03*
D12*
X314015500Y-219370000D03*
%TD*%
D11*
%TO.C,SW41*%
X306145500Y-214290000D03*
X292945500Y-216830000D03*
D12*
X305125500Y-219370000D03*
D13*
X302745500Y-214120000D03*
D14*
X300045500Y-219370000D03*
D13*
X296295500Y-216720000D03*
D12*
X294965500Y-219370000D03*
%TD*%
D11*
%TO.C,SW40*%
X287095500Y-214290000D03*
X273895500Y-216830000D03*
D12*
X286075500Y-219370000D03*
D13*
X283695500Y-214120000D03*
D14*
X280995500Y-219370000D03*
D13*
X277245500Y-216720000D03*
D12*
X275915500Y-219370000D03*
%TD*%
D11*
%TO.C,SW39*%
X268045500Y-214290000D03*
X254845500Y-216830000D03*
D12*
X267025500Y-219370000D03*
D13*
X264645500Y-214120000D03*
D14*
X261945500Y-219370000D03*
D13*
X258195500Y-216720000D03*
D12*
X256865500Y-219370000D03*
%TD*%
D11*
%TO.C,SW38*%
X248995500Y-214290000D03*
X235795500Y-216830000D03*
D12*
X247975500Y-219370000D03*
D13*
X245595500Y-214120000D03*
D14*
X242895500Y-219370000D03*
D13*
X239145500Y-216720000D03*
D12*
X237815500Y-219370000D03*
%TD*%
D11*
%TO.C,SW37*%
X229945500Y-214290000D03*
X216745500Y-216830000D03*
D12*
X228925500Y-219370000D03*
D13*
X226545500Y-214120000D03*
D14*
X223845500Y-219370000D03*
D13*
X220095500Y-216720000D03*
D12*
X218765500Y-219370000D03*
%TD*%
D11*
%TO.C,SW36*%
X210895500Y-214290000D03*
X197695500Y-216830000D03*
D12*
X209875500Y-219370000D03*
D13*
X207495500Y-214120000D03*
D14*
X204795500Y-219370000D03*
D13*
X201045500Y-216720000D03*
D12*
X199715500Y-219370000D03*
%TD*%
D11*
%TO.C,SW35*%
X191845500Y-214290000D03*
X178645500Y-216830000D03*
D12*
X190825500Y-219370000D03*
D13*
X188445500Y-214120000D03*
D14*
X185745500Y-219370000D03*
D13*
X181995500Y-216720000D03*
D12*
X180665500Y-219370000D03*
%TD*%
D11*
%TO.C,SW34*%
X165651750Y-214290000D03*
X152451750Y-216830000D03*
D12*
X164631750Y-219370000D03*
D13*
X162251750Y-214120000D03*
D14*
X159551750Y-219370000D03*
D13*
X155801750Y-216720000D03*
D12*
X154471750Y-219370000D03*
%TD*%
D11*
%TO.C,SW33*%
X420445500Y-195240000D03*
X407245500Y-197780000D03*
D12*
X419425500Y-200320000D03*
D13*
X417045500Y-195070000D03*
D14*
X414345500Y-200320000D03*
D13*
X410595500Y-197670000D03*
D12*
X409265500Y-200320000D03*
%TD*%
D11*
%TO.C,SW32*%
X396633000Y-195240000D03*
X383433000Y-197780000D03*
D12*
X395613000Y-200320000D03*
D13*
X393233000Y-195070000D03*
D14*
X390533000Y-200320000D03*
D13*
X386783000Y-197670000D03*
D12*
X385453000Y-200320000D03*
%TD*%
D11*
%TO.C,SW31*%
X377583000Y-195240000D03*
X364383000Y-197780000D03*
D12*
X376563000Y-200320000D03*
D13*
X374183000Y-195070000D03*
D14*
X371483000Y-200320000D03*
D13*
X367733000Y-197670000D03*
D12*
X366403000Y-200320000D03*
%TD*%
D11*
%TO.C,SW30*%
X358533000Y-195240000D03*
X345333000Y-197780000D03*
D12*
X357513000Y-200320000D03*
D13*
X355133000Y-195070000D03*
D14*
X352433000Y-200320000D03*
D13*
X348683000Y-197670000D03*
D12*
X347353000Y-200320000D03*
%TD*%
D11*
%TO.C,SW29*%
X339483000Y-195240000D03*
X326283000Y-197780000D03*
D12*
X338463000Y-200320000D03*
D13*
X336083000Y-195070000D03*
D14*
X333383000Y-200320000D03*
D13*
X329633000Y-197670000D03*
D12*
X328303000Y-200320000D03*
%TD*%
D11*
%TO.C,SW28*%
X320433000Y-195240000D03*
X307233000Y-197780000D03*
D12*
X319413000Y-200320000D03*
D13*
X317033000Y-195070000D03*
D14*
X314333000Y-200320000D03*
D13*
X310583000Y-197670000D03*
D12*
X309253000Y-200320000D03*
%TD*%
D11*
%TO.C,SW27*%
X301383000Y-195240000D03*
X288183000Y-197780000D03*
D12*
X300363000Y-200320000D03*
D13*
X297983000Y-195070000D03*
D14*
X295283000Y-200320000D03*
D13*
X291533000Y-197670000D03*
D12*
X290203000Y-200320000D03*
%TD*%
D11*
%TO.C,SW26*%
X282333000Y-195240000D03*
X269133000Y-197780000D03*
D12*
X281313000Y-200320000D03*
D13*
X278933000Y-195070000D03*
D14*
X276233000Y-200320000D03*
D13*
X272483000Y-197670000D03*
D12*
X271153000Y-200320000D03*
%TD*%
D11*
%TO.C,SW25*%
X263283000Y-195240000D03*
X250083000Y-197780000D03*
D12*
X262263000Y-200320000D03*
D13*
X259883000Y-195070000D03*
D14*
X257183000Y-200320000D03*
D13*
X253433000Y-197670000D03*
D12*
X252103000Y-200320000D03*
%TD*%
D11*
%TO.C,SW24*%
X244233000Y-195240000D03*
X231033000Y-197780000D03*
D12*
X243213000Y-200320000D03*
D13*
X240833000Y-195070000D03*
D14*
X238133000Y-200320000D03*
D13*
X234383000Y-197670000D03*
D12*
X233053000Y-200320000D03*
%TD*%
D11*
%TO.C,SW23*%
X225183000Y-195240000D03*
X211983000Y-197780000D03*
D12*
X224163000Y-200320000D03*
D13*
X221783000Y-195070000D03*
D14*
X219083000Y-200320000D03*
D13*
X215333000Y-197670000D03*
D12*
X214003000Y-200320000D03*
%TD*%
D11*
%TO.C,SW22*%
X206133000Y-195240000D03*
X192933000Y-197780000D03*
D12*
X205113000Y-200320000D03*
D13*
X202733000Y-195070000D03*
D14*
X200033000Y-200320000D03*
D13*
X196283000Y-197670000D03*
D12*
X194953000Y-200320000D03*
%TD*%
D11*
%TO.C,SW21*%
X187083000Y-195240000D03*
X173883000Y-197780000D03*
D12*
X186063000Y-200320000D03*
D13*
X183683000Y-195070000D03*
D14*
X180983000Y-200320000D03*
D13*
X177233000Y-197670000D03*
D12*
X175903000Y-200320000D03*
%TD*%
D11*
%TO.C,SW20*%
X163270500Y-195240000D03*
X150070500Y-197780000D03*
D12*
X162250500Y-200320000D03*
D13*
X159870500Y-195070000D03*
D14*
X157170500Y-200320000D03*
D13*
X153420500Y-197670000D03*
D12*
X152090500Y-200320000D03*
%TD*%
D11*
%TO.C,SW19*%
X415683000Y-176190000D03*
X402483000Y-178730000D03*
D12*
X414663000Y-181270000D03*
D13*
X412283000Y-176020000D03*
D14*
X409583000Y-181270000D03*
D13*
X405833000Y-178620000D03*
D12*
X404503000Y-181270000D03*
%TD*%
D11*
%TO.C,SW18*%
X387108000Y-176190000D03*
X373908000Y-178730000D03*
D12*
X386088000Y-181270000D03*
D13*
X383708000Y-176020000D03*
D14*
X381008000Y-181270000D03*
D13*
X377258000Y-178620000D03*
D12*
X375928000Y-181270000D03*
%TD*%
D11*
%TO.C,SW16*%
X349008000Y-176190000D03*
X335808000Y-178730000D03*
D12*
X347988000Y-181270000D03*
D13*
X345608000Y-176020000D03*
D14*
X342908000Y-181270000D03*
D13*
X339158000Y-178620000D03*
D12*
X337828000Y-181270000D03*
%TD*%
D11*
%TO.C,SW15*%
X329958000Y-176190000D03*
X316758000Y-178730000D03*
D12*
X328938000Y-181270000D03*
D13*
X326558000Y-176020000D03*
D14*
X323858000Y-181270000D03*
D13*
X320108000Y-178620000D03*
D12*
X318778000Y-181270000D03*
%TD*%
D11*
%TO.C,SW14*%
X310908000Y-176190000D03*
X297708000Y-178730000D03*
D12*
X309888000Y-181270000D03*
D13*
X307508000Y-176020000D03*
D14*
X304808000Y-181270000D03*
D13*
X301058000Y-178620000D03*
D12*
X299728000Y-181270000D03*
%TD*%
D11*
%TO.C,SW13*%
X291858000Y-176190000D03*
X278658000Y-178730000D03*
D12*
X290838000Y-181270000D03*
D13*
X288458000Y-176020000D03*
D14*
X285758000Y-181270000D03*
D13*
X282008000Y-178620000D03*
D12*
X280678000Y-181270000D03*
%TD*%
D11*
%TO.C,SW12*%
X272808000Y-176190000D03*
X259608000Y-178730000D03*
D12*
X271788000Y-181270000D03*
D13*
X269408000Y-176020000D03*
D14*
X266708000Y-181270000D03*
D13*
X262958000Y-178620000D03*
D12*
X261628000Y-181270000D03*
%TD*%
D11*
%TO.C,SW11*%
X253758000Y-176190000D03*
X240558000Y-178730000D03*
D12*
X252738000Y-181270000D03*
D13*
X250358000Y-176020000D03*
D14*
X247658000Y-181270000D03*
D13*
X243908000Y-178620000D03*
D12*
X242578000Y-181270000D03*
%TD*%
D11*
%TO.C,SW10*%
X234708000Y-176190000D03*
X221508000Y-178730000D03*
D12*
X233688000Y-181270000D03*
D13*
X231308000Y-176020000D03*
D14*
X228608000Y-181270000D03*
D13*
X224858000Y-178620000D03*
D12*
X223528000Y-181270000D03*
%TD*%
D11*
%TO.C,SW9*%
X215658000Y-176190000D03*
X202458000Y-178730000D03*
D12*
X214638000Y-181270000D03*
D13*
X212258000Y-176020000D03*
D14*
X209558000Y-181270000D03*
D13*
X205808000Y-178620000D03*
D12*
X204478000Y-181270000D03*
%TD*%
D11*
%TO.C,SW8*%
X196608000Y-176190000D03*
X183408000Y-178730000D03*
D12*
X195588000Y-181270000D03*
D13*
X193208000Y-176020000D03*
D14*
X190508000Y-181270000D03*
D13*
X186758000Y-178620000D03*
D12*
X185428000Y-181270000D03*
%TD*%
D11*
%TO.C,SW7*%
X177558000Y-176190000D03*
X164358000Y-178730000D03*
D12*
X176538000Y-181270000D03*
D13*
X174158000Y-176020000D03*
D14*
X171458000Y-181270000D03*
D13*
X167708000Y-178620000D03*
D12*
X166378000Y-181270000D03*
%TD*%
D11*
%TO.C,SW5*%
X253758000Y-147297500D03*
X240558000Y-149837500D03*
D12*
X252738000Y-152377500D03*
D13*
X250358000Y-147127500D03*
D14*
X247658000Y-152377500D03*
D13*
X243908000Y-149727500D03*
D12*
X242578000Y-152377500D03*
%TD*%
D11*
%TO.C,SW4*%
X234708000Y-147297500D03*
X221508000Y-149837500D03*
D12*
X233688000Y-152377500D03*
D13*
X231308000Y-147127500D03*
D14*
X228608000Y-152377500D03*
D13*
X224858000Y-149727500D03*
D12*
X223528000Y-152377500D03*
%TD*%
D11*
%TO.C,SW3*%
X215658000Y-147297500D03*
X202458000Y-149837500D03*
D12*
X214638000Y-152377500D03*
D13*
X212258000Y-147127500D03*
D14*
X209558000Y-152377500D03*
D13*
X205808000Y-149727500D03*
D12*
X204478000Y-152377500D03*
%TD*%
D11*
%TO.C,SW2*%
X196608000Y-147297500D03*
X183408000Y-149837500D03*
D12*
X195588000Y-152377500D03*
D13*
X193208000Y-147127500D03*
D14*
X190508000Y-152377500D03*
D13*
X186758000Y-149727500D03*
D12*
X185428000Y-152377500D03*
%TD*%
D15*
%TO.C,D35*%
X195262500Y-216535000D03*
D16*
X195262500Y-224155000D03*
%TD*%
D17*
%TO.C,RE1*%
X349687500Y-149062500D03*
D18*
X349687500Y-154062500D03*
X349687500Y-151562500D03*
D19*
X357187500Y-145962500D03*
X357187500Y-157162500D03*
D18*
X364187500Y-154062500D03*
X364187500Y-149062500D03*
%TD*%
D17*
%TO.C,RE2*%
X321100000Y-149062500D03*
D18*
X321100000Y-154062500D03*
X321100000Y-151562500D03*
D19*
X328600000Y-145962500D03*
X328600000Y-157162500D03*
D18*
X335600000Y-154062500D03*
X335600000Y-149062500D03*
%TD*%
D10*
%TO.C,TS2*%
X385900000Y-152400000D03*
X385900000Y-159400000D03*
%TD*%
D15*
%TO.C,C3*%
X480300000Y-244800000D03*
X480300000Y-249800000D03*
%TD*%
%TO.C,C2*%
X429600000Y-158000000D03*
X429600000Y-163000000D03*
%TD*%
D16*
%TO.C,D56*%
X357187500Y-243205000D03*
D15*
X357187500Y-235585000D03*
%TD*%
D16*
%TO.C,D42*%
X328612500Y-224155000D03*
D15*
X328612500Y-216535000D03*
%TD*%
D16*
%TO.C,D7*%
X180975000Y-186055000D03*
D15*
X180975000Y-178435000D03*
%TD*%
D16*
%TO.C,D54*%
X319087500Y-243205000D03*
D15*
X319087500Y-235585000D03*
%TD*%
D16*
%TO.C,D53*%
X300037500Y-243205000D03*
D15*
X300037500Y-235585000D03*
%TD*%
D16*
%TO.C,D58*%
X411956250Y-243205000D03*
D15*
X411956250Y-235585000D03*
%TD*%
%TO.C,R2*%
X421325000Y-144275000D03*
X428945000Y-144275000D03*
%TD*%
D16*
%TO.C,D21*%
X190500000Y-205105000D03*
D15*
X190500000Y-197485000D03*
%TD*%
D16*
%TO.C,D26*%
X285750000Y-205105000D03*
D15*
X285750000Y-197485000D03*
%TD*%
D16*
%TO.C,D63*%
X371475000Y-262255000D03*
D15*
X371475000Y-254635000D03*
%TD*%
D16*
%TO.C,D60*%
X180975000Y-262255000D03*
D15*
X180975000Y-254635000D03*
%TD*%
D16*
%TO.C,D20*%
X166687500Y-205105000D03*
D15*
X166687500Y-197485000D03*
%TD*%
D16*
%TO.C,D25*%
X266700000Y-205105000D03*
D15*
X266700000Y-197485000D03*
%TD*%
D16*
%TO.C,D1*%
X161925000Y-156210000D03*
D15*
X161925000Y-148590000D03*
%TD*%
D16*
%TO.C,D38*%
X252412500Y-224155000D03*
D15*
X252412500Y-216535000D03*
%TD*%
D16*
%TO.C,D19*%
X419100000Y-186055000D03*
D15*
X419100000Y-178435000D03*
%TD*%
D16*
%TO.C,D9*%
X219075000Y-186055000D03*
D15*
X219075000Y-178435000D03*
%TD*%
D16*
%TO.C,D2*%
X200025000Y-157162500D03*
D15*
X200025000Y-149542500D03*
%TD*%
D20*
%TO.C,U1*%
X268275000Y-156235000D03*
D21*
X268275000Y-153695000D03*
X268275000Y-151155000D03*
X268275000Y-148615000D03*
%TD*%
D16*
%TO.C,D22*%
X209550000Y-205105000D03*
D15*
X209550000Y-197485000D03*
%TD*%
D16*
%TO.C,D5*%
X257175000Y-157162500D03*
D15*
X257175000Y-149542500D03*
%TD*%
D16*
%TO.C,D12*%
X276225000Y-186055000D03*
D15*
X276225000Y-178435000D03*
%TD*%
D16*
%TO.C,D23*%
X228600000Y-205105000D03*
D15*
X228600000Y-197485000D03*
%TD*%
D16*
%TO.C,D51*%
X261937500Y-243205000D03*
D15*
X261937500Y-235585000D03*
%TD*%
D16*
%TO.C,D30*%
X361950000Y-205105000D03*
D15*
X361950000Y-197485000D03*
%TD*%
D16*
%TO.C,D6*%
X161925000Y-186055000D03*
D15*
X161925000Y-178435000D03*
%TD*%
D16*
%TO.C,D34*%
X169068750Y-224631250D03*
D15*
X169068750Y-217011250D03*
%TD*%
D16*
%TO.C,D13*%
X295275000Y-186055000D03*
D15*
X295275000Y-178435000D03*
%TD*%
D16*
%TO.C,D15*%
X333375000Y-186055000D03*
D15*
X333375000Y-178435000D03*
%TD*%
%TO.C,U2*%
X468880000Y-255840000D03*
D22*
X468880000Y-253300000D03*
D15*
X468880000Y-258380000D03*
X468880000Y-263460000D03*
X468880000Y-260920000D03*
X468880000Y-266000000D03*
X476500000Y-266000000D03*
X476500000Y-263460000D03*
X476500000Y-268540000D03*
X476500000Y-258380000D03*
X476500000Y-255840000D03*
X476500000Y-260920000D03*
X468880000Y-268540000D03*
X476500000Y-253300000D03*
%TD*%
D16*
%TO.C,D49*%
X223837500Y-243205000D03*
D15*
X223837500Y-235585000D03*
%TD*%
D16*
%TO.C,D4*%
X238125000Y-156210000D03*
D15*
X238125000Y-148590000D03*
%TD*%
D16*
%TO.C,D17*%
X371475000Y-186055000D03*
D15*
X371475000Y-178435000D03*
%TD*%
D16*
%TO.C,D62*%
X285750000Y-262255000D03*
D15*
X285750000Y-254635000D03*
%TD*%
D16*
%TO.C,D11*%
X257175000Y-186055000D03*
D15*
X257175000Y-178435000D03*
%TD*%
D16*
%TO.C,D65*%
X409575000Y-262255000D03*
D15*
X409575000Y-254635000D03*
%TD*%
D22*
%TO.C,U4*%
X432400000Y-142620000D03*
D15*
X432400000Y-145160000D03*
X432400000Y-147700000D03*
X432400000Y-150240000D03*
X432400000Y-152780000D03*
X432400000Y-155320000D03*
X432400000Y-157860000D03*
X432400000Y-160400000D03*
X440020000Y-160400000D03*
X440020000Y-157860000D03*
X440020000Y-155320000D03*
X440020000Y-152780000D03*
X440020000Y-150240000D03*
X440020000Y-147700000D03*
X440020000Y-145160000D03*
X440020000Y-142620000D03*
%TD*%
D16*
%TO.C,D41*%
X309562500Y-224155000D03*
D15*
X309562500Y-216535000D03*
%TD*%
D16*
%TO.C,D45*%
X385762500Y-224155000D03*
D15*
X385762500Y-216535000D03*
%TD*%
D23*
%TO.C,MX2*%
X152400000Y-231457500D03*
D14*
X152400000Y-246697500D03*
D23*
X176212500Y-231457500D03*
D14*
X176212500Y-246697500D03*
%TD*%
D23*
%TO.C,MX3*%
X395287500Y-212407500D03*
D14*
X395287500Y-227647500D03*
D23*
X419100000Y-212407500D03*
D14*
X419100000Y-227647500D03*
%TD*%
D16*
%TO.C,D24*%
X247650000Y-205105000D03*
D15*
X247650000Y-197485000D03*
%TD*%
D16*
%TO.C,D66*%
X428625000Y-262255000D03*
D15*
X428625000Y-254635000D03*
%TD*%
D16*
%TO.C,D10*%
X238125000Y-186055000D03*
D15*
X238125000Y-178435000D03*
%TD*%
D16*
%TO.C,D61*%
X200025000Y-262255000D03*
D15*
X200025000Y-254635000D03*
%TD*%
D16*
%TO.C,D43*%
X347662500Y-224155000D03*
D15*
X347662500Y-216535000D03*
%TD*%
D16*
%TO.C,D29*%
X342900000Y-205105000D03*
D15*
X342900000Y-197485000D03*
%TD*%
D16*
%TO.C,D48*%
X204787500Y-243205000D03*
D15*
X204787500Y-235585000D03*
%TD*%
%TO.C,R3*%
X421325000Y-148325000D03*
X428945000Y-148325000D03*
%TD*%
D23*
%TO.C,MX5*%
X264318750Y-250507500D03*
D14*
X264318750Y-265747500D03*
D23*
X288131250Y-250507500D03*
D14*
X288131250Y-265747500D03*
%TD*%
D16*
%TO.C,D37*%
X233362500Y-224155000D03*
D15*
X233362500Y-216535000D03*
%TD*%
D16*
%TO.C,D33*%
X423862500Y-205105000D03*
D15*
X423862500Y-197485000D03*
%TD*%
D16*
%TO.C,D55*%
X338137500Y-243205000D03*
D15*
X338137500Y-235585000D03*
%TD*%
D16*
%TO.C,D50*%
X242887500Y-243205000D03*
D15*
X242887500Y-235585000D03*
%TD*%
D16*
%TO.C,D8*%
X200025000Y-186055000D03*
D15*
X200025000Y-178435000D03*
%TD*%
D16*
%TO.C,D57*%
X376237500Y-243205000D03*
D15*
X376237500Y-235585000D03*
%TD*%
D16*
%TO.C,D39*%
X271462500Y-224155000D03*
D15*
X271462500Y-216535000D03*
%TD*%
D16*
%TO.C,D16*%
X352425000Y-186055000D03*
D15*
X352425000Y-178435000D03*
%TD*%
D16*
%TO.C,D18*%
X390525000Y-186055000D03*
D15*
X390525000Y-178435000D03*
%TD*%
D24*
%TO.C,A1*%
X454675000Y-140147500D03*
D25*
X454975000Y-143177500D03*
X459825000Y-143177500D03*
D24*
X460125000Y-140147500D03*
D26*
X448510000Y-140017500D03*
D15*
X448510000Y-142557500D03*
D27*
X448510000Y-145097500D03*
D15*
X448510000Y-147637500D03*
X448510000Y-150177500D03*
X448510000Y-152717500D03*
X448510000Y-155257500D03*
D27*
X448510000Y-157797500D03*
D15*
X448510000Y-160337500D03*
X448510000Y-162877500D03*
X448510000Y-165417500D03*
X448510000Y-167957500D03*
D27*
X448510000Y-170497500D03*
D15*
X448510000Y-173037500D03*
X448510000Y-175577500D03*
X448510000Y-178117500D03*
X448510000Y-180657500D03*
D27*
X448510000Y-183197500D03*
D15*
X448510000Y-185737500D03*
X448510000Y-188277500D03*
X466290000Y-188277500D03*
X466290000Y-185737500D03*
D28*
X466290000Y-183197500D03*
D15*
X466290000Y-180657500D03*
X466290000Y-178117500D03*
X466290000Y-175577500D03*
X466290000Y-173037500D03*
D28*
X466290000Y-170497500D03*
D15*
X466290000Y-167957500D03*
X466290000Y-165417500D03*
X466290000Y-162877500D03*
X466290000Y-160337500D03*
D28*
X466290000Y-157797500D03*
D15*
X466290000Y-155257500D03*
X466290000Y-152717500D03*
X466290000Y-150177500D03*
X466290000Y-147637500D03*
D28*
X466290000Y-145097500D03*
D15*
X466290000Y-142557500D03*
X466290000Y-140017500D03*
%TD*%
D16*
%TO.C,D59*%
X161925000Y-262255000D03*
D15*
X161925000Y-254635000D03*
%TD*%
D23*
%TO.C,MX5*%
X397668750Y-174307500D03*
D14*
X397668750Y-189547500D03*
D23*
X421481250Y-174307500D03*
D14*
X421481250Y-189547500D03*
%TD*%
D16*
%TO.C,D47*%
X173831250Y-243205000D03*
D15*
X173831250Y-235585000D03*
%TD*%
D16*
%TO.C,D40*%
X290512500Y-224155000D03*
D15*
X290512500Y-216535000D03*
%TD*%
D16*
%TO.C,D44*%
X366712500Y-224155000D03*
D15*
X366712500Y-216535000D03*
%TD*%
D23*
%TO.C,MX4*%
X390525000Y-231457500D03*
D14*
X390525000Y-246697500D03*
D23*
X414337500Y-231457500D03*
D14*
X414337500Y-246697500D03*
%TD*%
D16*
%TO.C,D32*%
X400050000Y-205105000D03*
D15*
X400050000Y-197485000D03*
%TD*%
D16*
%TO.C,D28*%
X323850000Y-205105000D03*
D15*
X323850000Y-197485000D03*
%TD*%
D16*
%TO.C,D27*%
X304800000Y-205105000D03*
D15*
X304800000Y-197485000D03*
%TD*%
D16*
%TO.C,D52*%
X280987500Y-243205000D03*
D15*
X280987500Y-235585000D03*
%TD*%
D16*
%TO.C,D46*%
X416718750Y-224155000D03*
D15*
X416718750Y-216535000D03*
%TD*%
D16*
%TO.C,D64*%
X390525000Y-262255000D03*
D15*
X390525000Y-254635000D03*
%TD*%
D16*
%TO.C,D31*%
X381000000Y-205105000D03*
D15*
X381000000Y-197485000D03*
%TD*%
D29*
%TO.C,MX1*%
X219075000Y-250507500D03*
D14*
X219075000Y-265747500D03*
D29*
X333375000Y-250507500D03*
D14*
X333375000Y-265747500D03*
%TD*%
D16*
%TO.C,D14*%
X314325000Y-186055000D03*
D15*
X314325000Y-178435000D03*
%TD*%
D16*
%TO.C,D36*%
X214312500Y-224155000D03*
D15*
X214312500Y-216535000D03*
%TD*%
D16*
%TO.C,D3*%
X219075000Y-157162500D03*
D15*
X219075000Y-149542500D03*
%TD*%
D30*
%TO.C,RGB_LED23*%
X412325000Y-186257500D03*
X412325000Y-184757500D03*
X406875000Y-184757500D03*
X406875000Y-186257500D03*
%TD*%
%TO.C,RGB_LED61*%
X326600000Y-186300000D03*
X326600000Y-184800000D03*
X321150000Y-184800000D03*
X321150000Y-186300000D03*
%TD*%
%TO.C,RGB_LED27*%
X245637500Y-224400000D03*
X245637500Y-222900000D03*
X240187500Y-222900000D03*
X240187500Y-224400000D03*
%TD*%
%TO.C,RGB_LED53*%
X264675000Y-224357500D03*
X264675000Y-222857500D03*
X259225000Y-222857500D03*
X259225000Y-224357500D03*
%TD*%
%TO.C,RGB_LED8*%
X269450000Y-186300000D03*
X269450000Y-184800000D03*
X264000000Y-184800000D03*
X264000000Y-186300000D03*
%TD*%
%TO.C,RGB_LED36*%
X345650000Y-186300000D03*
X345650000Y-184800000D03*
X340200000Y-184800000D03*
X340200000Y-186300000D03*
%TD*%
%TO.C,RGB_LED57*%
X350412500Y-243450000D03*
X350412500Y-241950000D03*
X344962500Y-241950000D03*
X344962500Y-243450000D03*
%TD*%
%TO.C,RGB_LED5*%
X298025000Y-205357500D03*
X298025000Y-203857500D03*
X292575000Y-203857500D03*
X292575000Y-205357500D03*
%TD*%
%TO.C,RGB_LED18*%
X155150000Y-262500000D03*
X155150000Y-261000000D03*
X149700000Y-261000000D03*
X149700000Y-262500000D03*
%TD*%
%TO.C,RGB_LED9*%
X383725000Y-186357500D03*
X383725000Y-184857500D03*
X378275000Y-184857500D03*
X378275000Y-186357500D03*
%TD*%
%TO.C,RGB_LED33*%
X364700000Y-262500000D03*
X364700000Y-261000000D03*
X359250000Y-261000000D03*
X359250000Y-262500000D03*
%TD*%
%TO.C,RGB_LED11*%
X317025000Y-205457500D03*
X317025000Y-203957500D03*
X311575000Y-203957500D03*
X311575000Y-205457500D03*
%TD*%
%TO.C,RGB_LED19*%
X278975000Y-262500000D03*
X278975000Y-261000000D03*
X273525000Y-261000000D03*
X273525000Y-262500000D03*
%TD*%
%TO.C,RGB_LED39*%
X374225000Y-205350000D03*
X374225000Y-203850000D03*
X368775000Y-203850000D03*
X368775000Y-205350000D03*
%TD*%
%TO.C,RGB_LED16*%
X217025000Y-243457500D03*
X217025000Y-241957500D03*
X211575000Y-241957500D03*
X211575000Y-243457500D03*
%TD*%
%TO.C,RGB_LED4*%
X202775000Y-205350000D03*
X202775000Y-203850000D03*
X197325000Y-203850000D03*
X197325000Y-205350000D03*
%TD*%
%TO.C,RGB_LED34*%
X231350000Y-157407500D03*
X231350000Y-155907500D03*
X225900000Y-155907500D03*
X225900000Y-157407500D03*
%TD*%
%TO.C,RGB_LED58*%
X402825000Y-262557500D03*
X402825000Y-261057500D03*
X397375000Y-261057500D03*
X397375000Y-262557500D03*
%TD*%
%TO.C,RGB_LED45*%
X405200000Y-243200000D03*
X405200000Y-241700000D03*
X399750000Y-241700000D03*
X399750000Y-243200000D03*
%TD*%
%TO.C,RGB_LED63*%
X274212500Y-243450000D03*
X274212500Y-241950000D03*
X268762500Y-241950000D03*
X268762500Y-243450000D03*
%TD*%
D31*
%TO.C,C1*%
X209300000Y-255400000D03*
D15*
X205800000Y-255400000D03*
%TD*%
D30*
%TO.C,RGB_LED44*%
X293262500Y-243450000D03*
X293262500Y-241950000D03*
X287812500Y-241950000D03*
X287812500Y-243450000D03*
%TD*%
%TO.C,RGB_LED50*%
X259925000Y-205350000D03*
X259925000Y-203850000D03*
X254475000Y-203850000D03*
X254475000Y-205350000D03*
%TD*%
%TO.C,RGB_LED41*%
X283737500Y-224400000D03*
X283737500Y-222900000D03*
X278287500Y-222900000D03*
X278287500Y-224400000D03*
%TD*%
%TO.C,RGB_LED56*%
X255162500Y-243450000D03*
X255162500Y-241950000D03*
X249712500Y-241950000D03*
X249712500Y-243450000D03*
%TD*%
%TO.C,RGB_LED52*%
X162225000Y-224457500D03*
X162225000Y-222957500D03*
X156775000Y-222957500D03*
X156775000Y-224457500D03*
%TD*%
%TO.C,RGB_LED32*%
X174200000Y-262500000D03*
X174200000Y-261000000D03*
X168750000Y-261000000D03*
X168750000Y-262500000D03*
%TD*%
%TO.C,RGB_LED6*%
X193250000Y-157407500D03*
X193250000Y-155907500D03*
X187800000Y-155907500D03*
X187800000Y-157407500D03*
%TD*%
%TO.C,RGB_LED47*%
X250400000Y-157407500D03*
X250400000Y-155907500D03*
X244950000Y-155907500D03*
X244950000Y-157407500D03*
%TD*%
%TO.C,RGB_LED24*%
X240875000Y-205350000D03*
X240875000Y-203850000D03*
X235425000Y-203850000D03*
X235425000Y-205350000D03*
%TD*%
%TO.C,RGB_LED1*%
X155150000Y-157407500D03*
X155150000Y-155907500D03*
X149700000Y-155907500D03*
X149700000Y-157407500D03*
%TD*%
%TO.C,RGB_LED12*%
X393275000Y-205350000D03*
X393275000Y-203850000D03*
X387825000Y-203850000D03*
X387825000Y-205350000D03*
%TD*%
%TO.C,RGB_LED35*%
X231350000Y-186300000D03*
X231350000Y-184800000D03*
X225900000Y-184800000D03*
X225900000Y-186300000D03*
%TD*%
%TO.C,RGB_LED30*%
X236112500Y-243450000D03*
X236112500Y-241950000D03*
X230662500Y-241950000D03*
X230662500Y-243450000D03*
%TD*%
%TO.C,RGB_LED20*%
X212300000Y-157407500D03*
X212300000Y-155907500D03*
X206850000Y-155907500D03*
X206850000Y-157407500D03*
%TD*%
%TO.C,RGB_LED42*%
X359937500Y-224400000D03*
X359937500Y-222900000D03*
X354487500Y-222900000D03*
X354487500Y-224400000D03*
%TD*%
%TO.C,RGB_LED7*%
X174200000Y-186300000D03*
X174200000Y-184800000D03*
X168750000Y-184800000D03*
X168750000Y-186300000D03*
%TD*%
%TO.C,RGB_LED55*%
X167056250Y-243450000D03*
X167056250Y-241950000D03*
X161606250Y-241950000D03*
X161606250Y-243450000D03*
%TD*%
%TO.C,RGB_LED31*%
X331362500Y-243450000D03*
X331362500Y-241950000D03*
X325912500Y-241950000D03*
X325912500Y-243450000D03*
%TD*%
%TO.C,RGB_LED15*%
X378987500Y-224400000D03*
X378987500Y-222900000D03*
X373537500Y-222900000D03*
X373537500Y-224400000D03*
%TD*%
%TO.C,RGB_LED48*%
X307550000Y-186300000D03*
X307550000Y-184800000D03*
X302100000Y-184800000D03*
X302100000Y-186300000D03*
%TD*%
%TO.C,RGB_LED37*%
X183725000Y-205350000D03*
X183725000Y-203850000D03*
X178275000Y-203850000D03*
X178275000Y-205350000D03*
%TD*%
%TO.C,RGB_LED49*%
X159875000Y-205457500D03*
X159875000Y-203957500D03*
X154425000Y-203957500D03*
X154425000Y-205457500D03*
%TD*%
%TO.C,RGB_LED2*%
X250400000Y-186300000D03*
X250400000Y-184800000D03*
X244950000Y-184800000D03*
X244950000Y-186300000D03*
%TD*%
%TO.C,RGB_LED26*%
X417025000Y-205357500D03*
X417025000Y-203857500D03*
X411575000Y-203857500D03*
X411575000Y-205357500D03*
%TD*%
%TO.C,RGB_LED17*%
X312312500Y-243450000D03*
X312312500Y-241950000D03*
X306862500Y-241950000D03*
X306862500Y-243450000D03*
%TD*%
%TO.C,RGB_LED3*%
X364725000Y-186357500D03*
X364725000Y-184857500D03*
X359275000Y-184857500D03*
X359275000Y-186357500D03*
%TD*%
%TO.C,RGB_LED66*%
X421850000Y-262500000D03*
X421850000Y-261000000D03*
X416400000Y-261000000D03*
X416400000Y-262500000D03*
%TD*%
%TO.C,RGB_LED64*%
X369462500Y-243450000D03*
X369462500Y-241950000D03*
X364012500Y-241950000D03*
X364012500Y-243450000D03*
%TD*%
%TO.C,RGB_LED29*%
X410025000Y-224357500D03*
X410025000Y-222857500D03*
X404575000Y-222857500D03*
X404575000Y-224357500D03*
%TD*%
%TO.C,RGB_LED25*%
X336125000Y-205350000D03*
X336125000Y-203850000D03*
X330675000Y-203850000D03*
X330675000Y-205350000D03*
%TD*%
%TO.C,RGB_LED51*%
X355175000Y-205350000D03*
X355175000Y-203850000D03*
X349725000Y-203850000D03*
X349725000Y-205350000D03*
%TD*%
%TO.C,RGB_LED13*%
X226587500Y-224400000D03*
X226587500Y-222900000D03*
X221137500Y-222900000D03*
X221137500Y-224400000D03*
%TD*%
%TO.C,RGB_LED22*%
X288500000Y-186300000D03*
X288500000Y-184800000D03*
X283050000Y-184800000D03*
X283050000Y-186300000D03*
%TD*%
%TO.C,RGB_LED14*%
X302787500Y-224400000D03*
X302787500Y-222900000D03*
X297337500Y-222900000D03*
X297337500Y-224400000D03*
%TD*%
%TO.C,RGB_LED60*%
X212300000Y-186300000D03*
X212300000Y-184800000D03*
X206850000Y-184800000D03*
X206850000Y-186300000D03*
%TD*%
%TO.C,RGB_LED46*%
X383750000Y-262500000D03*
X383750000Y-261000000D03*
X378300000Y-261000000D03*
X378300000Y-262500000D03*
%TD*%
%TO.C,RGB_LED62*%
X188487500Y-224400000D03*
X188487500Y-222900000D03*
X183037500Y-222900000D03*
X183037500Y-224400000D03*
%TD*%
%TO.C,RGB_LED28*%
X321837500Y-224400000D03*
X321837500Y-222900000D03*
X316387500Y-222900000D03*
X316387500Y-224400000D03*
%TD*%
%TO.C,RGB_LED54*%
X340887500Y-224400000D03*
X340887500Y-222900000D03*
X335437500Y-222900000D03*
X335437500Y-224400000D03*
%TD*%
%TO.C,RGB_LED21*%
X193250000Y-186300000D03*
X193250000Y-184800000D03*
X187800000Y-184800000D03*
X187800000Y-186300000D03*
%TD*%
%TO.C,RGB_LED65*%
X193225000Y-262457500D03*
X193225000Y-260957500D03*
X187775000Y-260957500D03*
X187775000Y-262457500D03*
%TD*%
%TO.C,RGB_LED59*%
X155150128Y-186357500D03*
X155150128Y-184857500D03*
X149700128Y-184857500D03*
X149700128Y-186357500D03*
%TD*%
%TO.C,RGB_LED43*%
X198012500Y-243450000D03*
X198012500Y-241950000D03*
X192562500Y-241950000D03*
X192562500Y-243450000D03*
%TD*%
%TO.C,RGB_LED40*%
X207537500Y-224400000D03*
X207537500Y-222900000D03*
X202087500Y-222900000D03*
X202087500Y-224400000D03*
%TD*%
%TO.C,RGB_LED38*%
X278975000Y-205350000D03*
X278975000Y-203850000D03*
X273525000Y-203850000D03*
X273525000Y-205350000D03*
%TD*%
%TO.C,RGB_LED10*%
X221825000Y-205350000D03*
X221825000Y-203850000D03*
X216375000Y-203850000D03*
X216375000Y-205350000D03*
%TD*%
M02*
