%TF.GenerationSoftware,KiCad,Pcbnew,10.0.5*%
%TF.CreationDate,2026-08-28T17:45:02-07:00*%
%TF.ProjectId,Custom Keyboard,43757374-6f6d-4204-9b65-79626f617264,rev?*%
%TF.SameCoordinates,Original*%
%TF.FileFunction,Soldermask,Bot*%
%TF.FilePolarity,Negative*%
%FSLAX46Y46*%
G04 Gerber Fmt 4.6, Leading zero omitted, Abs format (unit mm)*
G04 Created by KiCad (PCBNEW 10.0.5) date 2026-08-28 17:45:02*
%MOMM*%
%LPD*%
G01*
G04 APERTURE LIST*
G04 Aperture macros list*
%AMRoundRect*
0 Rectangle with rounded corners*
0 $1 Rounding radius*
0 $2 $3 $4 $5 $6 $7 $8 $9 X,Y pos of 4 corners*
0 Add a 4 corners polygon primitive as box body*
4,1,4,$2,$3,$4,$5,$6,$7,$8,$9,$2,$3,0*
0 Add four circle primitives for the rounded corners*
1,1,$1+$1,$2,$3*
1,1,$1+$1,$4,$5*
1,1,$1+$1,$6,$7*
1,1,$1+$1,$8,$9*
0 Add four rect primitives between the rounded corners*
20,1,$1+$1,$2,$3,$4,$5,0*
20,1,$1+$1,$4,$5,$6,$7,0*
20,1,$1+$1,$6,$7,$8,$9,0*
20,1,$1+$1,$8,$9,$2,$3,0*%
%AMFreePoly0*
4,1,37,0.603843,0.796157,0.639018,0.796157,0.711114,0.766294,0.766294,0.711114,0.796157,0.639018,0.796157,0.603843,0.800000,0.600000,0.800000,-0.600000,0.796157,-0.603843,0.796157,-0.639018,0.766294,-0.711114,0.711114,-0.766294,0.639018,-0.796157,0.603843,-0.796157,0.600000,-0.800000,0.000000,-0.800000,0.000000,-0.796148,-0.078414,-0.796148,-0.232228,-0.765552,-0.377117,-0.705537,
-0.507515,-0.618408,-0.618408,-0.507515,-0.705537,-0.377117,-0.765552,-0.232228,-0.796148,-0.078414,-0.796148,0.078414,-0.765552,0.232228,-0.705537,0.377117,-0.618408,0.507515,-0.507515,0.618408,-0.377117,0.705537,-0.232228,0.765552,-0.078414,0.796148,0.000000,0.796148,0.000000,0.800000,0.600000,0.800000,0.603843,0.796157,0.603843,0.796157,$1*%
%AMFreePoly1*
4,1,37,0.000000,0.796148,0.078414,0.796148,0.232228,0.765552,0.377117,0.705537,0.507515,0.618408,0.618408,0.507515,0.705537,0.377117,0.765552,0.232228,0.796148,0.078414,0.796148,-0.078414,0.765552,-0.232228,0.705537,-0.377117,0.618408,-0.507515,0.507515,-0.618408,0.377117,-0.705537,0.232228,-0.765552,0.078414,-0.796148,0.000000,-0.796148,0.000000,-0.800000,-0.600000,-0.800000,
-0.603843,-0.796157,-0.639018,-0.796157,-0.711114,-0.766294,-0.766294,-0.711114,-0.796157,-0.639018,-0.796157,-0.603843,-0.800000,-0.600000,-0.800000,0.600000,-0.796157,0.603843,-0.796157,0.639018,-0.766294,0.711114,-0.711114,0.766294,-0.639018,0.796157,-0.603843,0.796157,-0.600000,0.800000,0.000000,0.800000,0.000000,0.796148,0.000000,0.796148,$1*%
G04 Aperture macros list end*
%ADD10C,1.750000*%
%ADD11C,3.000000*%
%ADD12C,3.987800*%
%ADD13R,2.550000X2.500000*%
%ADD14RoundRect,0.250000X0.550000X-0.550000X0.550000X0.550000X-0.550000X0.550000X-0.550000X-0.550000X0*%
%ADD15C,1.600000*%
%ADD16RoundRect,0.170000X0.680000X-0.680000X0.680000X0.680000X-0.680000X0.680000X-0.680000X-0.680000X0*%
%ADD17C,1.700000*%
%ADD18R,2.000000X2.000000*%
%ADD19C,2.000000*%
%ADD20C,3.200000*%
%ADD21C,3.048000*%
%ADD22R,1.700000X1.700000*%
%ADD23C,2.200000*%
%ADD24C,1.850000*%
%ADD25RoundRect,0.200000X-0.600000X-0.600000X0.600000X-0.600000X0.600000X0.600000X-0.600000X0.600000X0*%
%ADD26FreePoly0,0.000000*%
%ADD27FreePoly1,0.000000*%
%ADD28RoundRect,0.205000X0.470000X0.205000X-0.470000X0.205000X-0.470000X-0.205000X0.470000X-0.205000X0*%
%ADD29RoundRect,0.200000X-0.200000X-0.275000X0.200000X-0.275000X0.200000X0.275000X-0.200000X0.275000X0*%
%ADD30RoundRect,0.250000X0.550000X0.550000X-0.550000X0.550000X-0.550000X-0.550000X0.550000X-0.550000X0*%
%ADD31C,4.000000*%
G04 APERTURE END LIST*
D10*
%TO.C,SW49*%
X209240500Y-238425000D03*
D11*
X210510500Y-235885000D03*
D12*
X214320500Y-238425000D03*
D11*
X216860500Y-233345000D03*
D10*
X219400500Y-238425000D03*
D13*
X207235500Y-235885000D03*
X220162500Y-233345000D03*
%TD*%
D10*
%TO.C,SW65*%
X394978000Y-257475000D03*
D11*
X396248000Y-254935000D03*
D12*
X400058000Y-257475000D03*
D11*
X402598000Y-252395000D03*
D10*
X405138000Y-257475000D03*
D13*
X392973000Y-254935000D03*
X405900000Y-252395000D03*
%TD*%
D10*
%TO.C,SW18*%
X375928000Y-181275000D03*
D11*
X377198000Y-178735000D03*
D12*
X381008000Y-181275000D03*
D11*
X383548000Y-176195000D03*
D10*
X386088000Y-181275000D03*
D13*
X373923000Y-178735000D03*
X386850000Y-176195000D03*
%TD*%
D14*
%TO.C,D56*%
X357187500Y-243205000D03*
D15*
X357187500Y-235585000D03*
%TD*%
D10*
%TO.C,SW22*%
X194953000Y-200325000D03*
D11*
X196223000Y-197785000D03*
D12*
X200033000Y-200325000D03*
D11*
X202573000Y-195245000D03*
D10*
X205113000Y-200325000D03*
D13*
X192948000Y-197785000D03*
X205875000Y-195245000D03*
%TD*%
D14*
%TO.C,D42*%
X328612500Y-224155000D03*
D15*
X328612500Y-216535000D03*
%TD*%
D10*
%TO.C,SW48*%
X190190500Y-238425000D03*
D11*
X191460500Y-235885000D03*
D12*
X195270500Y-238425000D03*
D11*
X197810500Y-233345000D03*
D10*
X200350500Y-238425000D03*
D13*
X188185500Y-235885000D03*
X201112500Y-233345000D03*
%TD*%
D14*
%TO.C,D7*%
X180975000Y-186055000D03*
D15*
X180975000Y-178435000D03*
%TD*%
D10*
%TO.C,SW2*%
X185428000Y-152382500D03*
D11*
X186698000Y-149842500D03*
D12*
X190508000Y-152382500D03*
D11*
X193048000Y-147302500D03*
D10*
X195588000Y-152382500D03*
D13*
X183423000Y-149842500D03*
X196350000Y-147302500D03*
%TD*%
D10*
%TO.C,SW38*%
X237815500Y-219375000D03*
D11*
X239085500Y-216835000D03*
D12*
X242895500Y-219375000D03*
D11*
X245435500Y-214295000D03*
D10*
X247975500Y-219375000D03*
D13*
X235810500Y-216835000D03*
X248737500Y-214295000D03*
%TD*%
D14*
%TO.C,D54*%
X319087500Y-243205000D03*
D15*
X319087500Y-235585000D03*
%TD*%
D16*
%TO.C,U1*%
X268250000Y-156210000D03*
D17*
X268250000Y-153670000D03*
X268250000Y-151130000D03*
X268250000Y-148590000D03*
%TD*%
D14*
%TO.C,D53*%
X300037500Y-243205000D03*
D15*
X300037500Y-235585000D03*
%TD*%
D14*
%TO.C,D58*%
X411956250Y-243205000D03*
D15*
X411956250Y-235585000D03*
%TD*%
D14*
%TO.C,D21*%
X190500000Y-205105000D03*
D15*
X190500000Y-197485000D03*
%TD*%
D10*
%TO.C,SW55*%
X323540500Y-238425000D03*
D11*
X324810500Y-235885000D03*
D12*
X328620500Y-238425000D03*
D11*
X331160500Y-233345000D03*
D10*
X333700500Y-238425000D03*
D13*
X321535500Y-235885000D03*
X334462500Y-233345000D03*
%TD*%
D14*
%TO.C,D26*%
X285750000Y-205105000D03*
D15*
X285750000Y-197485000D03*
%TD*%
D14*
%TO.C,D63*%
X371475000Y-262255000D03*
D15*
X371475000Y-254635000D03*
%TD*%
D14*
%TO.C,D60*%
X180975000Y-262255000D03*
D15*
X180975000Y-254635000D03*
%TD*%
D10*
%TO.C,SW28*%
X309253000Y-200325000D03*
D11*
X310523000Y-197785000D03*
D12*
X314333000Y-200325000D03*
D11*
X316873000Y-195245000D03*
D10*
X319413000Y-200325000D03*
D13*
X307248000Y-197785000D03*
X320175000Y-195245000D03*
%TD*%
D10*
%TO.C,SW63*%
X356878000Y-257475000D03*
D11*
X358148000Y-254935000D03*
D12*
X361958000Y-257475000D03*
D11*
X364498000Y-252395000D03*
D10*
X367038000Y-257475000D03*
D13*
X354873000Y-254935000D03*
X367800000Y-252395000D03*
%TD*%
D14*
%TO.C,D20*%
X166687500Y-205105000D03*
D15*
X166687500Y-197485000D03*
%TD*%
D10*
%TO.C,SW12*%
X261628000Y-181275000D03*
D11*
X262898000Y-178735000D03*
D12*
X266708000Y-181275000D03*
D11*
X269248000Y-176195000D03*
D10*
X271788000Y-181275000D03*
D13*
X259623000Y-178735000D03*
X272550000Y-176195000D03*
%TD*%
D14*
%TO.C,D25*%
X266700000Y-205105000D03*
D15*
X266700000Y-197485000D03*
%TD*%
D10*
%TO.C,SW39*%
X256865500Y-219375000D03*
D11*
X258135500Y-216835000D03*
D12*
X261945500Y-219375000D03*
D11*
X264485500Y-214295000D03*
D10*
X267025500Y-219375000D03*
D13*
X254860500Y-216835000D03*
X267787500Y-214295000D03*
%TD*%
D10*
%TO.C,SW36*%
X199715500Y-219375000D03*
D11*
X200985500Y-216835000D03*
D12*
X204795500Y-219375000D03*
D11*
X207335500Y-214295000D03*
D10*
X209875500Y-219375000D03*
D13*
X197710500Y-216835000D03*
X210637500Y-214295000D03*
%TD*%
D14*
%TO.C,D1*%
X161925000Y-156210000D03*
D15*
X161925000Y-148590000D03*
%TD*%
D10*
%TO.C,SW53*%
X285440500Y-238425000D03*
D11*
X286710500Y-235885000D03*
D12*
X290520500Y-238425000D03*
D11*
X293060500Y-233345000D03*
D10*
X295600500Y-238425000D03*
D13*
X283435500Y-235885000D03*
X296362500Y-233345000D03*
%TD*%
D14*
%TO.C,D38*%
X252412500Y-224155000D03*
D15*
X252412500Y-216535000D03*
%TD*%
D14*
%TO.C,D19*%
X419100000Y-186055000D03*
D15*
X419100000Y-178435000D03*
%TD*%
D14*
%TO.C,D9*%
X219075000Y-186055000D03*
D15*
X219075000Y-178435000D03*
%TD*%
D10*
%TO.C,SW60*%
X166378000Y-257475000D03*
D11*
X167648000Y-254935000D03*
D12*
X171458000Y-257475000D03*
D11*
X173998000Y-252395000D03*
D10*
X176538000Y-257475000D03*
D13*
X164373000Y-254935000D03*
X177300000Y-252395000D03*
%TD*%
D10*
%TO.C,SW26*%
X271153000Y-200325000D03*
D11*
X272423000Y-197785000D03*
D12*
X276233000Y-200325000D03*
D11*
X278773000Y-195245000D03*
D10*
X281313000Y-200325000D03*
D13*
X269148000Y-197785000D03*
X282075000Y-195245000D03*
%TD*%
D14*
%TO.C,D2*%
X200025000Y-157162500D03*
D15*
X200025000Y-149542500D03*
%TD*%
D10*
%TO.C,SW32*%
X385453000Y-200325000D03*
D11*
X386723000Y-197785000D03*
D12*
X390533000Y-200325000D03*
D11*
X393073000Y-195245000D03*
D10*
X395613000Y-200325000D03*
D13*
X383448000Y-197785000D03*
X396375000Y-195245000D03*
%TD*%
D14*
%TO.C,D22*%
X209550000Y-205105000D03*
D15*
X209550000Y-197485000D03*
%TD*%
D14*
%TO.C,D5*%
X257175000Y-157162500D03*
D15*
X257175000Y-149542500D03*
%TD*%
D10*
%TO.C,SW35*%
X180665500Y-219375000D03*
D11*
X181935500Y-216835000D03*
D12*
X185745500Y-219375000D03*
D11*
X188285500Y-214295000D03*
D10*
X190825500Y-219375000D03*
D13*
X178660500Y-216835000D03*
X191587500Y-214295000D03*
%TD*%
D14*
%TO.C,D12*%
X276225000Y-186055000D03*
D15*
X276225000Y-178435000D03*
%TD*%
D10*
%TO.C,SW66*%
X414028000Y-257475000D03*
D11*
X415298000Y-254935000D03*
D12*
X419108000Y-257475000D03*
D11*
X421648000Y-252395000D03*
D10*
X424188000Y-257475000D03*
D13*
X412023000Y-254935000D03*
X424950000Y-252395000D03*
%TD*%
D10*
%TO.C,SW62*%
X271153000Y-257475000D03*
D11*
X272423000Y-254935000D03*
D12*
X276233000Y-257475000D03*
D11*
X278773000Y-252395000D03*
D10*
X281313000Y-257475000D03*
D13*
X269148000Y-254935000D03*
X282075000Y-252395000D03*
%TD*%
D10*
%TO.C,SW20*%
X152090500Y-200325000D03*
D11*
X153360500Y-197785000D03*
D12*
X157170500Y-200325000D03*
D11*
X159710500Y-195245000D03*
D10*
X162250500Y-200325000D03*
D13*
X150085500Y-197785000D03*
X163012500Y-195245000D03*
%TD*%
D14*
%TO.C,D23*%
X228600000Y-205105000D03*
D15*
X228600000Y-197485000D03*
%TD*%
D10*
%TO.C,SW56*%
X342590500Y-238425000D03*
D11*
X343860500Y-235885000D03*
D12*
X347670500Y-238425000D03*
D11*
X350210500Y-233345000D03*
D10*
X352750500Y-238425000D03*
D13*
X340585500Y-235885000D03*
X353512500Y-233345000D03*
%TD*%
D10*
%TO.C,SW15*%
X318778000Y-181275000D03*
D11*
X320048000Y-178735000D03*
D12*
X323858000Y-181275000D03*
D11*
X326398000Y-176195000D03*
D10*
X328938000Y-181275000D03*
D13*
X316773000Y-178735000D03*
X329700000Y-176195000D03*
%TD*%
D10*
%TO.C,SW5*%
X242578000Y-152382500D03*
D11*
X243848000Y-149842500D03*
D12*
X247658000Y-152382500D03*
D11*
X250198000Y-147302500D03*
D10*
X252738000Y-152382500D03*
D13*
X240573000Y-149842500D03*
X253500000Y-147302500D03*
%TD*%
D14*
%TO.C,D51*%
X261937500Y-243205000D03*
D15*
X261937500Y-235585000D03*
%TD*%
D14*
%TO.C,D30*%
X361950000Y-205105000D03*
D15*
X361950000Y-197485000D03*
%TD*%
D10*
%TO.C,SW4*%
X223528000Y-152382500D03*
D11*
X224798000Y-149842500D03*
D12*
X228608000Y-152382500D03*
D11*
X231148000Y-147302500D03*
D10*
X233688000Y-152382500D03*
D13*
X221523000Y-149842500D03*
X234450000Y-147302500D03*
%TD*%
D14*
%TO.C,D6*%
X161925000Y-186055000D03*
D15*
X161925000Y-178435000D03*
%TD*%
D10*
%TO.C,SW8*%
X185428000Y-181275000D03*
D11*
X186698000Y-178735000D03*
D12*
X190508000Y-181275000D03*
D11*
X193048000Y-176195000D03*
D10*
X195588000Y-181275000D03*
D13*
X183423000Y-178735000D03*
X196350000Y-176195000D03*
%TD*%
D10*
%TO.C,SW61*%
X185428000Y-257475000D03*
D11*
X186698000Y-254935000D03*
D12*
X190508000Y-257475000D03*
D11*
X193048000Y-252395000D03*
D10*
X195588000Y-257475000D03*
D13*
X183423000Y-254935000D03*
X196350000Y-252395000D03*
%TD*%
D14*
%TO.C,D34*%
X169068750Y-224631250D03*
D15*
X169068750Y-217011250D03*
%TD*%
D10*
%TO.C,SW27*%
X290203000Y-200325000D03*
D11*
X291473000Y-197785000D03*
D12*
X295283000Y-200325000D03*
D11*
X297823000Y-195245000D03*
D10*
X300363000Y-200325000D03*
D13*
X288198000Y-197785000D03*
X301125000Y-195245000D03*
%TD*%
D14*
%TO.C,D13*%
X295275000Y-186055000D03*
D15*
X295275000Y-178435000D03*
%TD*%
D14*
%TO.C,D15*%
X333375000Y-186055000D03*
D15*
X333375000Y-178435000D03*
%TD*%
D14*
%TO.C,D49*%
X223837500Y-243205000D03*
D15*
X223837500Y-235585000D03*
%TD*%
D14*
%TO.C,D4*%
X238125000Y-156210000D03*
D15*
X238125000Y-148590000D03*
%TD*%
D10*
%TO.C,SW25*%
X252103000Y-200325000D03*
D11*
X253373000Y-197785000D03*
D12*
X257183000Y-200325000D03*
D11*
X259723000Y-195245000D03*
D10*
X262263000Y-200325000D03*
D13*
X250098000Y-197785000D03*
X263025000Y-195245000D03*
%TD*%
D14*
%TO.C,D17*%
X371475000Y-186055000D03*
D15*
X371475000Y-178435000D03*
%TD*%
D14*
%TO.C,D62*%
X285750000Y-262255000D03*
D15*
X285750000Y-254635000D03*
%TD*%
D18*
%TO.C,RE2*%
X321112500Y-149062500D03*
D19*
X321112500Y-154062500D03*
X321112500Y-151562500D03*
D20*
X328612500Y-145962500D03*
X328612500Y-157162500D03*
D19*
X335612500Y-154062500D03*
X335612500Y-149062500D03*
%TD*%
D10*
%TO.C,SW34*%
X154471750Y-219375000D03*
D11*
X155741750Y-216835000D03*
D12*
X159551750Y-219375000D03*
D11*
X162091750Y-214295000D03*
D10*
X164631750Y-219375000D03*
D13*
X152466750Y-216835000D03*
X165393750Y-214295000D03*
%TD*%
D14*
%TO.C,D11*%
X257175000Y-186055000D03*
D15*
X257175000Y-178435000D03*
%TD*%
D14*
%TO.C,D65*%
X409575000Y-262255000D03*
D15*
X409575000Y-254635000D03*
%TD*%
D10*
%TO.C,SW33*%
X409265500Y-200325000D03*
D11*
X410535500Y-197785000D03*
D12*
X414345500Y-200325000D03*
D11*
X416885500Y-195245000D03*
D10*
X419425500Y-200325000D03*
D13*
X407260500Y-197785000D03*
X420187500Y-195245000D03*
%TD*%
D14*
%TO.C,D41*%
X309562500Y-224155000D03*
D15*
X309562500Y-216535000D03*
%TD*%
D14*
%TO.C,D45*%
X385762500Y-224155000D03*
D15*
X385762500Y-216535000D03*
%TD*%
D10*
%TO.C,SW64*%
X375928000Y-257475000D03*
D11*
X377198000Y-254935000D03*
D12*
X381008000Y-257475000D03*
D11*
X383548000Y-252395000D03*
D10*
X386088000Y-257475000D03*
D13*
X373923000Y-254935000D03*
X386850000Y-252395000D03*
%TD*%
D21*
%TO.C,MX2*%
X152400000Y-231457500D03*
D12*
X152400000Y-246697500D03*
D21*
X176212500Y-231457500D03*
D12*
X176212500Y-246697500D03*
%TD*%
D10*
%TO.C,SW7*%
X166378000Y-181275000D03*
D11*
X167648000Y-178735000D03*
D12*
X171458000Y-181275000D03*
D11*
X173998000Y-176195000D03*
D10*
X176538000Y-181275000D03*
D13*
X164373000Y-178735000D03*
X177300000Y-176195000D03*
%TD*%
D22*
%TO.C,TS2*%
X414337500Y-152400000D03*
D17*
X414337500Y-154940000D03*
%TD*%
D10*
%TO.C,SW19*%
X404503000Y-181275000D03*
D11*
X405773000Y-178735000D03*
D12*
X409583000Y-181275000D03*
D11*
X412123000Y-176195000D03*
D10*
X414663000Y-181275000D03*
D13*
X402498000Y-178735000D03*
X415425000Y-176195000D03*
%TD*%
D10*
%TO.C,SW3*%
X204478000Y-152382500D03*
D11*
X205748000Y-149842500D03*
D12*
X209558000Y-152382500D03*
D11*
X212098000Y-147302500D03*
D10*
X214638000Y-152382500D03*
D13*
X202473000Y-149842500D03*
X215400000Y-147302500D03*
%TD*%
D21*
%TO.C,MX3*%
X395287500Y-212407500D03*
D12*
X395287500Y-227647500D03*
D21*
X419100000Y-212407500D03*
D12*
X419100000Y-227647500D03*
%TD*%
D14*
%TO.C,D24*%
X247650000Y-205105000D03*
D15*
X247650000Y-197485000D03*
%TD*%
D10*
%TO.C,SW43*%
X333065500Y-219375000D03*
D11*
X334335500Y-216835000D03*
D12*
X338145500Y-219375000D03*
D11*
X340685500Y-214295000D03*
D10*
X343225500Y-219375000D03*
D13*
X331060500Y-216835000D03*
X343987500Y-214295000D03*
%TD*%
D10*
%TO.C,SW13*%
X280678000Y-181275000D03*
D11*
X281948000Y-178735000D03*
D12*
X285758000Y-181275000D03*
D11*
X288298000Y-176195000D03*
D10*
X290838000Y-181275000D03*
D13*
X278673000Y-178735000D03*
X291600000Y-176195000D03*
%TD*%
D14*
%TO.C,D66*%
X428625000Y-262255000D03*
D15*
X428625000Y-254635000D03*
%TD*%
D14*
%TO.C,D10*%
X238125000Y-186055000D03*
D15*
X238125000Y-178435000D03*
%TD*%
D10*
%TO.C,SW31*%
X366403000Y-200325000D03*
D11*
X367673000Y-197785000D03*
D12*
X371483000Y-200325000D03*
D11*
X374023000Y-195245000D03*
D10*
X376563000Y-200325000D03*
D13*
X364398000Y-197785000D03*
X377325000Y-195245000D03*
%TD*%
D14*
%TO.C,D61*%
X200025000Y-262255000D03*
D15*
X200025000Y-254635000D03*
%TD*%
D10*
%TO.C,SW44*%
X352115500Y-219375000D03*
D11*
X353385500Y-216835000D03*
D12*
X357195500Y-219375000D03*
D11*
X359735500Y-214295000D03*
D10*
X362275500Y-219375000D03*
D13*
X350110500Y-216835000D03*
X363037500Y-214295000D03*
%TD*%
D14*
%TO.C,D43*%
X347662500Y-224155000D03*
D15*
X347662500Y-216535000D03*
%TD*%
D10*
%TO.C,SW52*%
X266390500Y-238425000D03*
D11*
X267660500Y-235885000D03*
D12*
X271470500Y-238425000D03*
D11*
X274010500Y-233345000D03*
D10*
X276550500Y-238425000D03*
D13*
X264385500Y-235885000D03*
X277312500Y-233345000D03*
%TD*%
D14*
%TO.C,D29*%
X342900000Y-205105000D03*
D15*
X342900000Y-197485000D03*
%TD*%
D14*
%TO.C,D48*%
X204787500Y-243205000D03*
D15*
X204787500Y-235585000D03*
%TD*%
D21*
%TO.C,MX5*%
X264318750Y-250507500D03*
D12*
X264318750Y-265747500D03*
D21*
X288131250Y-250507500D03*
D12*
X288131250Y-265747500D03*
%TD*%
D14*
%TO.C,D37*%
X233362500Y-224155000D03*
D15*
X233362500Y-216535000D03*
%TD*%
D14*
%TO.C,D33*%
X423862500Y-205105000D03*
D15*
X423862500Y-197485000D03*
%TD*%
D14*
%TO.C,D55*%
X338137500Y-243205000D03*
D15*
X338137500Y-235585000D03*
%TD*%
D10*
%TO.C,SW45*%
X371165500Y-219375000D03*
D11*
X372435500Y-216835000D03*
D12*
X376245500Y-219375000D03*
D11*
X378785500Y-214295000D03*
D10*
X381325500Y-219375000D03*
D13*
X369160500Y-216835000D03*
X382087500Y-214295000D03*
%TD*%
D10*
%TO.C,SW42*%
X314015500Y-219375000D03*
D11*
X315285500Y-216835000D03*
D12*
X319095500Y-219375000D03*
D11*
X321635500Y-214295000D03*
D10*
X324175500Y-219375000D03*
D13*
X312010500Y-216835000D03*
X324937500Y-214295000D03*
%TD*%
D10*
%TO.C,SW1*%
X147328000Y-152382500D03*
D11*
X148598000Y-149842500D03*
D12*
X152408000Y-152382500D03*
D11*
X154948000Y-147302500D03*
D10*
X157488000Y-152382500D03*
D13*
X145323000Y-149842500D03*
X158250000Y-147302500D03*
%TD*%
D10*
%TO.C,SW51*%
X247340500Y-238425000D03*
D11*
X248610500Y-235885000D03*
D12*
X252420500Y-238425000D03*
D11*
X254960500Y-233345000D03*
D10*
X257500500Y-238425000D03*
D13*
X245335500Y-235885000D03*
X258262500Y-233345000D03*
%TD*%
D10*
%TO.C,SW14*%
X299728000Y-181275000D03*
D11*
X300998000Y-178735000D03*
D12*
X304808000Y-181275000D03*
D11*
X307348000Y-176195000D03*
D10*
X309888000Y-181275000D03*
D13*
X297723000Y-178735000D03*
X310650000Y-176195000D03*
%TD*%
D10*
%TO.C,SW29*%
X328303000Y-200325000D03*
D11*
X329573000Y-197785000D03*
D12*
X333383000Y-200325000D03*
D11*
X335923000Y-195245000D03*
D10*
X338463000Y-200325000D03*
D13*
X326298000Y-197785000D03*
X339225000Y-195245000D03*
%TD*%
D14*
%TO.C,D50*%
X242887500Y-243205000D03*
D15*
X242887500Y-235585000D03*
%TD*%
D10*
%TO.C,SW41*%
X294965500Y-219375000D03*
D11*
X296235500Y-216835000D03*
D12*
X300045500Y-219375000D03*
D11*
X302585500Y-214295000D03*
D10*
X305125500Y-219375000D03*
D13*
X292960500Y-216835000D03*
X305887500Y-214295000D03*
%TD*%
D10*
%TO.C,SW37*%
X218765500Y-219375000D03*
D11*
X220035500Y-216835000D03*
D12*
X223845500Y-219375000D03*
D11*
X226385500Y-214295000D03*
D10*
X228925500Y-219375000D03*
D13*
X216760500Y-216835000D03*
X229687500Y-214295000D03*
%TD*%
D18*
%TO.C,RE1*%
X349687500Y-149062500D03*
D19*
X349687500Y-154062500D03*
X349687500Y-151562500D03*
D20*
X357187500Y-145962500D03*
X357187500Y-157162500D03*
D19*
X364187500Y-154062500D03*
X364187500Y-149062500D03*
%TD*%
D14*
%TO.C,D8*%
X200025000Y-186055000D03*
D15*
X200025000Y-178435000D03*
%TD*%
D14*
%TO.C,D57*%
X376237500Y-243205000D03*
D15*
X376237500Y-235585000D03*
%TD*%
D14*
%TO.C,D39*%
X271462500Y-224155000D03*
D15*
X271462500Y-216535000D03*
%TD*%
D10*
%TO.C,SW16*%
X337828000Y-181275000D03*
D11*
X339098000Y-178735000D03*
D12*
X342908000Y-181275000D03*
D11*
X345448000Y-176195000D03*
D10*
X347988000Y-181275000D03*
D13*
X335823000Y-178735000D03*
X348750000Y-176195000D03*
%TD*%
D14*
%TO.C,D16*%
X352425000Y-186055000D03*
D15*
X352425000Y-178435000D03*
%TD*%
D14*
%TO.C,D18*%
X390525000Y-186055000D03*
D15*
X390525000Y-178435000D03*
%TD*%
D23*
%TO.C,A1*%
X454675000Y-140147500D03*
D24*
X454975000Y-143177500D03*
X459825000Y-143177500D03*
D23*
X460125000Y-140147500D03*
D25*
X448510000Y-140017500D03*
D15*
X448510000Y-142557500D03*
D26*
X448510000Y-145097500D03*
D15*
X448510000Y-147637500D03*
X448510000Y-150177500D03*
X448510000Y-152717500D03*
X448510000Y-155257500D03*
D26*
X448510000Y-157797500D03*
D15*
X448510000Y-160337500D03*
X448510000Y-162877500D03*
X448510000Y-165417500D03*
X448510000Y-167957500D03*
D26*
X448510000Y-170497500D03*
D15*
X448510000Y-173037500D03*
X448510000Y-175577500D03*
X448510000Y-178117500D03*
X448510000Y-180657500D03*
D26*
X448510000Y-183197500D03*
D15*
X448510000Y-185737500D03*
X448510000Y-188277500D03*
X466290000Y-188277500D03*
X466290000Y-185737500D03*
D27*
X466290000Y-183197500D03*
D15*
X466290000Y-180657500D03*
X466290000Y-178117500D03*
X466290000Y-175577500D03*
X466290000Y-173037500D03*
D27*
X466290000Y-170497500D03*
D15*
X466290000Y-167957500D03*
X466290000Y-165417500D03*
X466290000Y-162877500D03*
X466290000Y-160337500D03*
D27*
X466290000Y-157797500D03*
D15*
X466290000Y-155257500D03*
X466290000Y-152717500D03*
X466290000Y-150177500D03*
X466290000Y-147637500D03*
D27*
X466290000Y-145097500D03*
D15*
X466290000Y-142557500D03*
X466290000Y-140017500D03*
%TD*%
D14*
%TO.C,D59*%
X161925000Y-262255000D03*
D15*
X161925000Y-254635000D03*
%TD*%
D21*
%TO.C,MX5*%
X397668750Y-174307500D03*
D12*
X397668750Y-189547500D03*
D21*
X421481250Y-174307500D03*
D12*
X421481250Y-189547500D03*
%TD*%
D10*
%TO.C,SW9*%
X204478000Y-181275000D03*
D11*
X205748000Y-178735000D03*
D12*
X209558000Y-181275000D03*
D11*
X212098000Y-176195000D03*
D10*
X214638000Y-181275000D03*
D13*
X202473000Y-178735000D03*
X215400000Y-176195000D03*
%TD*%
D14*
%TO.C,D47*%
X173831250Y-243205000D03*
D15*
X173831250Y-235585000D03*
%TD*%
D10*
%TO.C,SW23*%
X214003000Y-200325000D03*
D11*
X215273000Y-197785000D03*
D12*
X219083000Y-200325000D03*
D11*
X221623000Y-195245000D03*
D10*
X224163000Y-200325000D03*
D13*
X211998000Y-197785000D03*
X224925000Y-195245000D03*
%TD*%
D14*
%TO.C,D40*%
X290512500Y-224155000D03*
D15*
X290512500Y-216535000D03*
%TD*%
D14*
%TO.C,D44*%
X366712500Y-224155000D03*
D15*
X366712500Y-216535000D03*
%TD*%
D21*
%TO.C,MX4*%
X390525000Y-231457500D03*
D12*
X390525000Y-246697500D03*
D21*
X414337500Y-231457500D03*
D12*
X414337500Y-246697500D03*
%TD*%
D10*
%TO.C,SW21*%
X175903000Y-200325000D03*
D11*
X177173000Y-197785000D03*
D12*
X180983000Y-200325000D03*
D11*
X183523000Y-195245000D03*
D10*
X186063000Y-200325000D03*
D13*
X173898000Y-197785000D03*
X186825000Y-195245000D03*
%TD*%
D14*
%TO.C,D32*%
X400050000Y-205105000D03*
D15*
X400050000Y-197485000D03*
%TD*%
D14*
%TO.C,D28*%
X323850000Y-205105000D03*
D15*
X323850000Y-197485000D03*
%TD*%
D14*
%TO.C,D27*%
X304800000Y-205105000D03*
D15*
X304800000Y-197485000D03*
%TD*%
D10*
%TO.C,SW58*%
X397359250Y-238425000D03*
D11*
X398629250Y-235885000D03*
D12*
X402439250Y-238425000D03*
D11*
X404979250Y-233345000D03*
D10*
X407519250Y-238425000D03*
D13*
X395354250Y-235885000D03*
X408281250Y-233345000D03*
%TD*%
D14*
%TO.C,D52*%
X280987500Y-243205000D03*
D15*
X280987500Y-235585000D03*
%TD*%
D10*
%TO.C,SW57*%
X361640500Y-238425000D03*
D11*
X362910500Y-235885000D03*
D12*
X366720500Y-238425000D03*
D11*
X369260500Y-233345000D03*
D10*
X371800500Y-238425000D03*
D13*
X359635500Y-235885000D03*
X372562500Y-233345000D03*
%TD*%
D14*
%TO.C,D46*%
X416718750Y-224155000D03*
D15*
X416718750Y-216535000D03*
%TD*%
D10*
%TO.C,SW24*%
X233053000Y-200325000D03*
D11*
X234323000Y-197785000D03*
D12*
X238133000Y-200325000D03*
D11*
X240673000Y-195245000D03*
D10*
X243213000Y-200325000D03*
D13*
X231048000Y-197785000D03*
X243975000Y-195245000D03*
%TD*%
D10*
%TO.C,SW30*%
X347353000Y-200325000D03*
D11*
X348623000Y-197785000D03*
D12*
X352433000Y-200325000D03*
D11*
X354973000Y-195245000D03*
D10*
X357513000Y-200325000D03*
D13*
X345348000Y-197785000D03*
X358275000Y-195245000D03*
%TD*%
D14*
%TO.C,D64*%
X390525000Y-262255000D03*
D15*
X390525000Y-254635000D03*
%TD*%
D22*
%TO.C,TS1*%
X385762500Y-152400000D03*
D17*
X385762500Y-154940000D03*
%TD*%
D10*
%TO.C,SW11*%
X242578000Y-181275000D03*
D11*
X243848000Y-178735000D03*
D12*
X247658000Y-181275000D03*
D11*
X250198000Y-176195000D03*
D10*
X252738000Y-181275000D03*
D13*
X240573000Y-178735000D03*
X253500000Y-176195000D03*
%TD*%
D10*
%TO.C,SW17*%
X356878000Y-181275000D03*
D11*
X358148000Y-178735000D03*
D12*
X361958000Y-181275000D03*
D11*
X364498000Y-176195000D03*
D10*
X367038000Y-181275000D03*
D13*
X354873000Y-178735000D03*
X367800000Y-176195000D03*
%TD*%
D10*
%TO.C,SW6*%
X147328000Y-181275000D03*
D11*
X148598000Y-178735000D03*
D12*
X152408000Y-181275000D03*
D11*
X154948000Y-176195000D03*
D10*
X157488000Y-181275000D03*
D13*
X145323000Y-178735000D03*
X158250000Y-176195000D03*
%TD*%
D10*
%TO.C,SW50*%
X228290500Y-238425000D03*
D11*
X229560500Y-235885000D03*
D12*
X233370500Y-238425000D03*
D11*
X235910500Y-233345000D03*
D10*
X238450500Y-238425000D03*
D13*
X226285500Y-235885000D03*
X239212500Y-233345000D03*
%TD*%
D14*
%TO.C,D35*%
X195262500Y-224155000D03*
D15*
X195262500Y-216535000D03*
%TD*%
D14*
%TO.C,D31*%
X381000000Y-205105000D03*
D15*
X381000000Y-197485000D03*
%TD*%
D10*
%TO.C,SW10*%
X223528000Y-181275000D03*
D11*
X224798000Y-178735000D03*
D12*
X228608000Y-181275000D03*
D11*
X231148000Y-176195000D03*
D10*
X233688000Y-181275000D03*
D13*
X221523000Y-178735000D03*
X234450000Y-176195000D03*
%TD*%
D10*
%TO.C,SW59*%
X147328000Y-257475000D03*
D11*
X148598000Y-254935000D03*
D12*
X152408000Y-257475000D03*
D11*
X154948000Y-252395000D03*
D10*
X157488000Y-257475000D03*
D13*
X145323000Y-254935000D03*
X158250000Y-252395000D03*
%TD*%
D14*
%TO.C,D14*%
X314325000Y-186055000D03*
D15*
X314325000Y-178435000D03*
%TD*%
D14*
%TO.C,D36*%
X214312500Y-224155000D03*
D15*
X214312500Y-216535000D03*
%TD*%
D10*
%TO.C,SW47*%
X159234250Y-238425000D03*
D11*
X160504250Y-235885000D03*
D12*
X164314250Y-238425000D03*
D11*
X166854250Y-233345000D03*
D10*
X169394250Y-238425000D03*
D13*
X157229250Y-235885000D03*
X170156250Y-233345000D03*
%TD*%
D10*
%TO.C,SW40*%
X275915500Y-219375000D03*
D11*
X277185500Y-216835000D03*
D12*
X280995500Y-219375000D03*
D11*
X283535500Y-214295000D03*
D10*
X286075500Y-219375000D03*
D13*
X273910500Y-216835000D03*
X286837500Y-214295000D03*
%TD*%
D10*
%TO.C,SW54*%
X304490500Y-238425000D03*
D11*
X305760500Y-235885000D03*
D12*
X309570500Y-238425000D03*
D11*
X312110500Y-233345000D03*
D10*
X314650500Y-238425000D03*
D13*
X302485500Y-235885000D03*
X315412500Y-233345000D03*
%TD*%
D10*
%TO.C,SW46*%
X402121750Y-219375000D03*
D11*
X403391750Y-216835000D03*
D12*
X407201750Y-219375000D03*
D11*
X409741750Y-214295000D03*
D10*
X412281750Y-219375000D03*
D13*
X400116750Y-216835000D03*
X413043750Y-214295000D03*
%TD*%
D14*
%TO.C,D3*%
X219075000Y-157162500D03*
D15*
X219075000Y-149542500D03*
%TD*%
D28*
%TO.C,RGB_LED19*%
X412325000Y-186257500D03*
X412325000Y-184757500D03*
X406875000Y-184757500D03*
X406875000Y-186257500D03*
%TD*%
%TO.C,RGB_LED15*%
X326600000Y-186300000D03*
X326600000Y-184800000D03*
X321150000Y-184800000D03*
X321150000Y-186300000D03*
%TD*%
%TO.C,RGB_LED38*%
X245637500Y-224400000D03*
X245637500Y-222900000D03*
X240187500Y-222900000D03*
X240187500Y-224400000D03*
%TD*%
%TO.C,RGB_LED39*%
X264675000Y-224357500D03*
X264675000Y-222857500D03*
X259225000Y-222857500D03*
X259225000Y-224357500D03*
%TD*%
%TO.C,RGB_LED12*%
X269450000Y-186300000D03*
X269450000Y-184800000D03*
X264000000Y-184800000D03*
X264000000Y-186300000D03*
%TD*%
%TO.C,RGB_LED16*%
X345650000Y-186300000D03*
X345650000Y-184800000D03*
X340200000Y-184800000D03*
X340200000Y-186300000D03*
%TD*%
%TO.C,RGB_LED56*%
X350412500Y-243450000D03*
X350412500Y-241950000D03*
X344962500Y-241950000D03*
X344962500Y-243450000D03*
%TD*%
%TO.C,RGB_LED27*%
X298025000Y-205357500D03*
X298025000Y-203857500D03*
X292575000Y-203857500D03*
X292575000Y-205357500D03*
%TD*%
D29*
%TO.C,R1*%
X142050000Y-153000000D03*
X143700000Y-153000000D03*
%TD*%
D28*
%TO.C,RGB_LED59*%
X155150000Y-262500000D03*
X155150000Y-261000000D03*
X149700000Y-261000000D03*
X149700000Y-262500000D03*
%TD*%
%TO.C,RGB_LED18*%
X383725000Y-186357500D03*
X383725000Y-184857500D03*
X378275000Y-184857500D03*
X378275000Y-186357500D03*
%TD*%
%TO.C,RGB_LED63*%
X364700000Y-262500000D03*
X364700000Y-261000000D03*
X359250000Y-261000000D03*
X359250000Y-262500000D03*
%TD*%
%TO.C,RGB_LED28*%
X317025000Y-205457500D03*
X317025000Y-203957500D03*
X311575000Y-203957500D03*
X311575000Y-205457500D03*
%TD*%
%TO.C,RGB_LED62*%
X278975000Y-262500000D03*
X278975000Y-261000000D03*
X273525000Y-261000000D03*
X273525000Y-262500000D03*
%TD*%
%TO.C,RGB_LED31*%
X374225000Y-205350000D03*
X374225000Y-203850000D03*
X368775000Y-203850000D03*
X368775000Y-205350000D03*
%TD*%
%TO.C,RGB_LED49*%
X217025000Y-243457500D03*
X217025000Y-241957500D03*
X211575000Y-241957500D03*
X211575000Y-243457500D03*
%TD*%
%TO.C,RGB_LED22*%
X202775000Y-205350000D03*
X202775000Y-203850000D03*
X197325000Y-203850000D03*
X197325000Y-205350000D03*
%TD*%
%TO.C,RGB_LED4*%
X231350000Y-157407500D03*
X231350000Y-155907500D03*
X225900000Y-155907500D03*
X225900000Y-157407500D03*
%TD*%
%TO.C,RGB_LED65*%
X402825000Y-262557500D03*
X402825000Y-261057500D03*
X397375000Y-261057500D03*
X397375000Y-262557500D03*
%TD*%
%TO.C,RGB_LED58*%
X405200000Y-243200000D03*
X405200000Y-241700000D03*
X399750000Y-241700000D03*
X399750000Y-243200000D03*
%TD*%
%TO.C,RGB_LED52*%
X274212500Y-243450000D03*
X274212500Y-241950000D03*
X268762500Y-241950000D03*
X268762500Y-243450000D03*
%TD*%
D30*
%TO.C,C1*%
X171450000Y-152400000D03*
D15*
X167950000Y-152400000D03*
%TD*%
D28*
%TO.C,RGB_LED53*%
X293262500Y-243450000D03*
X293262500Y-241950000D03*
X287812500Y-241950000D03*
X287812500Y-243450000D03*
%TD*%
%TO.C,RGB_LED25*%
X259925000Y-205350000D03*
X259925000Y-203850000D03*
X254475000Y-203850000D03*
X254475000Y-205350000D03*
%TD*%
%TO.C,RGB_LED40*%
X283737500Y-224400000D03*
X283737500Y-222900000D03*
X278287500Y-222900000D03*
X278287500Y-224400000D03*
%TD*%
%TO.C,RGB_LED51*%
X255162500Y-243450000D03*
X255162500Y-241950000D03*
X249712500Y-241950000D03*
X249712500Y-243450000D03*
%TD*%
%TO.C,RGB_LED34*%
X162225000Y-224457500D03*
X162225000Y-222957500D03*
X156775000Y-222957500D03*
X156775000Y-224457500D03*
%TD*%
%TO.C,RGB_LED60*%
X174200000Y-262500000D03*
X174200000Y-261000000D03*
X168750000Y-261000000D03*
X168750000Y-262500000D03*
%TD*%
%TO.C,RGB_LED2*%
X193250000Y-157407500D03*
X193250000Y-155907500D03*
X187800000Y-155907500D03*
X187800000Y-157407500D03*
%TD*%
%TO.C,RGB_LED5*%
X250400000Y-157407500D03*
X250400000Y-155907500D03*
X244950000Y-155907500D03*
X244950000Y-157407500D03*
%TD*%
%TO.C,RGB_LED24*%
X240875000Y-205350000D03*
X240875000Y-203850000D03*
X235425000Y-203850000D03*
X235425000Y-205350000D03*
%TD*%
%TO.C,RGB_LED1*%
X155150000Y-157407500D03*
X155150000Y-155907500D03*
X149700000Y-155907500D03*
X149700000Y-157407500D03*
%TD*%
%TO.C,RGB_LED32*%
X393275000Y-205350000D03*
X393275000Y-203850000D03*
X387825000Y-203850000D03*
X387825000Y-205350000D03*
%TD*%
%TO.C,RGB_LED10*%
X231350000Y-186300000D03*
X231350000Y-184800000D03*
X225900000Y-184800000D03*
X225900000Y-186300000D03*
%TD*%
%TO.C,RGB_LED50*%
X236112500Y-243450000D03*
X236112500Y-241950000D03*
X230662500Y-241950000D03*
X230662500Y-243450000D03*
%TD*%
%TO.C,RGB_LED3*%
X212300000Y-157407500D03*
X212300000Y-155907500D03*
X206850000Y-155907500D03*
X206850000Y-157407500D03*
%TD*%
%TO.C,RGB_LED44*%
X359937500Y-224400000D03*
X359937500Y-222900000D03*
X354487500Y-222900000D03*
X354487500Y-224400000D03*
%TD*%
%TO.C,RGB_LED7*%
X174200000Y-186300000D03*
X174200000Y-184800000D03*
X168750000Y-184800000D03*
X168750000Y-186300000D03*
%TD*%
%TO.C,RGB_LED47*%
X167056250Y-243450000D03*
X167056250Y-241950000D03*
X161606250Y-241950000D03*
X161606250Y-243450000D03*
%TD*%
%TO.C,RGB_LED55*%
X331362500Y-243450000D03*
X331362500Y-241950000D03*
X325912500Y-241950000D03*
X325912500Y-243450000D03*
%TD*%
%TO.C,RGB_LED45*%
X378987500Y-224400000D03*
X378987500Y-222900000D03*
X373537500Y-222900000D03*
X373537500Y-224400000D03*
%TD*%
%TO.C,RGB_LED14*%
X307550000Y-186300000D03*
X307550000Y-184800000D03*
X302100000Y-184800000D03*
X302100000Y-186300000D03*
%TD*%
%TO.C,RGB_LED21*%
X183725000Y-205350000D03*
X183725000Y-203850000D03*
X178275000Y-203850000D03*
X178275000Y-205350000D03*
%TD*%
%TO.C,RGB_LED20*%
X159875000Y-205457500D03*
X159875000Y-203957500D03*
X154425000Y-203957500D03*
X154425000Y-205457500D03*
%TD*%
%TO.C,RGB_LED11*%
X250400000Y-186300000D03*
X250400000Y-184800000D03*
X244950000Y-184800000D03*
X244950000Y-186300000D03*
%TD*%
%TO.C,RGB_LED33*%
X417025000Y-205357500D03*
X417025000Y-203857500D03*
X411575000Y-203857500D03*
X411575000Y-205357500D03*
%TD*%
%TO.C,RGB_LED54*%
X312312500Y-243450000D03*
X312312500Y-241950000D03*
X306862500Y-241950000D03*
X306862500Y-243450000D03*
%TD*%
%TO.C,RGB_LED17*%
X364725000Y-186357500D03*
X364725000Y-184857500D03*
X359275000Y-184857500D03*
X359275000Y-186357500D03*
%TD*%
%TO.C,RGB_LED66*%
X421850000Y-262500000D03*
X421850000Y-261000000D03*
X416400000Y-261000000D03*
X416400000Y-262500000D03*
%TD*%
%TO.C,RGB_LED57*%
X369462500Y-243450000D03*
X369462500Y-241950000D03*
X364012500Y-241950000D03*
X364012500Y-243450000D03*
%TD*%
%TO.C,RGB_LED46*%
X410025000Y-224357500D03*
X410025000Y-222857500D03*
X404575000Y-222857500D03*
X404575000Y-224357500D03*
%TD*%
%TO.C,RGB_LED29*%
X336125000Y-205350000D03*
X336125000Y-203850000D03*
X330675000Y-203850000D03*
X330675000Y-205350000D03*
%TD*%
%TO.C,RGB_LED30*%
X355175000Y-205350000D03*
X355175000Y-203850000D03*
X349725000Y-203850000D03*
X349725000Y-205350000D03*
%TD*%
%TO.C,RGB_LED37*%
X226587500Y-224400000D03*
X226587500Y-222900000D03*
X221137500Y-222900000D03*
X221137500Y-224400000D03*
%TD*%
%TO.C,RGB_LED13*%
X288500000Y-186300000D03*
X288500000Y-184800000D03*
X283050000Y-184800000D03*
X283050000Y-186300000D03*
%TD*%
%TO.C,RGB_LED41*%
X302787500Y-224400000D03*
X302787500Y-222900000D03*
X297337500Y-222900000D03*
X297337500Y-224400000D03*
%TD*%
%TO.C,RGB_LED9*%
X212300000Y-186300000D03*
X212300000Y-184800000D03*
X206850000Y-184800000D03*
X206850000Y-186300000D03*
%TD*%
%TO.C,RGB_LED64*%
X383750000Y-262500000D03*
X383750000Y-261000000D03*
X378300000Y-261000000D03*
X378300000Y-262500000D03*
%TD*%
%TO.C,RGB_LED35*%
X188487500Y-224400000D03*
X188487500Y-222900000D03*
X183037500Y-222900000D03*
X183037500Y-224400000D03*
%TD*%
%TO.C,RGB_LED42*%
X321837500Y-224400000D03*
X321837500Y-222900000D03*
X316387500Y-222900000D03*
X316387500Y-224400000D03*
%TD*%
%TO.C,RGB_LED43*%
X340887500Y-224400000D03*
X340887500Y-222900000D03*
X335437500Y-222900000D03*
X335437500Y-224400000D03*
%TD*%
%TO.C,RGB_LED8*%
X193250000Y-186300000D03*
X193250000Y-184800000D03*
X187800000Y-184800000D03*
X187800000Y-186300000D03*
%TD*%
%TO.C,RGB_LED61*%
X193225000Y-262457500D03*
X193225000Y-260957500D03*
X187775000Y-260957500D03*
X187775000Y-262457500D03*
%TD*%
%TO.C,RGB_LED6*%
X155150128Y-186357500D03*
X155150128Y-184857500D03*
X149700128Y-184857500D03*
X149700128Y-186357500D03*
%TD*%
%TO.C,RGB_LED48*%
X198012500Y-243450000D03*
X198012500Y-241950000D03*
X192562500Y-241950000D03*
X192562500Y-243450000D03*
%TD*%
%TO.C,RGB_LED36*%
X207537500Y-224400000D03*
X207537500Y-222900000D03*
X202087500Y-222900000D03*
X202087500Y-224400000D03*
%TD*%
%TO.C,RGB_LED26*%
X278975000Y-205350000D03*
X278975000Y-203850000D03*
X273525000Y-203850000D03*
X273525000Y-205350000D03*
%TD*%
%TO.C,RGB_LED23*%
X221825000Y-205350000D03*
X221825000Y-203850000D03*
X216375000Y-203850000D03*
X216375000Y-205350000D03*
%TD*%
D31*
%TO.C,MX1*%
X219075000Y-250507500D03*
D12*
X219075000Y-265747500D03*
D31*
X333375000Y-250507500D03*
D12*
X333375000Y-265747500D03*
%TD*%
M02*
