%TF.GenerationSoftware,KiCad,Pcbnew,10.0.5*%
%TF.CreationDate,2026-08-28T17:45:02-07:00*%
%TF.ProjectId,Custom Keyboard,43757374-6f6d-4204-9b65-79626f617264,rev?*%
%TF.SameCoordinates,Original*%
%TF.FileFunction,Other,User*%
%FSLAX46Y46*%
G04 Gerber Fmt 4.6, Leading zero omitted, Abs format (unit mm)*
G04 Created by KiCad (PCBNEW 10.0.5) date 2026-08-28 17:45:02*
%MOMM*%
%LPD*%
G01*
G04 APERTURE LIST*
%ADD10C,0.150000*%
%ADD11C,0.127000*%
%ADD12C,0.120000*%
%ADD13C,0.050000*%
G04 APERTURE END LIST*
%TO.C,SW49*%
D10*
X205938500Y-234615000D02*
X205938500Y-237155000D01*
X205938500Y-237155000D02*
X208478500Y-237155000D01*
D11*
X207820500Y-233925000D02*
X207820500Y-237825000D01*
X207820500Y-237825000D02*
X211920500Y-237825000D01*
D10*
X208478500Y-234615000D02*
X205938500Y-234615000D01*
X208478500Y-237155000D02*
X208478500Y-234615000D01*
D11*
X213920500Y-235825000D02*
X219620500Y-235825000D01*
D10*
X218892500Y-232075000D02*
X221432500Y-232075000D01*
X218892500Y-234615000D02*
X218892500Y-232075000D01*
D11*
X219620500Y-231425000D02*
X210320500Y-231425000D01*
X219620500Y-231425000D02*
X219620500Y-235825000D01*
D10*
X221432500Y-232075000D02*
X221432500Y-234615000D01*
X221432500Y-234615000D02*
X218892500Y-234615000D01*
D11*
X207820500Y-233925000D02*
G75*
G02*
X210320500Y-231425000I2500000J0D01*
G01*
X211920500Y-237825000D02*
G75*
G02*
X213920500Y-235825000I1999999J1D01*
G01*
D10*
X212034500Y-235885000D02*
G75*
G02*
X208986500Y-235885000I-1524000J0D01*
G01*
X208986500Y-235885000D02*
G75*
G02*
X212034500Y-235885000I1524000J0D01*
G01*
X218384500Y-233345000D02*
G75*
G02*
X215336500Y-233345000I-1524000J0D01*
G01*
X215336500Y-233345000D02*
G75*
G02*
X218384500Y-233345000I1524000J0D01*
G01*
%TO.C,SW65*%
X391676000Y-253665000D02*
X391676000Y-256205000D01*
X391676000Y-256205000D02*
X394216000Y-256205000D01*
D11*
X393558000Y-252975000D02*
X393558000Y-256875000D01*
X393558000Y-256875000D02*
X397658000Y-256875000D01*
D10*
X394216000Y-253665000D02*
X391676000Y-253665000D01*
X394216000Y-256205000D02*
X394216000Y-253665000D01*
D11*
X399658000Y-254875000D02*
X405358000Y-254875000D01*
D10*
X404630000Y-251125000D02*
X407170000Y-251125000D01*
X404630000Y-253665000D02*
X404630000Y-251125000D01*
D11*
X405358000Y-250475000D02*
X396058000Y-250475000D01*
X405358000Y-250475000D02*
X405358000Y-254875000D01*
D10*
X407170000Y-251125000D02*
X407170000Y-253665000D01*
X407170000Y-253665000D02*
X404630000Y-253665000D01*
D11*
X393558000Y-252975000D02*
G75*
G02*
X396058000Y-250475000I2500000J0D01*
G01*
X397658000Y-256875000D02*
G75*
G02*
X399658000Y-254875000I1999999J1D01*
G01*
D10*
X397772000Y-254935000D02*
G75*
G02*
X394724000Y-254935000I-1524000J0D01*
G01*
X394724000Y-254935000D02*
G75*
G02*
X397772000Y-254935000I1524000J0D01*
G01*
X404122000Y-252395000D02*
G75*
G02*
X401074000Y-252395000I-1524000J0D01*
G01*
X401074000Y-252395000D02*
G75*
G02*
X404122000Y-252395000I1524000J0D01*
G01*
%TO.C,SW18*%
X372626000Y-177465000D02*
X372626000Y-180005000D01*
X372626000Y-180005000D02*
X375166000Y-180005000D01*
D11*
X374508000Y-176775000D02*
X374508000Y-180675000D01*
X374508000Y-180675000D02*
X378608000Y-180675000D01*
D10*
X375166000Y-177465000D02*
X372626000Y-177465000D01*
X375166000Y-180005000D02*
X375166000Y-177465000D01*
D11*
X380608000Y-178675000D02*
X386308000Y-178675000D01*
D10*
X385580000Y-174925000D02*
X388120000Y-174925000D01*
X385580000Y-177465000D02*
X385580000Y-174925000D01*
D11*
X386308000Y-174275000D02*
X377008000Y-174275000D01*
X386308000Y-174275000D02*
X386308000Y-178675000D01*
D10*
X388120000Y-174925000D02*
X388120000Y-177465000D01*
X388120000Y-177465000D02*
X385580000Y-177465000D01*
D11*
X374508000Y-176775000D02*
G75*
G02*
X377008000Y-174275000I2500000J0D01*
G01*
X378608000Y-180675000D02*
G75*
G02*
X380608000Y-178675000I1999999J1D01*
G01*
D10*
X378722000Y-178735000D02*
G75*
G02*
X375674000Y-178735000I-1524000J0D01*
G01*
X375674000Y-178735000D02*
G75*
G02*
X378722000Y-178735000I1524000J0D01*
G01*
X385072000Y-176195000D02*
G75*
G02*
X382024000Y-176195000I-1524000J0D01*
G01*
X382024000Y-176195000D02*
G75*
G02*
X385072000Y-176195000I1524000J0D01*
G01*
%TO.C,SW22*%
X191651000Y-196515000D02*
X191651000Y-199055000D01*
X191651000Y-199055000D02*
X194191000Y-199055000D01*
D11*
X193533000Y-195825000D02*
X193533000Y-199725000D01*
X193533000Y-199725000D02*
X197633000Y-199725000D01*
D10*
X194191000Y-196515000D02*
X191651000Y-196515000D01*
X194191000Y-199055000D02*
X194191000Y-196515000D01*
D11*
X199633000Y-197725000D02*
X205333000Y-197725000D01*
D10*
X204605000Y-193975000D02*
X207145000Y-193975000D01*
X204605000Y-196515000D02*
X204605000Y-193975000D01*
D11*
X205333000Y-193325000D02*
X196033000Y-193325000D01*
X205333000Y-193325000D02*
X205333000Y-197725000D01*
D10*
X207145000Y-193975000D02*
X207145000Y-196515000D01*
X207145000Y-196515000D02*
X204605000Y-196515000D01*
D11*
X193533000Y-195825000D02*
G75*
G02*
X196033000Y-193325000I2500000J0D01*
G01*
X197633000Y-199725000D02*
G75*
G02*
X199633000Y-197725000I1999999J1D01*
G01*
D10*
X197747000Y-197785000D02*
G75*
G02*
X194699000Y-197785000I-1524000J0D01*
G01*
X194699000Y-197785000D02*
G75*
G02*
X197747000Y-197785000I1524000J0D01*
G01*
X204097000Y-195245000D02*
G75*
G02*
X201049000Y-195245000I-1524000J0D01*
G01*
X201049000Y-195245000D02*
G75*
G02*
X204097000Y-195245000I1524000J0D01*
G01*
%TO.C,SW48*%
X186888500Y-234615000D02*
X186888500Y-237155000D01*
X186888500Y-237155000D02*
X189428500Y-237155000D01*
D11*
X188770500Y-233925000D02*
X188770500Y-237825000D01*
X188770500Y-237825000D02*
X192870500Y-237825000D01*
D10*
X189428500Y-234615000D02*
X186888500Y-234615000D01*
X189428500Y-237155000D02*
X189428500Y-234615000D01*
D11*
X194870500Y-235825000D02*
X200570500Y-235825000D01*
D10*
X199842500Y-232075000D02*
X202382500Y-232075000D01*
X199842500Y-234615000D02*
X199842500Y-232075000D01*
D11*
X200570500Y-231425000D02*
X191270500Y-231425000D01*
X200570500Y-231425000D02*
X200570500Y-235825000D01*
D10*
X202382500Y-232075000D02*
X202382500Y-234615000D01*
X202382500Y-234615000D02*
X199842500Y-234615000D01*
D11*
X188770500Y-233925000D02*
G75*
G02*
X191270500Y-231425000I2500000J0D01*
G01*
X192870500Y-237825000D02*
G75*
G02*
X194870500Y-235825000I1999999J1D01*
G01*
D10*
X192984500Y-235885000D02*
G75*
G02*
X189936500Y-235885000I-1524000J0D01*
G01*
X189936500Y-235885000D02*
G75*
G02*
X192984500Y-235885000I1524000J0D01*
G01*
X199334500Y-233345000D02*
G75*
G02*
X196286500Y-233345000I-1524000J0D01*
G01*
X196286500Y-233345000D02*
G75*
G02*
X199334500Y-233345000I1524000J0D01*
G01*
%TO.C,SW2*%
X182126000Y-148572500D02*
X182126000Y-151112500D01*
X182126000Y-151112500D02*
X184666000Y-151112500D01*
D11*
X184008000Y-147882500D02*
X184008000Y-151782500D01*
X184008000Y-151782500D02*
X188108000Y-151782500D01*
D10*
X184666000Y-148572500D02*
X182126000Y-148572500D01*
X184666000Y-151112500D02*
X184666000Y-148572500D01*
D11*
X190108000Y-149782500D02*
X195808000Y-149782500D01*
D10*
X195080000Y-146032500D02*
X197620000Y-146032500D01*
X195080000Y-148572500D02*
X195080000Y-146032500D01*
D11*
X195808000Y-145382500D02*
X186508000Y-145382500D01*
X195808000Y-145382500D02*
X195808000Y-149782500D01*
D10*
X197620000Y-146032500D02*
X197620000Y-148572500D01*
X197620000Y-148572500D02*
X195080000Y-148572500D01*
D11*
X184008000Y-147882500D02*
G75*
G02*
X186508000Y-145382500I2500000J0D01*
G01*
X188108000Y-151782500D02*
G75*
G02*
X190108000Y-149782500I1999999J1D01*
G01*
D10*
X188222000Y-149842500D02*
G75*
G02*
X185174000Y-149842500I-1524000J0D01*
G01*
X185174000Y-149842500D02*
G75*
G02*
X188222000Y-149842500I1524000J0D01*
G01*
X194572000Y-147302500D02*
G75*
G02*
X191524000Y-147302500I-1524000J0D01*
G01*
X191524000Y-147302500D02*
G75*
G02*
X194572000Y-147302500I1524000J0D01*
G01*
%TO.C,SW38*%
X234513500Y-215565000D02*
X234513500Y-218105000D01*
X234513500Y-218105000D02*
X237053500Y-218105000D01*
D11*
X236395500Y-214875000D02*
X236395500Y-218775000D01*
X236395500Y-218775000D02*
X240495500Y-218775000D01*
D10*
X237053500Y-215565000D02*
X234513500Y-215565000D01*
X237053500Y-218105000D02*
X237053500Y-215565000D01*
D11*
X242495500Y-216775000D02*
X248195500Y-216775000D01*
D10*
X247467500Y-213025000D02*
X250007500Y-213025000D01*
X247467500Y-215565000D02*
X247467500Y-213025000D01*
D11*
X248195500Y-212375000D02*
X238895500Y-212375000D01*
X248195500Y-212375000D02*
X248195500Y-216775000D01*
D10*
X250007500Y-213025000D02*
X250007500Y-215565000D01*
X250007500Y-215565000D02*
X247467500Y-215565000D01*
D11*
X236395500Y-214875000D02*
G75*
G02*
X238895500Y-212375000I2500000J0D01*
G01*
X240495500Y-218775000D02*
G75*
G02*
X242495500Y-216775000I1999999J1D01*
G01*
D10*
X240609500Y-216835000D02*
G75*
G02*
X237561500Y-216835000I-1524000J0D01*
G01*
X237561500Y-216835000D02*
G75*
G02*
X240609500Y-216835000I1524000J0D01*
G01*
X246959500Y-214295000D02*
G75*
G02*
X243911500Y-214295000I-1524000J0D01*
G01*
X243911500Y-214295000D02*
G75*
G02*
X246959500Y-214295000I1524000J0D01*
G01*
%TO.C,SW55*%
X320238500Y-234615000D02*
X320238500Y-237155000D01*
X320238500Y-237155000D02*
X322778500Y-237155000D01*
D11*
X322120500Y-233925000D02*
X322120500Y-237825000D01*
X322120500Y-237825000D02*
X326220500Y-237825000D01*
D10*
X322778500Y-234615000D02*
X320238500Y-234615000D01*
X322778500Y-237155000D02*
X322778500Y-234615000D01*
D11*
X328220500Y-235825000D02*
X333920500Y-235825000D01*
D10*
X333192500Y-232075000D02*
X335732500Y-232075000D01*
X333192500Y-234615000D02*
X333192500Y-232075000D01*
D11*
X333920500Y-231425000D02*
X324620500Y-231425000D01*
X333920500Y-231425000D02*
X333920500Y-235825000D01*
D10*
X335732500Y-232075000D02*
X335732500Y-234615000D01*
X335732500Y-234615000D02*
X333192500Y-234615000D01*
D11*
X322120500Y-233925000D02*
G75*
G02*
X324620500Y-231425000I2500000J0D01*
G01*
X326220500Y-237825000D02*
G75*
G02*
X328220500Y-235825000I1999999J1D01*
G01*
D10*
X326334500Y-235885000D02*
G75*
G02*
X323286500Y-235885000I-1524000J0D01*
G01*
X323286500Y-235885000D02*
G75*
G02*
X326334500Y-235885000I1524000J0D01*
G01*
X332684500Y-233345000D02*
G75*
G02*
X329636500Y-233345000I-1524000J0D01*
G01*
X329636500Y-233345000D02*
G75*
G02*
X332684500Y-233345000I1524000J0D01*
G01*
%TO.C,SW28*%
X305951000Y-196515000D02*
X305951000Y-199055000D01*
X305951000Y-199055000D02*
X308491000Y-199055000D01*
D11*
X307833000Y-195825000D02*
X307833000Y-199725000D01*
X307833000Y-199725000D02*
X311933000Y-199725000D01*
D10*
X308491000Y-196515000D02*
X305951000Y-196515000D01*
X308491000Y-199055000D02*
X308491000Y-196515000D01*
D11*
X313933000Y-197725000D02*
X319633000Y-197725000D01*
D10*
X318905000Y-193975000D02*
X321445000Y-193975000D01*
X318905000Y-196515000D02*
X318905000Y-193975000D01*
D11*
X319633000Y-193325000D02*
X310333000Y-193325000D01*
X319633000Y-193325000D02*
X319633000Y-197725000D01*
D10*
X321445000Y-193975000D02*
X321445000Y-196515000D01*
X321445000Y-196515000D02*
X318905000Y-196515000D01*
D11*
X307833000Y-195825000D02*
G75*
G02*
X310333000Y-193325000I2500000J0D01*
G01*
X311933000Y-199725000D02*
G75*
G02*
X313933000Y-197725000I1999999J1D01*
G01*
D10*
X312047000Y-197785000D02*
G75*
G02*
X308999000Y-197785000I-1524000J0D01*
G01*
X308999000Y-197785000D02*
G75*
G02*
X312047000Y-197785000I1524000J0D01*
G01*
X318397000Y-195245000D02*
G75*
G02*
X315349000Y-195245000I-1524000J0D01*
G01*
X315349000Y-195245000D02*
G75*
G02*
X318397000Y-195245000I1524000J0D01*
G01*
%TO.C,SW63*%
X353576000Y-253665000D02*
X353576000Y-256205000D01*
X353576000Y-256205000D02*
X356116000Y-256205000D01*
D11*
X355458000Y-252975000D02*
X355458000Y-256875000D01*
X355458000Y-256875000D02*
X359558000Y-256875000D01*
D10*
X356116000Y-253665000D02*
X353576000Y-253665000D01*
X356116000Y-256205000D02*
X356116000Y-253665000D01*
D11*
X361558000Y-254875000D02*
X367258000Y-254875000D01*
D10*
X366530000Y-251125000D02*
X369070000Y-251125000D01*
X366530000Y-253665000D02*
X366530000Y-251125000D01*
D11*
X367258000Y-250475000D02*
X357958000Y-250475000D01*
X367258000Y-250475000D02*
X367258000Y-254875000D01*
D10*
X369070000Y-251125000D02*
X369070000Y-253665000D01*
X369070000Y-253665000D02*
X366530000Y-253665000D01*
D11*
X355458000Y-252975000D02*
G75*
G02*
X357958000Y-250475000I2500000J0D01*
G01*
X359558000Y-256875000D02*
G75*
G02*
X361558000Y-254875000I1999999J1D01*
G01*
D10*
X359672000Y-254935000D02*
G75*
G02*
X356624000Y-254935000I-1524000J0D01*
G01*
X356624000Y-254935000D02*
G75*
G02*
X359672000Y-254935000I1524000J0D01*
G01*
X366022000Y-252395000D02*
G75*
G02*
X362974000Y-252395000I-1524000J0D01*
G01*
X362974000Y-252395000D02*
G75*
G02*
X366022000Y-252395000I1524000J0D01*
G01*
%TO.C,SW12*%
X258326000Y-177465000D02*
X258326000Y-180005000D01*
X258326000Y-180005000D02*
X260866000Y-180005000D01*
D11*
X260208000Y-176775000D02*
X260208000Y-180675000D01*
X260208000Y-180675000D02*
X264308000Y-180675000D01*
D10*
X260866000Y-177465000D02*
X258326000Y-177465000D01*
X260866000Y-180005000D02*
X260866000Y-177465000D01*
D11*
X266308000Y-178675000D02*
X272008000Y-178675000D01*
D10*
X271280000Y-174925000D02*
X273820000Y-174925000D01*
X271280000Y-177465000D02*
X271280000Y-174925000D01*
D11*
X272008000Y-174275000D02*
X262708000Y-174275000D01*
X272008000Y-174275000D02*
X272008000Y-178675000D01*
D10*
X273820000Y-174925000D02*
X273820000Y-177465000D01*
X273820000Y-177465000D02*
X271280000Y-177465000D01*
D11*
X260208000Y-176775000D02*
G75*
G02*
X262708000Y-174275000I2500000J0D01*
G01*
X264308000Y-180675000D02*
G75*
G02*
X266308000Y-178675000I1999999J1D01*
G01*
D10*
X264422000Y-178735000D02*
G75*
G02*
X261374000Y-178735000I-1524000J0D01*
G01*
X261374000Y-178735000D02*
G75*
G02*
X264422000Y-178735000I1524000J0D01*
G01*
X270772000Y-176195000D02*
G75*
G02*
X267724000Y-176195000I-1524000J0D01*
G01*
X267724000Y-176195000D02*
G75*
G02*
X270772000Y-176195000I1524000J0D01*
G01*
%TO.C,SW39*%
X253563500Y-215565000D02*
X253563500Y-218105000D01*
X253563500Y-218105000D02*
X256103500Y-218105000D01*
D11*
X255445500Y-214875000D02*
X255445500Y-218775000D01*
X255445500Y-218775000D02*
X259545500Y-218775000D01*
D10*
X256103500Y-215565000D02*
X253563500Y-215565000D01*
X256103500Y-218105000D02*
X256103500Y-215565000D01*
D11*
X261545500Y-216775000D02*
X267245500Y-216775000D01*
D10*
X266517500Y-213025000D02*
X269057500Y-213025000D01*
X266517500Y-215565000D02*
X266517500Y-213025000D01*
D11*
X267245500Y-212375000D02*
X257945500Y-212375000D01*
X267245500Y-212375000D02*
X267245500Y-216775000D01*
D10*
X269057500Y-213025000D02*
X269057500Y-215565000D01*
X269057500Y-215565000D02*
X266517500Y-215565000D01*
D11*
X255445500Y-214875000D02*
G75*
G02*
X257945500Y-212375000I2500000J0D01*
G01*
X259545500Y-218775000D02*
G75*
G02*
X261545500Y-216775000I1999999J1D01*
G01*
D10*
X259659500Y-216835000D02*
G75*
G02*
X256611500Y-216835000I-1524000J0D01*
G01*
X256611500Y-216835000D02*
G75*
G02*
X259659500Y-216835000I1524000J0D01*
G01*
X266009500Y-214295000D02*
G75*
G02*
X262961500Y-214295000I-1524000J0D01*
G01*
X262961500Y-214295000D02*
G75*
G02*
X266009500Y-214295000I1524000J0D01*
G01*
%TO.C,SW36*%
X196413500Y-215565000D02*
X196413500Y-218105000D01*
X196413500Y-218105000D02*
X198953500Y-218105000D01*
D11*
X198295500Y-214875000D02*
X198295500Y-218775000D01*
X198295500Y-218775000D02*
X202395500Y-218775000D01*
D10*
X198953500Y-215565000D02*
X196413500Y-215565000D01*
X198953500Y-218105000D02*
X198953500Y-215565000D01*
D11*
X204395500Y-216775000D02*
X210095500Y-216775000D01*
D10*
X209367500Y-213025000D02*
X211907500Y-213025000D01*
X209367500Y-215565000D02*
X209367500Y-213025000D01*
D11*
X210095500Y-212375000D02*
X200795500Y-212375000D01*
X210095500Y-212375000D02*
X210095500Y-216775000D01*
D10*
X211907500Y-213025000D02*
X211907500Y-215565000D01*
X211907500Y-215565000D02*
X209367500Y-215565000D01*
D11*
X198295500Y-214875000D02*
G75*
G02*
X200795500Y-212375000I2500000J0D01*
G01*
X202395500Y-218775000D02*
G75*
G02*
X204395500Y-216775000I1999999J1D01*
G01*
D10*
X202509500Y-216835000D02*
G75*
G02*
X199461500Y-216835000I-1524000J0D01*
G01*
X199461500Y-216835000D02*
G75*
G02*
X202509500Y-216835000I1524000J0D01*
G01*
X208859500Y-214295000D02*
G75*
G02*
X205811500Y-214295000I-1524000J0D01*
G01*
X205811500Y-214295000D02*
G75*
G02*
X208859500Y-214295000I1524000J0D01*
G01*
%TO.C,SW53*%
X282138500Y-234615000D02*
X282138500Y-237155000D01*
X282138500Y-237155000D02*
X284678500Y-237155000D01*
D11*
X284020500Y-233925000D02*
X284020500Y-237825000D01*
X284020500Y-237825000D02*
X288120500Y-237825000D01*
D10*
X284678500Y-234615000D02*
X282138500Y-234615000D01*
X284678500Y-237155000D02*
X284678500Y-234615000D01*
D11*
X290120500Y-235825000D02*
X295820500Y-235825000D01*
D10*
X295092500Y-232075000D02*
X297632500Y-232075000D01*
X295092500Y-234615000D02*
X295092500Y-232075000D01*
D11*
X295820500Y-231425000D02*
X286520500Y-231425000D01*
X295820500Y-231425000D02*
X295820500Y-235825000D01*
D10*
X297632500Y-232075000D02*
X297632500Y-234615000D01*
X297632500Y-234615000D02*
X295092500Y-234615000D01*
D11*
X284020500Y-233925000D02*
G75*
G02*
X286520500Y-231425000I2500000J0D01*
G01*
X288120500Y-237825000D02*
G75*
G02*
X290120500Y-235825000I1999999J1D01*
G01*
D10*
X288234500Y-235885000D02*
G75*
G02*
X285186500Y-235885000I-1524000J0D01*
G01*
X285186500Y-235885000D02*
G75*
G02*
X288234500Y-235885000I1524000J0D01*
G01*
X294584500Y-233345000D02*
G75*
G02*
X291536500Y-233345000I-1524000J0D01*
G01*
X291536500Y-233345000D02*
G75*
G02*
X294584500Y-233345000I1524000J0D01*
G01*
%TO.C,SW60*%
X163076000Y-253665000D02*
X163076000Y-256205000D01*
X163076000Y-256205000D02*
X165616000Y-256205000D01*
D11*
X164958000Y-252975000D02*
X164958000Y-256875000D01*
X164958000Y-256875000D02*
X169058000Y-256875000D01*
D10*
X165616000Y-253665000D02*
X163076000Y-253665000D01*
X165616000Y-256205000D02*
X165616000Y-253665000D01*
D11*
X171058000Y-254875000D02*
X176758000Y-254875000D01*
D10*
X176030000Y-251125000D02*
X178570000Y-251125000D01*
X176030000Y-253665000D02*
X176030000Y-251125000D01*
D11*
X176758000Y-250475000D02*
X167458000Y-250475000D01*
X176758000Y-250475000D02*
X176758000Y-254875000D01*
D10*
X178570000Y-251125000D02*
X178570000Y-253665000D01*
X178570000Y-253665000D02*
X176030000Y-253665000D01*
D11*
X164958000Y-252975000D02*
G75*
G02*
X167458000Y-250475000I2500000J0D01*
G01*
X169058000Y-256875000D02*
G75*
G02*
X171058000Y-254875000I1999999J1D01*
G01*
D10*
X169172000Y-254935000D02*
G75*
G02*
X166124000Y-254935000I-1524000J0D01*
G01*
X166124000Y-254935000D02*
G75*
G02*
X169172000Y-254935000I1524000J0D01*
G01*
X175522000Y-252395000D02*
G75*
G02*
X172474000Y-252395000I-1524000J0D01*
G01*
X172474000Y-252395000D02*
G75*
G02*
X175522000Y-252395000I1524000J0D01*
G01*
%TO.C,SW26*%
X267851000Y-196515000D02*
X267851000Y-199055000D01*
X267851000Y-199055000D02*
X270391000Y-199055000D01*
D11*
X269733000Y-195825000D02*
X269733000Y-199725000D01*
X269733000Y-199725000D02*
X273833000Y-199725000D01*
D10*
X270391000Y-196515000D02*
X267851000Y-196515000D01*
X270391000Y-199055000D02*
X270391000Y-196515000D01*
D11*
X275833000Y-197725000D02*
X281533000Y-197725000D01*
D10*
X280805000Y-193975000D02*
X283345000Y-193975000D01*
X280805000Y-196515000D02*
X280805000Y-193975000D01*
D11*
X281533000Y-193325000D02*
X272233000Y-193325000D01*
X281533000Y-193325000D02*
X281533000Y-197725000D01*
D10*
X283345000Y-193975000D02*
X283345000Y-196515000D01*
X283345000Y-196515000D02*
X280805000Y-196515000D01*
D11*
X269733000Y-195825000D02*
G75*
G02*
X272233000Y-193325000I2500000J0D01*
G01*
X273833000Y-199725000D02*
G75*
G02*
X275833000Y-197725000I1999999J1D01*
G01*
D10*
X273947000Y-197785000D02*
G75*
G02*
X270899000Y-197785000I-1524000J0D01*
G01*
X270899000Y-197785000D02*
G75*
G02*
X273947000Y-197785000I1524000J0D01*
G01*
X280297000Y-195245000D02*
G75*
G02*
X277249000Y-195245000I-1524000J0D01*
G01*
X277249000Y-195245000D02*
G75*
G02*
X280297000Y-195245000I1524000J0D01*
G01*
%TO.C,SW32*%
X382151000Y-196515000D02*
X382151000Y-199055000D01*
X382151000Y-199055000D02*
X384691000Y-199055000D01*
D11*
X384033000Y-195825000D02*
X384033000Y-199725000D01*
X384033000Y-199725000D02*
X388133000Y-199725000D01*
D10*
X384691000Y-196515000D02*
X382151000Y-196515000D01*
X384691000Y-199055000D02*
X384691000Y-196515000D01*
D11*
X390133000Y-197725000D02*
X395833000Y-197725000D01*
D10*
X395105000Y-193975000D02*
X397645000Y-193975000D01*
X395105000Y-196515000D02*
X395105000Y-193975000D01*
D11*
X395833000Y-193325000D02*
X386533000Y-193325000D01*
X395833000Y-193325000D02*
X395833000Y-197725000D01*
D10*
X397645000Y-193975000D02*
X397645000Y-196515000D01*
X397645000Y-196515000D02*
X395105000Y-196515000D01*
D11*
X384033000Y-195825000D02*
G75*
G02*
X386533000Y-193325000I2500000J0D01*
G01*
X388133000Y-199725000D02*
G75*
G02*
X390133000Y-197725000I1999999J1D01*
G01*
D10*
X388247000Y-197785000D02*
G75*
G02*
X385199000Y-197785000I-1524000J0D01*
G01*
X385199000Y-197785000D02*
G75*
G02*
X388247000Y-197785000I1524000J0D01*
G01*
X394597000Y-195245000D02*
G75*
G02*
X391549000Y-195245000I-1524000J0D01*
G01*
X391549000Y-195245000D02*
G75*
G02*
X394597000Y-195245000I1524000J0D01*
G01*
%TO.C,SW35*%
X177363500Y-215565000D02*
X177363500Y-218105000D01*
X177363500Y-218105000D02*
X179903500Y-218105000D01*
D11*
X179245500Y-214875000D02*
X179245500Y-218775000D01*
X179245500Y-218775000D02*
X183345500Y-218775000D01*
D10*
X179903500Y-215565000D02*
X177363500Y-215565000D01*
X179903500Y-218105000D02*
X179903500Y-215565000D01*
D11*
X185345500Y-216775000D02*
X191045500Y-216775000D01*
D10*
X190317500Y-213025000D02*
X192857500Y-213025000D01*
X190317500Y-215565000D02*
X190317500Y-213025000D01*
D11*
X191045500Y-212375000D02*
X181745500Y-212375000D01*
X191045500Y-212375000D02*
X191045500Y-216775000D01*
D10*
X192857500Y-213025000D02*
X192857500Y-215565000D01*
X192857500Y-215565000D02*
X190317500Y-215565000D01*
D11*
X179245500Y-214875000D02*
G75*
G02*
X181745500Y-212375000I2500000J0D01*
G01*
X183345500Y-218775000D02*
G75*
G02*
X185345500Y-216775000I1999999J1D01*
G01*
D10*
X183459500Y-216835000D02*
G75*
G02*
X180411500Y-216835000I-1524000J0D01*
G01*
X180411500Y-216835000D02*
G75*
G02*
X183459500Y-216835000I1524000J0D01*
G01*
X189809500Y-214295000D02*
G75*
G02*
X186761500Y-214295000I-1524000J0D01*
G01*
X186761500Y-214295000D02*
G75*
G02*
X189809500Y-214295000I1524000J0D01*
G01*
%TO.C,SW66*%
X410726000Y-253665000D02*
X410726000Y-256205000D01*
X410726000Y-256205000D02*
X413266000Y-256205000D01*
D11*
X412608000Y-252975000D02*
X412608000Y-256875000D01*
X412608000Y-256875000D02*
X416708000Y-256875000D01*
D10*
X413266000Y-253665000D02*
X410726000Y-253665000D01*
X413266000Y-256205000D02*
X413266000Y-253665000D01*
D11*
X418708000Y-254875000D02*
X424408000Y-254875000D01*
D10*
X423680000Y-251125000D02*
X426220000Y-251125000D01*
X423680000Y-253665000D02*
X423680000Y-251125000D01*
D11*
X424408000Y-250475000D02*
X415108000Y-250475000D01*
X424408000Y-250475000D02*
X424408000Y-254875000D01*
D10*
X426220000Y-251125000D02*
X426220000Y-253665000D01*
X426220000Y-253665000D02*
X423680000Y-253665000D01*
D11*
X412608000Y-252975000D02*
G75*
G02*
X415108000Y-250475000I2500000J0D01*
G01*
X416708000Y-256875000D02*
G75*
G02*
X418708000Y-254875000I1999999J1D01*
G01*
D10*
X416822000Y-254935000D02*
G75*
G02*
X413774000Y-254935000I-1524000J0D01*
G01*
X413774000Y-254935000D02*
G75*
G02*
X416822000Y-254935000I1524000J0D01*
G01*
X423172000Y-252395000D02*
G75*
G02*
X420124000Y-252395000I-1524000J0D01*
G01*
X420124000Y-252395000D02*
G75*
G02*
X423172000Y-252395000I1524000J0D01*
G01*
%TO.C,SW62*%
X267851000Y-253665000D02*
X267851000Y-256205000D01*
X267851000Y-256205000D02*
X270391000Y-256205000D01*
D11*
X269733000Y-252975000D02*
X269733000Y-256875000D01*
X269733000Y-256875000D02*
X273833000Y-256875000D01*
D10*
X270391000Y-253665000D02*
X267851000Y-253665000D01*
X270391000Y-256205000D02*
X270391000Y-253665000D01*
D11*
X275833000Y-254875000D02*
X281533000Y-254875000D01*
D10*
X280805000Y-251125000D02*
X283345000Y-251125000D01*
X280805000Y-253665000D02*
X280805000Y-251125000D01*
D11*
X281533000Y-250475000D02*
X272233000Y-250475000D01*
X281533000Y-250475000D02*
X281533000Y-254875000D01*
D10*
X283345000Y-251125000D02*
X283345000Y-253665000D01*
X283345000Y-253665000D02*
X280805000Y-253665000D01*
D11*
X269733000Y-252975000D02*
G75*
G02*
X272233000Y-250475000I2500000J0D01*
G01*
X273833000Y-256875000D02*
G75*
G02*
X275833000Y-254875000I1999999J1D01*
G01*
D10*
X273947000Y-254935000D02*
G75*
G02*
X270899000Y-254935000I-1524000J0D01*
G01*
X270899000Y-254935000D02*
G75*
G02*
X273947000Y-254935000I1524000J0D01*
G01*
X280297000Y-252395000D02*
G75*
G02*
X277249000Y-252395000I-1524000J0D01*
G01*
X277249000Y-252395000D02*
G75*
G02*
X280297000Y-252395000I1524000J0D01*
G01*
%TO.C,SW20*%
X148788500Y-196515000D02*
X148788500Y-199055000D01*
X148788500Y-199055000D02*
X151328500Y-199055000D01*
D11*
X150670500Y-195825000D02*
X150670500Y-199725000D01*
X150670500Y-199725000D02*
X154770500Y-199725000D01*
D10*
X151328500Y-196515000D02*
X148788500Y-196515000D01*
X151328500Y-199055000D02*
X151328500Y-196515000D01*
D11*
X156770500Y-197725000D02*
X162470500Y-197725000D01*
D10*
X161742500Y-193975000D02*
X164282500Y-193975000D01*
X161742500Y-196515000D02*
X161742500Y-193975000D01*
D11*
X162470500Y-193325000D02*
X153170500Y-193325000D01*
X162470500Y-193325000D02*
X162470500Y-197725000D01*
D10*
X164282500Y-193975000D02*
X164282500Y-196515000D01*
X164282500Y-196515000D02*
X161742500Y-196515000D01*
D11*
X150670500Y-195825000D02*
G75*
G02*
X153170500Y-193325000I2500000J0D01*
G01*
X154770500Y-199725000D02*
G75*
G02*
X156770500Y-197725000I1999999J1D01*
G01*
D10*
X154884500Y-197785000D02*
G75*
G02*
X151836500Y-197785000I-1524000J0D01*
G01*
X151836500Y-197785000D02*
G75*
G02*
X154884500Y-197785000I1524000J0D01*
G01*
X161234500Y-195245000D02*
G75*
G02*
X158186500Y-195245000I-1524000J0D01*
G01*
X158186500Y-195245000D02*
G75*
G02*
X161234500Y-195245000I1524000J0D01*
G01*
%TO.C,SW56*%
X339288500Y-234615000D02*
X339288500Y-237155000D01*
X339288500Y-237155000D02*
X341828500Y-237155000D01*
D11*
X341170500Y-233925000D02*
X341170500Y-237825000D01*
X341170500Y-237825000D02*
X345270500Y-237825000D01*
D10*
X341828500Y-234615000D02*
X339288500Y-234615000D01*
X341828500Y-237155000D02*
X341828500Y-234615000D01*
D11*
X347270500Y-235825000D02*
X352970500Y-235825000D01*
D10*
X352242500Y-232075000D02*
X354782500Y-232075000D01*
X352242500Y-234615000D02*
X352242500Y-232075000D01*
D11*
X352970500Y-231425000D02*
X343670500Y-231425000D01*
X352970500Y-231425000D02*
X352970500Y-235825000D01*
D10*
X354782500Y-232075000D02*
X354782500Y-234615000D01*
X354782500Y-234615000D02*
X352242500Y-234615000D01*
D11*
X341170500Y-233925000D02*
G75*
G02*
X343670500Y-231425000I2500000J0D01*
G01*
X345270500Y-237825000D02*
G75*
G02*
X347270500Y-235825000I1999999J1D01*
G01*
D10*
X345384500Y-235885000D02*
G75*
G02*
X342336500Y-235885000I-1524000J0D01*
G01*
X342336500Y-235885000D02*
G75*
G02*
X345384500Y-235885000I1524000J0D01*
G01*
X351734500Y-233345000D02*
G75*
G02*
X348686500Y-233345000I-1524000J0D01*
G01*
X348686500Y-233345000D02*
G75*
G02*
X351734500Y-233345000I1524000J0D01*
G01*
%TO.C,SW15*%
X315476000Y-177465000D02*
X315476000Y-180005000D01*
X315476000Y-180005000D02*
X318016000Y-180005000D01*
D11*
X317358000Y-176775000D02*
X317358000Y-180675000D01*
X317358000Y-180675000D02*
X321458000Y-180675000D01*
D10*
X318016000Y-177465000D02*
X315476000Y-177465000D01*
X318016000Y-180005000D02*
X318016000Y-177465000D01*
D11*
X323458000Y-178675000D02*
X329158000Y-178675000D01*
D10*
X328430000Y-174925000D02*
X330970000Y-174925000D01*
X328430000Y-177465000D02*
X328430000Y-174925000D01*
D11*
X329158000Y-174275000D02*
X319858000Y-174275000D01*
X329158000Y-174275000D02*
X329158000Y-178675000D01*
D10*
X330970000Y-174925000D02*
X330970000Y-177465000D01*
X330970000Y-177465000D02*
X328430000Y-177465000D01*
D11*
X317358000Y-176775000D02*
G75*
G02*
X319858000Y-174275000I2500000J0D01*
G01*
X321458000Y-180675000D02*
G75*
G02*
X323458000Y-178675000I1999999J1D01*
G01*
D10*
X321572000Y-178735000D02*
G75*
G02*
X318524000Y-178735000I-1524000J0D01*
G01*
X318524000Y-178735000D02*
G75*
G02*
X321572000Y-178735000I1524000J0D01*
G01*
X327922000Y-176195000D02*
G75*
G02*
X324874000Y-176195000I-1524000J0D01*
G01*
X324874000Y-176195000D02*
G75*
G02*
X327922000Y-176195000I1524000J0D01*
G01*
%TO.C,SW5*%
X239276000Y-148572500D02*
X239276000Y-151112500D01*
X239276000Y-151112500D02*
X241816000Y-151112500D01*
D11*
X241158000Y-147882500D02*
X241158000Y-151782500D01*
X241158000Y-151782500D02*
X245258000Y-151782500D01*
D10*
X241816000Y-148572500D02*
X239276000Y-148572500D01*
X241816000Y-151112500D02*
X241816000Y-148572500D01*
D11*
X247258000Y-149782500D02*
X252958000Y-149782500D01*
D10*
X252230000Y-146032500D02*
X254770000Y-146032500D01*
X252230000Y-148572500D02*
X252230000Y-146032500D01*
D11*
X252958000Y-145382500D02*
X243658000Y-145382500D01*
X252958000Y-145382500D02*
X252958000Y-149782500D01*
D10*
X254770000Y-146032500D02*
X254770000Y-148572500D01*
X254770000Y-148572500D02*
X252230000Y-148572500D01*
D11*
X241158000Y-147882500D02*
G75*
G02*
X243658000Y-145382500I2500000J0D01*
G01*
X245258000Y-151782500D02*
G75*
G02*
X247258000Y-149782500I1999999J1D01*
G01*
D10*
X245372000Y-149842500D02*
G75*
G02*
X242324000Y-149842500I-1524000J0D01*
G01*
X242324000Y-149842500D02*
G75*
G02*
X245372000Y-149842500I1524000J0D01*
G01*
X251722000Y-147302500D02*
G75*
G02*
X248674000Y-147302500I-1524000J0D01*
G01*
X248674000Y-147302500D02*
G75*
G02*
X251722000Y-147302500I1524000J0D01*
G01*
%TO.C,SW4*%
X220226000Y-148572500D02*
X220226000Y-151112500D01*
X220226000Y-151112500D02*
X222766000Y-151112500D01*
D11*
X222108000Y-147882500D02*
X222108000Y-151782500D01*
X222108000Y-151782500D02*
X226208000Y-151782500D01*
D10*
X222766000Y-148572500D02*
X220226000Y-148572500D01*
X222766000Y-151112500D02*
X222766000Y-148572500D01*
D11*
X228208000Y-149782500D02*
X233908000Y-149782500D01*
D10*
X233180000Y-146032500D02*
X235720000Y-146032500D01*
X233180000Y-148572500D02*
X233180000Y-146032500D01*
D11*
X233908000Y-145382500D02*
X224608000Y-145382500D01*
X233908000Y-145382500D02*
X233908000Y-149782500D01*
D10*
X235720000Y-146032500D02*
X235720000Y-148572500D01*
X235720000Y-148572500D02*
X233180000Y-148572500D01*
D11*
X222108000Y-147882500D02*
G75*
G02*
X224608000Y-145382500I2500000J0D01*
G01*
X226208000Y-151782500D02*
G75*
G02*
X228208000Y-149782500I1999999J1D01*
G01*
D10*
X226322000Y-149842500D02*
G75*
G02*
X223274000Y-149842500I-1524000J0D01*
G01*
X223274000Y-149842500D02*
G75*
G02*
X226322000Y-149842500I1524000J0D01*
G01*
X232672000Y-147302500D02*
G75*
G02*
X229624000Y-147302500I-1524000J0D01*
G01*
X229624000Y-147302500D02*
G75*
G02*
X232672000Y-147302500I1524000J0D01*
G01*
%TO.C,SW8*%
X182126000Y-177465000D02*
X182126000Y-180005000D01*
X182126000Y-180005000D02*
X184666000Y-180005000D01*
D11*
X184008000Y-176775000D02*
X184008000Y-180675000D01*
X184008000Y-180675000D02*
X188108000Y-180675000D01*
D10*
X184666000Y-177465000D02*
X182126000Y-177465000D01*
X184666000Y-180005000D02*
X184666000Y-177465000D01*
D11*
X190108000Y-178675000D02*
X195808000Y-178675000D01*
D10*
X195080000Y-174925000D02*
X197620000Y-174925000D01*
X195080000Y-177465000D02*
X195080000Y-174925000D01*
D11*
X195808000Y-174275000D02*
X186508000Y-174275000D01*
X195808000Y-174275000D02*
X195808000Y-178675000D01*
D10*
X197620000Y-174925000D02*
X197620000Y-177465000D01*
X197620000Y-177465000D02*
X195080000Y-177465000D01*
D11*
X184008000Y-176775000D02*
G75*
G02*
X186508000Y-174275000I2500000J0D01*
G01*
X188108000Y-180675000D02*
G75*
G02*
X190108000Y-178675000I1999999J1D01*
G01*
D10*
X188222000Y-178735000D02*
G75*
G02*
X185174000Y-178735000I-1524000J0D01*
G01*
X185174000Y-178735000D02*
G75*
G02*
X188222000Y-178735000I1524000J0D01*
G01*
X194572000Y-176195000D02*
G75*
G02*
X191524000Y-176195000I-1524000J0D01*
G01*
X191524000Y-176195000D02*
G75*
G02*
X194572000Y-176195000I1524000J0D01*
G01*
%TO.C,SW61*%
X182126000Y-253665000D02*
X182126000Y-256205000D01*
X182126000Y-256205000D02*
X184666000Y-256205000D01*
D11*
X184008000Y-252975000D02*
X184008000Y-256875000D01*
X184008000Y-256875000D02*
X188108000Y-256875000D01*
D10*
X184666000Y-253665000D02*
X182126000Y-253665000D01*
X184666000Y-256205000D02*
X184666000Y-253665000D01*
D11*
X190108000Y-254875000D02*
X195808000Y-254875000D01*
D10*
X195080000Y-251125000D02*
X197620000Y-251125000D01*
X195080000Y-253665000D02*
X195080000Y-251125000D01*
D11*
X195808000Y-250475000D02*
X186508000Y-250475000D01*
X195808000Y-250475000D02*
X195808000Y-254875000D01*
D10*
X197620000Y-251125000D02*
X197620000Y-253665000D01*
X197620000Y-253665000D02*
X195080000Y-253665000D01*
D11*
X184008000Y-252975000D02*
G75*
G02*
X186508000Y-250475000I2500000J0D01*
G01*
X188108000Y-256875000D02*
G75*
G02*
X190108000Y-254875000I1999999J1D01*
G01*
D10*
X188222000Y-254935000D02*
G75*
G02*
X185174000Y-254935000I-1524000J0D01*
G01*
X185174000Y-254935000D02*
G75*
G02*
X188222000Y-254935000I1524000J0D01*
G01*
X194572000Y-252395000D02*
G75*
G02*
X191524000Y-252395000I-1524000J0D01*
G01*
X191524000Y-252395000D02*
G75*
G02*
X194572000Y-252395000I1524000J0D01*
G01*
%TO.C,SW27*%
X286901000Y-196515000D02*
X286901000Y-199055000D01*
X286901000Y-199055000D02*
X289441000Y-199055000D01*
D11*
X288783000Y-195825000D02*
X288783000Y-199725000D01*
X288783000Y-199725000D02*
X292883000Y-199725000D01*
D10*
X289441000Y-196515000D02*
X286901000Y-196515000D01*
X289441000Y-199055000D02*
X289441000Y-196515000D01*
D11*
X294883000Y-197725000D02*
X300583000Y-197725000D01*
D10*
X299855000Y-193975000D02*
X302395000Y-193975000D01*
X299855000Y-196515000D02*
X299855000Y-193975000D01*
D11*
X300583000Y-193325000D02*
X291283000Y-193325000D01*
X300583000Y-193325000D02*
X300583000Y-197725000D01*
D10*
X302395000Y-193975000D02*
X302395000Y-196515000D01*
X302395000Y-196515000D02*
X299855000Y-196515000D01*
D11*
X288783000Y-195825000D02*
G75*
G02*
X291283000Y-193325000I2500000J0D01*
G01*
X292883000Y-199725000D02*
G75*
G02*
X294883000Y-197725000I1999999J1D01*
G01*
D10*
X292997000Y-197785000D02*
G75*
G02*
X289949000Y-197785000I-1524000J0D01*
G01*
X289949000Y-197785000D02*
G75*
G02*
X292997000Y-197785000I1524000J0D01*
G01*
X299347000Y-195245000D02*
G75*
G02*
X296299000Y-195245000I-1524000J0D01*
G01*
X296299000Y-195245000D02*
G75*
G02*
X299347000Y-195245000I1524000J0D01*
G01*
%TO.C,SW25*%
X248801000Y-196515000D02*
X248801000Y-199055000D01*
X248801000Y-199055000D02*
X251341000Y-199055000D01*
D11*
X250683000Y-195825000D02*
X250683000Y-199725000D01*
X250683000Y-199725000D02*
X254783000Y-199725000D01*
D10*
X251341000Y-196515000D02*
X248801000Y-196515000D01*
X251341000Y-199055000D02*
X251341000Y-196515000D01*
D11*
X256783000Y-197725000D02*
X262483000Y-197725000D01*
D10*
X261755000Y-193975000D02*
X264295000Y-193975000D01*
X261755000Y-196515000D02*
X261755000Y-193975000D01*
D11*
X262483000Y-193325000D02*
X253183000Y-193325000D01*
X262483000Y-193325000D02*
X262483000Y-197725000D01*
D10*
X264295000Y-193975000D02*
X264295000Y-196515000D01*
X264295000Y-196515000D02*
X261755000Y-196515000D01*
D11*
X250683000Y-195825000D02*
G75*
G02*
X253183000Y-193325000I2500000J0D01*
G01*
X254783000Y-199725000D02*
G75*
G02*
X256783000Y-197725000I1999999J1D01*
G01*
D10*
X254897000Y-197785000D02*
G75*
G02*
X251849000Y-197785000I-1524000J0D01*
G01*
X251849000Y-197785000D02*
G75*
G02*
X254897000Y-197785000I1524000J0D01*
G01*
X261247000Y-195245000D02*
G75*
G02*
X258199000Y-195245000I-1524000J0D01*
G01*
X258199000Y-195245000D02*
G75*
G02*
X261247000Y-195245000I1524000J0D01*
G01*
%TO.C,SW34*%
X151169750Y-215565000D02*
X151169750Y-218105000D01*
X151169750Y-218105000D02*
X153709750Y-218105000D01*
D11*
X153051750Y-214875000D02*
X153051750Y-218775000D01*
X153051750Y-218775000D02*
X157151750Y-218775000D01*
D10*
X153709750Y-215565000D02*
X151169750Y-215565000D01*
X153709750Y-218105000D02*
X153709750Y-215565000D01*
D11*
X159151750Y-216775000D02*
X164851750Y-216775000D01*
D10*
X164123750Y-213025000D02*
X166663750Y-213025000D01*
X164123750Y-215565000D02*
X164123750Y-213025000D01*
D11*
X164851750Y-212375000D02*
X155551750Y-212375000D01*
X164851750Y-212375000D02*
X164851750Y-216775000D01*
D10*
X166663750Y-213025000D02*
X166663750Y-215565000D01*
X166663750Y-215565000D02*
X164123750Y-215565000D01*
D11*
X153051750Y-214875000D02*
G75*
G02*
X155551750Y-212375000I2500000J0D01*
G01*
X157151750Y-218775000D02*
G75*
G02*
X159151750Y-216775000I1999999J1D01*
G01*
D10*
X157265750Y-216835000D02*
G75*
G02*
X154217750Y-216835000I-1524000J0D01*
G01*
X154217750Y-216835000D02*
G75*
G02*
X157265750Y-216835000I1524000J0D01*
G01*
X163615750Y-214295000D02*
G75*
G02*
X160567750Y-214295000I-1524000J0D01*
G01*
X160567750Y-214295000D02*
G75*
G02*
X163615750Y-214295000I1524000J0D01*
G01*
%TO.C,SW33*%
X405963500Y-196515000D02*
X405963500Y-199055000D01*
X405963500Y-199055000D02*
X408503500Y-199055000D01*
D11*
X407845500Y-195825000D02*
X407845500Y-199725000D01*
X407845500Y-199725000D02*
X411945500Y-199725000D01*
D10*
X408503500Y-196515000D02*
X405963500Y-196515000D01*
X408503500Y-199055000D02*
X408503500Y-196515000D01*
D11*
X413945500Y-197725000D02*
X419645500Y-197725000D01*
D10*
X418917500Y-193975000D02*
X421457500Y-193975000D01*
X418917500Y-196515000D02*
X418917500Y-193975000D01*
D11*
X419645500Y-193325000D02*
X410345500Y-193325000D01*
X419645500Y-193325000D02*
X419645500Y-197725000D01*
D10*
X421457500Y-193975000D02*
X421457500Y-196515000D01*
X421457500Y-196515000D02*
X418917500Y-196515000D01*
D11*
X407845500Y-195825000D02*
G75*
G02*
X410345500Y-193325000I2500000J0D01*
G01*
X411945500Y-199725000D02*
G75*
G02*
X413945500Y-197725000I1999999J1D01*
G01*
D10*
X412059500Y-197785000D02*
G75*
G02*
X409011500Y-197785000I-1524000J0D01*
G01*
X409011500Y-197785000D02*
G75*
G02*
X412059500Y-197785000I1524000J0D01*
G01*
X418409500Y-195245000D02*
G75*
G02*
X415361500Y-195245000I-1524000J0D01*
G01*
X415361500Y-195245000D02*
G75*
G02*
X418409500Y-195245000I1524000J0D01*
G01*
%TO.C,SW64*%
X372626000Y-253665000D02*
X372626000Y-256205000D01*
X372626000Y-256205000D02*
X375166000Y-256205000D01*
D11*
X374508000Y-252975000D02*
X374508000Y-256875000D01*
X374508000Y-256875000D02*
X378608000Y-256875000D01*
D10*
X375166000Y-253665000D02*
X372626000Y-253665000D01*
X375166000Y-256205000D02*
X375166000Y-253665000D01*
D11*
X380608000Y-254875000D02*
X386308000Y-254875000D01*
D10*
X385580000Y-251125000D02*
X388120000Y-251125000D01*
X385580000Y-253665000D02*
X385580000Y-251125000D01*
D11*
X386308000Y-250475000D02*
X377008000Y-250475000D01*
X386308000Y-250475000D02*
X386308000Y-254875000D01*
D10*
X388120000Y-251125000D02*
X388120000Y-253665000D01*
X388120000Y-253665000D02*
X385580000Y-253665000D01*
D11*
X374508000Y-252975000D02*
G75*
G02*
X377008000Y-250475000I2500000J0D01*
G01*
X378608000Y-256875000D02*
G75*
G02*
X380608000Y-254875000I1999999J1D01*
G01*
D10*
X378722000Y-254935000D02*
G75*
G02*
X375674000Y-254935000I-1524000J0D01*
G01*
X375674000Y-254935000D02*
G75*
G02*
X378722000Y-254935000I1524000J0D01*
G01*
X385072000Y-252395000D02*
G75*
G02*
X382024000Y-252395000I-1524000J0D01*
G01*
X382024000Y-252395000D02*
G75*
G02*
X385072000Y-252395000I1524000J0D01*
G01*
%TO.C,MX2*%
D12*
X154400000Y-231457500D02*
G75*
G02*
X150400000Y-231457500I-2000000J0D01*
G01*
X150400000Y-231457500D02*
G75*
G02*
X154400000Y-231457500I2000000J0D01*
G01*
X178212500Y-231457500D02*
G75*
G02*
X174212500Y-231457500I-2000000J0D01*
G01*
X174212500Y-231457500D02*
G75*
G02*
X178212500Y-231457500I2000000J0D01*
G01*
%TO.C,SW7*%
D10*
X163076000Y-177465000D02*
X163076000Y-180005000D01*
X163076000Y-180005000D02*
X165616000Y-180005000D01*
D11*
X164958000Y-176775000D02*
X164958000Y-180675000D01*
X164958000Y-180675000D02*
X169058000Y-180675000D01*
D10*
X165616000Y-177465000D02*
X163076000Y-177465000D01*
X165616000Y-180005000D02*
X165616000Y-177465000D01*
D11*
X171058000Y-178675000D02*
X176758000Y-178675000D01*
D10*
X176030000Y-174925000D02*
X178570000Y-174925000D01*
X176030000Y-177465000D02*
X176030000Y-174925000D01*
D11*
X176758000Y-174275000D02*
X167458000Y-174275000D01*
X176758000Y-174275000D02*
X176758000Y-178675000D01*
D10*
X178570000Y-174925000D02*
X178570000Y-177465000D01*
X178570000Y-177465000D02*
X176030000Y-177465000D01*
D11*
X164958000Y-176775000D02*
G75*
G02*
X167458000Y-174275000I2500000J0D01*
G01*
X169058000Y-180675000D02*
G75*
G02*
X171058000Y-178675000I1999999J1D01*
G01*
D10*
X169172000Y-178735000D02*
G75*
G02*
X166124000Y-178735000I-1524000J0D01*
G01*
X166124000Y-178735000D02*
G75*
G02*
X169172000Y-178735000I1524000J0D01*
G01*
X175522000Y-176195000D02*
G75*
G02*
X172474000Y-176195000I-1524000J0D01*
G01*
X172474000Y-176195000D02*
G75*
G02*
X175522000Y-176195000I1524000J0D01*
G01*
%TO.C,SW19*%
X401201000Y-177465000D02*
X401201000Y-180005000D01*
X401201000Y-180005000D02*
X403741000Y-180005000D01*
D11*
X403083000Y-176775000D02*
X403083000Y-180675000D01*
X403083000Y-180675000D02*
X407183000Y-180675000D01*
D10*
X403741000Y-177465000D02*
X401201000Y-177465000D01*
X403741000Y-180005000D02*
X403741000Y-177465000D01*
D11*
X409183000Y-178675000D02*
X414883000Y-178675000D01*
D10*
X414155000Y-174925000D02*
X416695000Y-174925000D01*
X414155000Y-177465000D02*
X414155000Y-174925000D01*
D11*
X414883000Y-174275000D02*
X405583000Y-174275000D01*
X414883000Y-174275000D02*
X414883000Y-178675000D01*
D10*
X416695000Y-174925000D02*
X416695000Y-177465000D01*
X416695000Y-177465000D02*
X414155000Y-177465000D01*
D11*
X403083000Y-176775000D02*
G75*
G02*
X405583000Y-174275000I2500000J0D01*
G01*
X407183000Y-180675000D02*
G75*
G02*
X409183000Y-178675000I1999999J1D01*
G01*
D10*
X407297000Y-178735000D02*
G75*
G02*
X404249000Y-178735000I-1524000J0D01*
G01*
X404249000Y-178735000D02*
G75*
G02*
X407297000Y-178735000I1524000J0D01*
G01*
X413647000Y-176195000D02*
G75*
G02*
X410599000Y-176195000I-1524000J0D01*
G01*
X410599000Y-176195000D02*
G75*
G02*
X413647000Y-176195000I1524000J0D01*
G01*
%TO.C,SW3*%
X201176000Y-148572500D02*
X201176000Y-151112500D01*
X201176000Y-151112500D02*
X203716000Y-151112500D01*
D11*
X203058000Y-147882500D02*
X203058000Y-151782500D01*
X203058000Y-151782500D02*
X207158000Y-151782500D01*
D10*
X203716000Y-148572500D02*
X201176000Y-148572500D01*
X203716000Y-151112500D02*
X203716000Y-148572500D01*
D11*
X209158000Y-149782500D02*
X214858000Y-149782500D01*
D10*
X214130000Y-146032500D02*
X216670000Y-146032500D01*
X214130000Y-148572500D02*
X214130000Y-146032500D01*
D11*
X214858000Y-145382500D02*
X205558000Y-145382500D01*
X214858000Y-145382500D02*
X214858000Y-149782500D01*
D10*
X216670000Y-146032500D02*
X216670000Y-148572500D01*
X216670000Y-148572500D02*
X214130000Y-148572500D01*
D11*
X203058000Y-147882500D02*
G75*
G02*
X205558000Y-145382500I2500000J0D01*
G01*
X207158000Y-151782500D02*
G75*
G02*
X209158000Y-149782500I1999999J1D01*
G01*
D10*
X207272000Y-149842500D02*
G75*
G02*
X204224000Y-149842500I-1524000J0D01*
G01*
X204224000Y-149842500D02*
G75*
G02*
X207272000Y-149842500I1524000J0D01*
G01*
X213622000Y-147302500D02*
G75*
G02*
X210574000Y-147302500I-1524000J0D01*
G01*
X210574000Y-147302500D02*
G75*
G02*
X213622000Y-147302500I1524000J0D01*
G01*
%TO.C,MX3*%
D12*
X397287500Y-212407500D02*
G75*
G02*
X393287500Y-212407500I-2000000J0D01*
G01*
X393287500Y-212407500D02*
G75*
G02*
X397287500Y-212407500I2000000J0D01*
G01*
X421100000Y-212407500D02*
G75*
G02*
X417100000Y-212407500I-2000000J0D01*
G01*
X417100000Y-212407500D02*
G75*
G02*
X421100000Y-212407500I2000000J0D01*
G01*
%TO.C,SW43*%
D10*
X329763500Y-215565000D02*
X329763500Y-218105000D01*
X329763500Y-218105000D02*
X332303500Y-218105000D01*
D11*
X331645500Y-214875000D02*
X331645500Y-218775000D01*
X331645500Y-218775000D02*
X335745500Y-218775000D01*
D10*
X332303500Y-215565000D02*
X329763500Y-215565000D01*
X332303500Y-218105000D02*
X332303500Y-215565000D01*
D11*
X337745500Y-216775000D02*
X343445500Y-216775000D01*
D10*
X342717500Y-213025000D02*
X345257500Y-213025000D01*
X342717500Y-215565000D02*
X342717500Y-213025000D01*
D11*
X343445500Y-212375000D02*
X334145500Y-212375000D01*
X343445500Y-212375000D02*
X343445500Y-216775000D01*
D10*
X345257500Y-213025000D02*
X345257500Y-215565000D01*
X345257500Y-215565000D02*
X342717500Y-215565000D01*
D11*
X331645500Y-214875000D02*
G75*
G02*
X334145500Y-212375000I2500000J0D01*
G01*
X335745500Y-218775000D02*
G75*
G02*
X337745500Y-216775000I1999999J1D01*
G01*
D10*
X335859500Y-216835000D02*
G75*
G02*
X332811500Y-216835000I-1524000J0D01*
G01*
X332811500Y-216835000D02*
G75*
G02*
X335859500Y-216835000I1524000J0D01*
G01*
X342209500Y-214295000D02*
G75*
G02*
X339161500Y-214295000I-1524000J0D01*
G01*
X339161500Y-214295000D02*
G75*
G02*
X342209500Y-214295000I1524000J0D01*
G01*
%TO.C,SW13*%
X277376000Y-177465000D02*
X277376000Y-180005000D01*
X277376000Y-180005000D02*
X279916000Y-180005000D01*
D11*
X279258000Y-176775000D02*
X279258000Y-180675000D01*
X279258000Y-180675000D02*
X283358000Y-180675000D01*
D10*
X279916000Y-177465000D02*
X277376000Y-177465000D01*
X279916000Y-180005000D02*
X279916000Y-177465000D01*
D11*
X285358000Y-178675000D02*
X291058000Y-178675000D01*
D10*
X290330000Y-174925000D02*
X292870000Y-174925000D01*
X290330000Y-177465000D02*
X290330000Y-174925000D01*
D11*
X291058000Y-174275000D02*
X281758000Y-174275000D01*
X291058000Y-174275000D02*
X291058000Y-178675000D01*
D10*
X292870000Y-174925000D02*
X292870000Y-177465000D01*
X292870000Y-177465000D02*
X290330000Y-177465000D01*
D11*
X279258000Y-176775000D02*
G75*
G02*
X281758000Y-174275000I2500000J0D01*
G01*
X283358000Y-180675000D02*
G75*
G02*
X285358000Y-178675000I1999999J1D01*
G01*
D10*
X283472000Y-178735000D02*
G75*
G02*
X280424000Y-178735000I-1524000J0D01*
G01*
X280424000Y-178735000D02*
G75*
G02*
X283472000Y-178735000I1524000J0D01*
G01*
X289822000Y-176195000D02*
G75*
G02*
X286774000Y-176195000I-1524000J0D01*
G01*
X286774000Y-176195000D02*
G75*
G02*
X289822000Y-176195000I1524000J0D01*
G01*
%TO.C,SW31*%
X363101000Y-196515000D02*
X363101000Y-199055000D01*
X363101000Y-199055000D02*
X365641000Y-199055000D01*
D11*
X364983000Y-195825000D02*
X364983000Y-199725000D01*
X364983000Y-199725000D02*
X369083000Y-199725000D01*
D10*
X365641000Y-196515000D02*
X363101000Y-196515000D01*
X365641000Y-199055000D02*
X365641000Y-196515000D01*
D11*
X371083000Y-197725000D02*
X376783000Y-197725000D01*
D10*
X376055000Y-193975000D02*
X378595000Y-193975000D01*
X376055000Y-196515000D02*
X376055000Y-193975000D01*
D11*
X376783000Y-193325000D02*
X367483000Y-193325000D01*
X376783000Y-193325000D02*
X376783000Y-197725000D01*
D10*
X378595000Y-193975000D02*
X378595000Y-196515000D01*
X378595000Y-196515000D02*
X376055000Y-196515000D01*
D11*
X364983000Y-195825000D02*
G75*
G02*
X367483000Y-193325000I2500000J0D01*
G01*
X369083000Y-199725000D02*
G75*
G02*
X371083000Y-197725000I1999999J1D01*
G01*
D10*
X369197000Y-197785000D02*
G75*
G02*
X366149000Y-197785000I-1524000J0D01*
G01*
X366149000Y-197785000D02*
G75*
G02*
X369197000Y-197785000I1524000J0D01*
G01*
X375547000Y-195245000D02*
G75*
G02*
X372499000Y-195245000I-1524000J0D01*
G01*
X372499000Y-195245000D02*
G75*
G02*
X375547000Y-195245000I1524000J0D01*
G01*
%TO.C,SW44*%
X348813500Y-215565000D02*
X348813500Y-218105000D01*
X348813500Y-218105000D02*
X351353500Y-218105000D01*
D11*
X350695500Y-214875000D02*
X350695500Y-218775000D01*
X350695500Y-218775000D02*
X354795500Y-218775000D01*
D10*
X351353500Y-215565000D02*
X348813500Y-215565000D01*
X351353500Y-218105000D02*
X351353500Y-215565000D01*
D11*
X356795500Y-216775000D02*
X362495500Y-216775000D01*
D10*
X361767500Y-213025000D02*
X364307500Y-213025000D01*
X361767500Y-215565000D02*
X361767500Y-213025000D01*
D11*
X362495500Y-212375000D02*
X353195500Y-212375000D01*
X362495500Y-212375000D02*
X362495500Y-216775000D01*
D10*
X364307500Y-213025000D02*
X364307500Y-215565000D01*
X364307500Y-215565000D02*
X361767500Y-215565000D01*
D11*
X350695500Y-214875000D02*
G75*
G02*
X353195500Y-212375000I2500000J0D01*
G01*
X354795500Y-218775000D02*
G75*
G02*
X356795500Y-216775000I1999999J1D01*
G01*
D10*
X354909500Y-216835000D02*
G75*
G02*
X351861500Y-216835000I-1524000J0D01*
G01*
X351861500Y-216835000D02*
G75*
G02*
X354909500Y-216835000I1524000J0D01*
G01*
X361259500Y-214295000D02*
G75*
G02*
X358211500Y-214295000I-1524000J0D01*
G01*
X358211500Y-214295000D02*
G75*
G02*
X361259500Y-214295000I1524000J0D01*
G01*
%TO.C,SW52*%
X263088500Y-234615000D02*
X263088500Y-237155000D01*
X263088500Y-237155000D02*
X265628500Y-237155000D01*
D11*
X264970500Y-233925000D02*
X264970500Y-237825000D01*
X264970500Y-237825000D02*
X269070500Y-237825000D01*
D10*
X265628500Y-234615000D02*
X263088500Y-234615000D01*
X265628500Y-237155000D02*
X265628500Y-234615000D01*
D11*
X271070500Y-235825000D02*
X276770500Y-235825000D01*
D10*
X276042500Y-232075000D02*
X278582500Y-232075000D01*
X276042500Y-234615000D02*
X276042500Y-232075000D01*
D11*
X276770500Y-231425000D02*
X267470500Y-231425000D01*
X276770500Y-231425000D02*
X276770500Y-235825000D01*
D10*
X278582500Y-232075000D02*
X278582500Y-234615000D01*
X278582500Y-234615000D02*
X276042500Y-234615000D01*
D11*
X264970500Y-233925000D02*
G75*
G02*
X267470500Y-231425000I2500000J0D01*
G01*
X269070500Y-237825000D02*
G75*
G02*
X271070500Y-235825000I1999999J1D01*
G01*
D10*
X269184500Y-235885000D02*
G75*
G02*
X266136500Y-235885000I-1524000J0D01*
G01*
X266136500Y-235885000D02*
G75*
G02*
X269184500Y-235885000I1524000J0D01*
G01*
X275534500Y-233345000D02*
G75*
G02*
X272486500Y-233345000I-1524000J0D01*
G01*
X272486500Y-233345000D02*
G75*
G02*
X275534500Y-233345000I1524000J0D01*
G01*
%TO.C,MX5*%
D12*
X266318750Y-250507500D02*
G75*
G02*
X262318750Y-250507500I-2000000J0D01*
G01*
X262318750Y-250507500D02*
G75*
G02*
X266318750Y-250507500I2000000J0D01*
G01*
X290131250Y-250507500D02*
G75*
G02*
X286131250Y-250507500I-2000000J0D01*
G01*
X286131250Y-250507500D02*
G75*
G02*
X290131250Y-250507500I2000000J0D01*
G01*
%TO.C,SW45*%
D10*
X367863500Y-215565000D02*
X367863500Y-218105000D01*
X367863500Y-218105000D02*
X370403500Y-218105000D01*
D11*
X369745500Y-214875000D02*
X369745500Y-218775000D01*
X369745500Y-218775000D02*
X373845500Y-218775000D01*
D10*
X370403500Y-215565000D02*
X367863500Y-215565000D01*
X370403500Y-218105000D02*
X370403500Y-215565000D01*
D11*
X375845500Y-216775000D02*
X381545500Y-216775000D01*
D10*
X380817500Y-213025000D02*
X383357500Y-213025000D01*
X380817500Y-215565000D02*
X380817500Y-213025000D01*
D11*
X381545500Y-212375000D02*
X372245500Y-212375000D01*
X381545500Y-212375000D02*
X381545500Y-216775000D01*
D10*
X383357500Y-213025000D02*
X383357500Y-215565000D01*
X383357500Y-215565000D02*
X380817500Y-215565000D01*
D11*
X369745500Y-214875000D02*
G75*
G02*
X372245500Y-212375000I2500000J0D01*
G01*
X373845500Y-218775000D02*
G75*
G02*
X375845500Y-216775000I1999999J1D01*
G01*
D10*
X373959500Y-216835000D02*
G75*
G02*
X370911500Y-216835000I-1524000J0D01*
G01*
X370911500Y-216835000D02*
G75*
G02*
X373959500Y-216835000I1524000J0D01*
G01*
X380309500Y-214295000D02*
G75*
G02*
X377261500Y-214295000I-1524000J0D01*
G01*
X377261500Y-214295000D02*
G75*
G02*
X380309500Y-214295000I1524000J0D01*
G01*
%TO.C,SW42*%
X310713500Y-215565000D02*
X310713500Y-218105000D01*
X310713500Y-218105000D02*
X313253500Y-218105000D01*
D11*
X312595500Y-214875000D02*
X312595500Y-218775000D01*
X312595500Y-218775000D02*
X316695500Y-218775000D01*
D10*
X313253500Y-215565000D02*
X310713500Y-215565000D01*
X313253500Y-218105000D02*
X313253500Y-215565000D01*
D11*
X318695500Y-216775000D02*
X324395500Y-216775000D01*
D10*
X323667500Y-213025000D02*
X326207500Y-213025000D01*
X323667500Y-215565000D02*
X323667500Y-213025000D01*
D11*
X324395500Y-212375000D02*
X315095500Y-212375000D01*
X324395500Y-212375000D02*
X324395500Y-216775000D01*
D10*
X326207500Y-213025000D02*
X326207500Y-215565000D01*
X326207500Y-215565000D02*
X323667500Y-215565000D01*
D11*
X312595500Y-214875000D02*
G75*
G02*
X315095500Y-212375000I2500000J0D01*
G01*
X316695500Y-218775000D02*
G75*
G02*
X318695500Y-216775000I1999999J1D01*
G01*
D10*
X316809500Y-216835000D02*
G75*
G02*
X313761500Y-216835000I-1524000J0D01*
G01*
X313761500Y-216835000D02*
G75*
G02*
X316809500Y-216835000I1524000J0D01*
G01*
X323159500Y-214295000D02*
G75*
G02*
X320111500Y-214295000I-1524000J0D01*
G01*
X320111500Y-214295000D02*
G75*
G02*
X323159500Y-214295000I1524000J0D01*
G01*
%TO.C,SW1*%
X144026000Y-148572500D02*
X144026000Y-151112500D01*
X144026000Y-151112500D02*
X146566000Y-151112500D01*
D11*
X145908000Y-147882500D02*
X145908000Y-151782500D01*
X145908000Y-151782500D02*
X150008000Y-151782500D01*
D10*
X146566000Y-148572500D02*
X144026000Y-148572500D01*
X146566000Y-151112500D02*
X146566000Y-148572500D01*
D11*
X152008000Y-149782500D02*
X157708000Y-149782500D01*
D10*
X156980000Y-146032500D02*
X159520000Y-146032500D01*
X156980000Y-148572500D02*
X156980000Y-146032500D01*
D11*
X157708000Y-145382500D02*
X148408000Y-145382500D01*
X157708000Y-145382500D02*
X157708000Y-149782500D01*
D10*
X159520000Y-146032500D02*
X159520000Y-148572500D01*
X159520000Y-148572500D02*
X156980000Y-148572500D01*
D11*
X145908000Y-147882500D02*
G75*
G02*
X148408000Y-145382500I2500000J0D01*
G01*
X150008000Y-151782500D02*
G75*
G02*
X152008000Y-149782500I1999999J1D01*
G01*
D10*
X150122000Y-149842500D02*
G75*
G02*
X147074000Y-149842500I-1524000J0D01*
G01*
X147074000Y-149842500D02*
G75*
G02*
X150122000Y-149842500I1524000J0D01*
G01*
X156472000Y-147302500D02*
G75*
G02*
X153424000Y-147302500I-1524000J0D01*
G01*
X153424000Y-147302500D02*
G75*
G02*
X156472000Y-147302500I1524000J0D01*
G01*
%TO.C,SW51*%
X244038500Y-234615000D02*
X244038500Y-237155000D01*
X244038500Y-237155000D02*
X246578500Y-237155000D01*
D11*
X245920500Y-233925000D02*
X245920500Y-237825000D01*
X245920500Y-237825000D02*
X250020500Y-237825000D01*
D10*
X246578500Y-234615000D02*
X244038500Y-234615000D01*
X246578500Y-237155000D02*
X246578500Y-234615000D01*
D11*
X252020500Y-235825000D02*
X257720500Y-235825000D01*
D10*
X256992500Y-232075000D02*
X259532500Y-232075000D01*
X256992500Y-234615000D02*
X256992500Y-232075000D01*
D11*
X257720500Y-231425000D02*
X248420500Y-231425000D01*
X257720500Y-231425000D02*
X257720500Y-235825000D01*
D10*
X259532500Y-232075000D02*
X259532500Y-234615000D01*
X259532500Y-234615000D02*
X256992500Y-234615000D01*
D11*
X245920500Y-233925000D02*
G75*
G02*
X248420500Y-231425000I2500000J0D01*
G01*
X250020500Y-237825000D02*
G75*
G02*
X252020500Y-235825000I1999999J1D01*
G01*
D10*
X250134500Y-235885000D02*
G75*
G02*
X247086500Y-235885000I-1524000J0D01*
G01*
X247086500Y-235885000D02*
G75*
G02*
X250134500Y-235885000I1524000J0D01*
G01*
X256484500Y-233345000D02*
G75*
G02*
X253436500Y-233345000I-1524000J0D01*
G01*
X253436500Y-233345000D02*
G75*
G02*
X256484500Y-233345000I1524000J0D01*
G01*
%TO.C,SW14*%
X296426000Y-177465000D02*
X296426000Y-180005000D01*
X296426000Y-180005000D02*
X298966000Y-180005000D01*
D11*
X298308000Y-176775000D02*
X298308000Y-180675000D01*
X298308000Y-180675000D02*
X302408000Y-180675000D01*
D10*
X298966000Y-177465000D02*
X296426000Y-177465000D01*
X298966000Y-180005000D02*
X298966000Y-177465000D01*
D11*
X304408000Y-178675000D02*
X310108000Y-178675000D01*
D10*
X309380000Y-174925000D02*
X311920000Y-174925000D01*
X309380000Y-177465000D02*
X309380000Y-174925000D01*
D11*
X310108000Y-174275000D02*
X300808000Y-174275000D01*
X310108000Y-174275000D02*
X310108000Y-178675000D01*
D10*
X311920000Y-174925000D02*
X311920000Y-177465000D01*
X311920000Y-177465000D02*
X309380000Y-177465000D01*
D11*
X298308000Y-176775000D02*
G75*
G02*
X300808000Y-174275000I2500000J0D01*
G01*
X302408000Y-180675000D02*
G75*
G02*
X304408000Y-178675000I1999999J1D01*
G01*
D10*
X302522000Y-178735000D02*
G75*
G02*
X299474000Y-178735000I-1524000J0D01*
G01*
X299474000Y-178735000D02*
G75*
G02*
X302522000Y-178735000I1524000J0D01*
G01*
X308872000Y-176195000D02*
G75*
G02*
X305824000Y-176195000I-1524000J0D01*
G01*
X305824000Y-176195000D02*
G75*
G02*
X308872000Y-176195000I1524000J0D01*
G01*
%TO.C,SW29*%
X325001000Y-196515000D02*
X325001000Y-199055000D01*
X325001000Y-199055000D02*
X327541000Y-199055000D01*
D11*
X326883000Y-195825000D02*
X326883000Y-199725000D01*
X326883000Y-199725000D02*
X330983000Y-199725000D01*
D10*
X327541000Y-196515000D02*
X325001000Y-196515000D01*
X327541000Y-199055000D02*
X327541000Y-196515000D01*
D11*
X332983000Y-197725000D02*
X338683000Y-197725000D01*
D10*
X337955000Y-193975000D02*
X340495000Y-193975000D01*
X337955000Y-196515000D02*
X337955000Y-193975000D01*
D11*
X338683000Y-193325000D02*
X329383000Y-193325000D01*
X338683000Y-193325000D02*
X338683000Y-197725000D01*
D10*
X340495000Y-193975000D02*
X340495000Y-196515000D01*
X340495000Y-196515000D02*
X337955000Y-196515000D01*
D11*
X326883000Y-195825000D02*
G75*
G02*
X329383000Y-193325000I2500000J0D01*
G01*
X330983000Y-199725000D02*
G75*
G02*
X332983000Y-197725000I1999999J1D01*
G01*
D10*
X331097000Y-197785000D02*
G75*
G02*
X328049000Y-197785000I-1524000J0D01*
G01*
X328049000Y-197785000D02*
G75*
G02*
X331097000Y-197785000I1524000J0D01*
G01*
X337447000Y-195245000D02*
G75*
G02*
X334399000Y-195245000I-1524000J0D01*
G01*
X334399000Y-195245000D02*
G75*
G02*
X337447000Y-195245000I1524000J0D01*
G01*
%TO.C,SW41*%
X291663500Y-215565000D02*
X291663500Y-218105000D01*
X291663500Y-218105000D02*
X294203500Y-218105000D01*
D11*
X293545500Y-214875000D02*
X293545500Y-218775000D01*
X293545500Y-218775000D02*
X297645500Y-218775000D01*
D10*
X294203500Y-215565000D02*
X291663500Y-215565000D01*
X294203500Y-218105000D02*
X294203500Y-215565000D01*
D11*
X299645500Y-216775000D02*
X305345500Y-216775000D01*
D10*
X304617500Y-213025000D02*
X307157500Y-213025000D01*
X304617500Y-215565000D02*
X304617500Y-213025000D01*
D11*
X305345500Y-212375000D02*
X296045500Y-212375000D01*
X305345500Y-212375000D02*
X305345500Y-216775000D01*
D10*
X307157500Y-213025000D02*
X307157500Y-215565000D01*
X307157500Y-215565000D02*
X304617500Y-215565000D01*
D11*
X293545500Y-214875000D02*
G75*
G02*
X296045500Y-212375000I2500000J0D01*
G01*
X297645500Y-218775000D02*
G75*
G02*
X299645500Y-216775000I1999999J1D01*
G01*
D10*
X297759500Y-216835000D02*
G75*
G02*
X294711500Y-216835000I-1524000J0D01*
G01*
X294711500Y-216835000D02*
G75*
G02*
X297759500Y-216835000I1524000J0D01*
G01*
X304109500Y-214295000D02*
G75*
G02*
X301061500Y-214295000I-1524000J0D01*
G01*
X301061500Y-214295000D02*
G75*
G02*
X304109500Y-214295000I1524000J0D01*
G01*
%TO.C,SW37*%
X215463500Y-215565000D02*
X215463500Y-218105000D01*
X215463500Y-218105000D02*
X218003500Y-218105000D01*
D11*
X217345500Y-214875000D02*
X217345500Y-218775000D01*
X217345500Y-218775000D02*
X221445500Y-218775000D01*
D10*
X218003500Y-215565000D02*
X215463500Y-215565000D01*
X218003500Y-218105000D02*
X218003500Y-215565000D01*
D11*
X223445500Y-216775000D02*
X229145500Y-216775000D01*
D10*
X228417500Y-213025000D02*
X230957500Y-213025000D01*
X228417500Y-215565000D02*
X228417500Y-213025000D01*
D11*
X229145500Y-212375000D02*
X219845500Y-212375000D01*
X229145500Y-212375000D02*
X229145500Y-216775000D01*
D10*
X230957500Y-213025000D02*
X230957500Y-215565000D01*
X230957500Y-215565000D02*
X228417500Y-215565000D01*
D11*
X217345500Y-214875000D02*
G75*
G02*
X219845500Y-212375000I2500000J0D01*
G01*
X221445500Y-218775000D02*
G75*
G02*
X223445500Y-216775000I1999999J1D01*
G01*
D10*
X221559500Y-216835000D02*
G75*
G02*
X218511500Y-216835000I-1524000J0D01*
G01*
X218511500Y-216835000D02*
G75*
G02*
X221559500Y-216835000I1524000J0D01*
G01*
X227909500Y-214295000D02*
G75*
G02*
X224861500Y-214295000I-1524000J0D01*
G01*
X224861500Y-214295000D02*
G75*
G02*
X227909500Y-214295000I1524000J0D01*
G01*
%TO.C,SW16*%
X334526000Y-177465000D02*
X334526000Y-180005000D01*
X334526000Y-180005000D02*
X337066000Y-180005000D01*
D11*
X336408000Y-176775000D02*
X336408000Y-180675000D01*
X336408000Y-180675000D02*
X340508000Y-180675000D01*
D10*
X337066000Y-177465000D02*
X334526000Y-177465000D01*
X337066000Y-180005000D02*
X337066000Y-177465000D01*
D11*
X342508000Y-178675000D02*
X348208000Y-178675000D01*
D10*
X347480000Y-174925000D02*
X350020000Y-174925000D01*
X347480000Y-177465000D02*
X347480000Y-174925000D01*
D11*
X348208000Y-174275000D02*
X338908000Y-174275000D01*
X348208000Y-174275000D02*
X348208000Y-178675000D01*
D10*
X350020000Y-174925000D02*
X350020000Y-177465000D01*
X350020000Y-177465000D02*
X347480000Y-177465000D01*
D11*
X336408000Y-176775000D02*
G75*
G02*
X338908000Y-174275000I2500000J0D01*
G01*
X340508000Y-180675000D02*
G75*
G02*
X342508000Y-178675000I1999999J1D01*
G01*
D10*
X340622000Y-178735000D02*
G75*
G02*
X337574000Y-178735000I-1524000J0D01*
G01*
X337574000Y-178735000D02*
G75*
G02*
X340622000Y-178735000I1524000J0D01*
G01*
X346972000Y-176195000D02*
G75*
G02*
X343924000Y-176195000I-1524000J0D01*
G01*
X343924000Y-176195000D02*
G75*
G02*
X346972000Y-176195000I1524000J0D01*
G01*
%TO.C,MX5*%
D12*
X399668750Y-174307500D02*
G75*
G02*
X395668750Y-174307500I-2000000J0D01*
G01*
X395668750Y-174307500D02*
G75*
G02*
X399668750Y-174307500I2000000J0D01*
G01*
X423481250Y-174307500D02*
G75*
G02*
X419481250Y-174307500I-2000000J0D01*
G01*
X419481250Y-174307500D02*
G75*
G02*
X423481250Y-174307500I2000000J0D01*
G01*
%TO.C,SW9*%
D10*
X201176000Y-177465000D02*
X201176000Y-180005000D01*
X201176000Y-180005000D02*
X203716000Y-180005000D01*
D11*
X203058000Y-176775000D02*
X203058000Y-180675000D01*
X203058000Y-180675000D02*
X207158000Y-180675000D01*
D10*
X203716000Y-177465000D02*
X201176000Y-177465000D01*
X203716000Y-180005000D02*
X203716000Y-177465000D01*
D11*
X209158000Y-178675000D02*
X214858000Y-178675000D01*
D10*
X214130000Y-174925000D02*
X216670000Y-174925000D01*
X214130000Y-177465000D02*
X214130000Y-174925000D01*
D11*
X214858000Y-174275000D02*
X205558000Y-174275000D01*
X214858000Y-174275000D02*
X214858000Y-178675000D01*
D10*
X216670000Y-174925000D02*
X216670000Y-177465000D01*
X216670000Y-177465000D02*
X214130000Y-177465000D01*
D11*
X203058000Y-176775000D02*
G75*
G02*
X205558000Y-174275000I2500000J0D01*
G01*
X207158000Y-180675000D02*
G75*
G02*
X209158000Y-178675000I1999999J1D01*
G01*
D10*
X207272000Y-178735000D02*
G75*
G02*
X204224000Y-178735000I-1524000J0D01*
G01*
X204224000Y-178735000D02*
G75*
G02*
X207272000Y-178735000I1524000J0D01*
G01*
X213622000Y-176195000D02*
G75*
G02*
X210574000Y-176195000I-1524000J0D01*
G01*
X210574000Y-176195000D02*
G75*
G02*
X213622000Y-176195000I1524000J0D01*
G01*
%TO.C,SW23*%
X210701000Y-196515000D02*
X210701000Y-199055000D01*
X210701000Y-199055000D02*
X213241000Y-199055000D01*
D11*
X212583000Y-195825000D02*
X212583000Y-199725000D01*
X212583000Y-199725000D02*
X216683000Y-199725000D01*
D10*
X213241000Y-196515000D02*
X210701000Y-196515000D01*
X213241000Y-199055000D02*
X213241000Y-196515000D01*
D11*
X218683000Y-197725000D02*
X224383000Y-197725000D01*
D10*
X223655000Y-193975000D02*
X226195000Y-193975000D01*
X223655000Y-196515000D02*
X223655000Y-193975000D01*
D11*
X224383000Y-193325000D02*
X215083000Y-193325000D01*
X224383000Y-193325000D02*
X224383000Y-197725000D01*
D10*
X226195000Y-193975000D02*
X226195000Y-196515000D01*
X226195000Y-196515000D02*
X223655000Y-196515000D01*
D11*
X212583000Y-195825000D02*
G75*
G02*
X215083000Y-193325000I2500000J0D01*
G01*
X216683000Y-199725000D02*
G75*
G02*
X218683000Y-197725000I1999999J1D01*
G01*
D10*
X216797000Y-197785000D02*
G75*
G02*
X213749000Y-197785000I-1524000J0D01*
G01*
X213749000Y-197785000D02*
G75*
G02*
X216797000Y-197785000I1524000J0D01*
G01*
X223147000Y-195245000D02*
G75*
G02*
X220099000Y-195245000I-1524000J0D01*
G01*
X220099000Y-195245000D02*
G75*
G02*
X223147000Y-195245000I1524000J0D01*
G01*
%TO.C,MX4*%
D12*
X392525000Y-231457500D02*
G75*
G02*
X388525000Y-231457500I-2000000J0D01*
G01*
X388525000Y-231457500D02*
G75*
G02*
X392525000Y-231457500I2000000J0D01*
G01*
X416337500Y-231457500D02*
G75*
G02*
X412337500Y-231457500I-2000000J0D01*
G01*
X412337500Y-231457500D02*
G75*
G02*
X416337500Y-231457500I2000000J0D01*
G01*
%TO.C,SW21*%
D10*
X172601000Y-196515000D02*
X172601000Y-199055000D01*
X172601000Y-199055000D02*
X175141000Y-199055000D01*
D11*
X174483000Y-195825000D02*
X174483000Y-199725000D01*
X174483000Y-199725000D02*
X178583000Y-199725000D01*
D10*
X175141000Y-196515000D02*
X172601000Y-196515000D01*
X175141000Y-199055000D02*
X175141000Y-196515000D01*
D11*
X180583000Y-197725000D02*
X186283000Y-197725000D01*
D10*
X185555000Y-193975000D02*
X188095000Y-193975000D01*
X185555000Y-196515000D02*
X185555000Y-193975000D01*
D11*
X186283000Y-193325000D02*
X176983000Y-193325000D01*
X186283000Y-193325000D02*
X186283000Y-197725000D01*
D10*
X188095000Y-193975000D02*
X188095000Y-196515000D01*
X188095000Y-196515000D02*
X185555000Y-196515000D01*
D11*
X174483000Y-195825000D02*
G75*
G02*
X176983000Y-193325000I2500000J0D01*
G01*
X178583000Y-199725000D02*
G75*
G02*
X180583000Y-197725000I1999999J1D01*
G01*
D10*
X178697000Y-197785000D02*
G75*
G02*
X175649000Y-197785000I-1524000J0D01*
G01*
X175649000Y-197785000D02*
G75*
G02*
X178697000Y-197785000I1524000J0D01*
G01*
X185047000Y-195245000D02*
G75*
G02*
X181999000Y-195245000I-1524000J0D01*
G01*
X181999000Y-195245000D02*
G75*
G02*
X185047000Y-195245000I1524000J0D01*
G01*
%TO.C,SW58*%
X394057250Y-234615000D02*
X394057250Y-237155000D01*
X394057250Y-237155000D02*
X396597250Y-237155000D01*
D11*
X395939250Y-233925000D02*
X395939250Y-237825000D01*
X395939250Y-237825000D02*
X400039250Y-237825000D01*
D10*
X396597250Y-234615000D02*
X394057250Y-234615000D01*
X396597250Y-237155000D02*
X396597250Y-234615000D01*
D11*
X402039250Y-235825000D02*
X407739250Y-235825000D01*
D10*
X407011250Y-232075000D02*
X409551250Y-232075000D01*
X407011250Y-234615000D02*
X407011250Y-232075000D01*
D11*
X407739250Y-231425000D02*
X398439250Y-231425000D01*
X407739250Y-231425000D02*
X407739250Y-235825000D01*
D10*
X409551250Y-232075000D02*
X409551250Y-234615000D01*
X409551250Y-234615000D02*
X407011250Y-234615000D01*
D11*
X395939250Y-233925000D02*
G75*
G02*
X398439250Y-231425000I2500000J0D01*
G01*
X400039250Y-237825000D02*
G75*
G02*
X402039250Y-235825000I1999999J1D01*
G01*
D10*
X400153250Y-235885000D02*
G75*
G02*
X397105250Y-235885000I-1524000J0D01*
G01*
X397105250Y-235885000D02*
G75*
G02*
X400153250Y-235885000I1524000J0D01*
G01*
X406503250Y-233345000D02*
G75*
G02*
X403455250Y-233345000I-1524000J0D01*
G01*
X403455250Y-233345000D02*
G75*
G02*
X406503250Y-233345000I1524000J0D01*
G01*
%TO.C,SW57*%
X358338500Y-234615000D02*
X358338500Y-237155000D01*
X358338500Y-237155000D02*
X360878500Y-237155000D01*
D11*
X360220500Y-233925000D02*
X360220500Y-237825000D01*
X360220500Y-237825000D02*
X364320500Y-237825000D01*
D10*
X360878500Y-234615000D02*
X358338500Y-234615000D01*
X360878500Y-237155000D02*
X360878500Y-234615000D01*
D11*
X366320500Y-235825000D02*
X372020500Y-235825000D01*
D10*
X371292500Y-232075000D02*
X373832500Y-232075000D01*
X371292500Y-234615000D02*
X371292500Y-232075000D01*
D11*
X372020500Y-231425000D02*
X362720500Y-231425000D01*
X372020500Y-231425000D02*
X372020500Y-235825000D01*
D10*
X373832500Y-232075000D02*
X373832500Y-234615000D01*
X373832500Y-234615000D02*
X371292500Y-234615000D01*
D11*
X360220500Y-233925000D02*
G75*
G02*
X362720500Y-231425000I2500000J0D01*
G01*
X364320500Y-237825000D02*
G75*
G02*
X366320500Y-235825000I1999999J1D01*
G01*
D10*
X364434500Y-235885000D02*
G75*
G02*
X361386500Y-235885000I-1524000J0D01*
G01*
X361386500Y-235885000D02*
G75*
G02*
X364434500Y-235885000I1524000J0D01*
G01*
X370784500Y-233345000D02*
G75*
G02*
X367736500Y-233345000I-1524000J0D01*
G01*
X367736500Y-233345000D02*
G75*
G02*
X370784500Y-233345000I1524000J0D01*
G01*
%TO.C,SW24*%
X229751000Y-196515000D02*
X229751000Y-199055000D01*
X229751000Y-199055000D02*
X232291000Y-199055000D01*
D11*
X231633000Y-195825000D02*
X231633000Y-199725000D01*
X231633000Y-199725000D02*
X235733000Y-199725000D01*
D10*
X232291000Y-196515000D02*
X229751000Y-196515000D01*
X232291000Y-199055000D02*
X232291000Y-196515000D01*
D11*
X237733000Y-197725000D02*
X243433000Y-197725000D01*
D10*
X242705000Y-193975000D02*
X245245000Y-193975000D01*
X242705000Y-196515000D02*
X242705000Y-193975000D01*
D11*
X243433000Y-193325000D02*
X234133000Y-193325000D01*
X243433000Y-193325000D02*
X243433000Y-197725000D01*
D10*
X245245000Y-193975000D02*
X245245000Y-196515000D01*
X245245000Y-196515000D02*
X242705000Y-196515000D01*
D11*
X231633000Y-195825000D02*
G75*
G02*
X234133000Y-193325000I2500000J0D01*
G01*
X235733000Y-199725000D02*
G75*
G02*
X237733000Y-197725000I1999999J1D01*
G01*
D10*
X235847000Y-197785000D02*
G75*
G02*
X232799000Y-197785000I-1524000J0D01*
G01*
X232799000Y-197785000D02*
G75*
G02*
X235847000Y-197785000I1524000J0D01*
G01*
X242197000Y-195245000D02*
G75*
G02*
X239149000Y-195245000I-1524000J0D01*
G01*
X239149000Y-195245000D02*
G75*
G02*
X242197000Y-195245000I1524000J0D01*
G01*
%TO.C,SW30*%
X344051000Y-196515000D02*
X344051000Y-199055000D01*
X344051000Y-199055000D02*
X346591000Y-199055000D01*
D11*
X345933000Y-195825000D02*
X345933000Y-199725000D01*
X345933000Y-199725000D02*
X350033000Y-199725000D01*
D10*
X346591000Y-196515000D02*
X344051000Y-196515000D01*
X346591000Y-199055000D02*
X346591000Y-196515000D01*
D11*
X352033000Y-197725000D02*
X357733000Y-197725000D01*
D10*
X357005000Y-193975000D02*
X359545000Y-193975000D01*
X357005000Y-196515000D02*
X357005000Y-193975000D01*
D11*
X357733000Y-193325000D02*
X348433000Y-193325000D01*
X357733000Y-193325000D02*
X357733000Y-197725000D01*
D10*
X359545000Y-193975000D02*
X359545000Y-196515000D01*
X359545000Y-196515000D02*
X357005000Y-196515000D01*
D11*
X345933000Y-195825000D02*
G75*
G02*
X348433000Y-193325000I2500000J0D01*
G01*
X350033000Y-199725000D02*
G75*
G02*
X352033000Y-197725000I1999999J1D01*
G01*
D10*
X350147000Y-197785000D02*
G75*
G02*
X347099000Y-197785000I-1524000J0D01*
G01*
X347099000Y-197785000D02*
G75*
G02*
X350147000Y-197785000I1524000J0D01*
G01*
X356497000Y-195245000D02*
G75*
G02*
X353449000Y-195245000I-1524000J0D01*
G01*
X353449000Y-195245000D02*
G75*
G02*
X356497000Y-195245000I1524000J0D01*
G01*
%TO.C,SW11*%
X239276000Y-177465000D02*
X239276000Y-180005000D01*
X239276000Y-180005000D02*
X241816000Y-180005000D01*
D11*
X241158000Y-176775000D02*
X241158000Y-180675000D01*
X241158000Y-180675000D02*
X245258000Y-180675000D01*
D10*
X241816000Y-177465000D02*
X239276000Y-177465000D01*
X241816000Y-180005000D02*
X241816000Y-177465000D01*
D11*
X247258000Y-178675000D02*
X252958000Y-178675000D01*
D10*
X252230000Y-174925000D02*
X254770000Y-174925000D01*
X252230000Y-177465000D02*
X252230000Y-174925000D01*
D11*
X252958000Y-174275000D02*
X243658000Y-174275000D01*
X252958000Y-174275000D02*
X252958000Y-178675000D01*
D10*
X254770000Y-174925000D02*
X254770000Y-177465000D01*
X254770000Y-177465000D02*
X252230000Y-177465000D01*
D11*
X241158000Y-176775000D02*
G75*
G02*
X243658000Y-174275000I2500000J0D01*
G01*
X245258000Y-180675000D02*
G75*
G02*
X247258000Y-178675000I1999999J1D01*
G01*
D10*
X245372000Y-178735000D02*
G75*
G02*
X242324000Y-178735000I-1524000J0D01*
G01*
X242324000Y-178735000D02*
G75*
G02*
X245372000Y-178735000I1524000J0D01*
G01*
X251722000Y-176195000D02*
G75*
G02*
X248674000Y-176195000I-1524000J0D01*
G01*
X248674000Y-176195000D02*
G75*
G02*
X251722000Y-176195000I1524000J0D01*
G01*
%TO.C,SW17*%
X353576000Y-177465000D02*
X353576000Y-180005000D01*
X353576000Y-180005000D02*
X356116000Y-180005000D01*
D11*
X355458000Y-176775000D02*
X355458000Y-180675000D01*
X355458000Y-180675000D02*
X359558000Y-180675000D01*
D10*
X356116000Y-177465000D02*
X353576000Y-177465000D01*
X356116000Y-180005000D02*
X356116000Y-177465000D01*
D11*
X361558000Y-178675000D02*
X367258000Y-178675000D01*
D10*
X366530000Y-174925000D02*
X369070000Y-174925000D01*
X366530000Y-177465000D02*
X366530000Y-174925000D01*
D11*
X367258000Y-174275000D02*
X357958000Y-174275000D01*
X367258000Y-174275000D02*
X367258000Y-178675000D01*
D10*
X369070000Y-174925000D02*
X369070000Y-177465000D01*
X369070000Y-177465000D02*
X366530000Y-177465000D01*
D11*
X355458000Y-176775000D02*
G75*
G02*
X357958000Y-174275000I2500000J0D01*
G01*
X359558000Y-180675000D02*
G75*
G02*
X361558000Y-178675000I1999999J1D01*
G01*
D10*
X359672000Y-178735000D02*
G75*
G02*
X356624000Y-178735000I-1524000J0D01*
G01*
X356624000Y-178735000D02*
G75*
G02*
X359672000Y-178735000I1524000J0D01*
G01*
X366022000Y-176195000D02*
G75*
G02*
X362974000Y-176195000I-1524000J0D01*
G01*
X362974000Y-176195000D02*
G75*
G02*
X366022000Y-176195000I1524000J0D01*
G01*
%TO.C,SW6*%
X144026000Y-177465000D02*
X144026000Y-180005000D01*
X144026000Y-180005000D02*
X146566000Y-180005000D01*
D11*
X145908000Y-176775000D02*
X145908000Y-180675000D01*
X145908000Y-180675000D02*
X150008000Y-180675000D01*
D10*
X146566000Y-177465000D02*
X144026000Y-177465000D01*
X146566000Y-180005000D02*
X146566000Y-177465000D01*
D11*
X152008000Y-178675000D02*
X157708000Y-178675000D01*
D10*
X156980000Y-174925000D02*
X159520000Y-174925000D01*
X156980000Y-177465000D02*
X156980000Y-174925000D01*
D11*
X157708000Y-174275000D02*
X148408000Y-174275000D01*
X157708000Y-174275000D02*
X157708000Y-178675000D01*
D10*
X159520000Y-174925000D02*
X159520000Y-177465000D01*
X159520000Y-177465000D02*
X156980000Y-177465000D01*
D11*
X145908000Y-176775000D02*
G75*
G02*
X148408000Y-174275000I2500000J0D01*
G01*
X150008000Y-180675000D02*
G75*
G02*
X152008000Y-178675000I1999999J1D01*
G01*
D10*
X150122000Y-178735000D02*
G75*
G02*
X147074000Y-178735000I-1524000J0D01*
G01*
X147074000Y-178735000D02*
G75*
G02*
X150122000Y-178735000I1524000J0D01*
G01*
X156472000Y-176195000D02*
G75*
G02*
X153424000Y-176195000I-1524000J0D01*
G01*
X153424000Y-176195000D02*
G75*
G02*
X156472000Y-176195000I1524000J0D01*
G01*
%TO.C,SW50*%
X224988500Y-234615000D02*
X224988500Y-237155000D01*
X224988500Y-237155000D02*
X227528500Y-237155000D01*
D11*
X226870500Y-233925000D02*
X226870500Y-237825000D01*
X226870500Y-237825000D02*
X230970500Y-237825000D01*
D10*
X227528500Y-234615000D02*
X224988500Y-234615000D01*
X227528500Y-237155000D02*
X227528500Y-234615000D01*
D11*
X232970500Y-235825000D02*
X238670500Y-235825000D01*
D10*
X237942500Y-232075000D02*
X240482500Y-232075000D01*
X237942500Y-234615000D02*
X237942500Y-232075000D01*
D11*
X238670500Y-231425000D02*
X229370500Y-231425000D01*
X238670500Y-231425000D02*
X238670500Y-235825000D01*
D10*
X240482500Y-232075000D02*
X240482500Y-234615000D01*
X240482500Y-234615000D02*
X237942500Y-234615000D01*
D11*
X226870500Y-233925000D02*
G75*
G02*
X229370500Y-231425000I2500000J0D01*
G01*
X230970500Y-237825000D02*
G75*
G02*
X232970500Y-235825000I1999999J1D01*
G01*
D10*
X231084500Y-235885000D02*
G75*
G02*
X228036500Y-235885000I-1524000J0D01*
G01*
X228036500Y-235885000D02*
G75*
G02*
X231084500Y-235885000I1524000J0D01*
G01*
X237434500Y-233345000D02*
G75*
G02*
X234386500Y-233345000I-1524000J0D01*
G01*
X234386500Y-233345000D02*
G75*
G02*
X237434500Y-233345000I1524000J0D01*
G01*
%TO.C,SW10*%
X220226000Y-177465000D02*
X220226000Y-180005000D01*
X220226000Y-180005000D02*
X222766000Y-180005000D01*
D11*
X222108000Y-176775000D02*
X222108000Y-180675000D01*
X222108000Y-180675000D02*
X226208000Y-180675000D01*
D10*
X222766000Y-177465000D02*
X220226000Y-177465000D01*
X222766000Y-180005000D02*
X222766000Y-177465000D01*
D11*
X228208000Y-178675000D02*
X233908000Y-178675000D01*
D10*
X233180000Y-174925000D02*
X235720000Y-174925000D01*
X233180000Y-177465000D02*
X233180000Y-174925000D01*
D11*
X233908000Y-174275000D02*
X224608000Y-174275000D01*
X233908000Y-174275000D02*
X233908000Y-178675000D01*
D10*
X235720000Y-174925000D02*
X235720000Y-177465000D01*
X235720000Y-177465000D02*
X233180000Y-177465000D01*
D11*
X222108000Y-176775000D02*
G75*
G02*
X224608000Y-174275000I2500000J0D01*
G01*
X226208000Y-180675000D02*
G75*
G02*
X228208000Y-178675000I1999999J1D01*
G01*
D10*
X226322000Y-178735000D02*
G75*
G02*
X223274000Y-178735000I-1524000J0D01*
G01*
X223274000Y-178735000D02*
G75*
G02*
X226322000Y-178735000I1524000J0D01*
G01*
X232672000Y-176195000D02*
G75*
G02*
X229624000Y-176195000I-1524000J0D01*
G01*
X229624000Y-176195000D02*
G75*
G02*
X232672000Y-176195000I1524000J0D01*
G01*
%TO.C,SW59*%
X144026000Y-253665000D02*
X144026000Y-256205000D01*
X144026000Y-256205000D02*
X146566000Y-256205000D01*
D11*
X145908000Y-252975000D02*
X145908000Y-256875000D01*
X145908000Y-256875000D02*
X150008000Y-256875000D01*
D10*
X146566000Y-253665000D02*
X144026000Y-253665000D01*
X146566000Y-256205000D02*
X146566000Y-253665000D01*
D11*
X152008000Y-254875000D02*
X157708000Y-254875000D01*
D10*
X156980000Y-251125000D02*
X159520000Y-251125000D01*
X156980000Y-253665000D02*
X156980000Y-251125000D01*
D11*
X157708000Y-250475000D02*
X148408000Y-250475000D01*
X157708000Y-250475000D02*
X157708000Y-254875000D01*
D10*
X159520000Y-251125000D02*
X159520000Y-253665000D01*
X159520000Y-253665000D02*
X156980000Y-253665000D01*
D11*
X145908000Y-252975000D02*
G75*
G02*
X148408000Y-250475000I2500000J0D01*
G01*
X150008000Y-256875000D02*
G75*
G02*
X152008000Y-254875000I1999999J1D01*
G01*
D10*
X150122000Y-254935000D02*
G75*
G02*
X147074000Y-254935000I-1524000J0D01*
G01*
X147074000Y-254935000D02*
G75*
G02*
X150122000Y-254935000I1524000J0D01*
G01*
X156472000Y-252395000D02*
G75*
G02*
X153424000Y-252395000I-1524000J0D01*
G01*
X153424000Y-252395000D02*
G75*
G02*
X156472000Y-252395000I1524000J0D01*
G01*
%TO.C,SW47*%
X155932250Y-234615000D02*
X155932250Y-237155000D01*
X155932250Y-237155000D02*
X158472250Y-237155000D01*
D11*
X157814250Y-233925000D02*
X157814250Y-237825000D01*
X157814250Y-237825000D02*
X161914250Y-237825000D01*
D10*
X158472250Y-234615000D02*
X155932250Y-234615000D01*
X158472250Y-237155000D02*
X158472250Y-234615000D01*
D11*
X163914250Y-235825000D02*
X169614250Y-235825000D01*
D10*
X168886250Y-232075000D02*
X171426250Y-232075000D01*
X168886250Y-234615000D02*
X168886250Y-232075000D01*
D11*
X169614250Y-231425000D02*
X160314250Y-231425000D01*
X169614250Y-231425000D02*
X169614250Y-235825000D01*
D10*
X171426250Y-232075000D02*
X171426250Y-234615000D01*
X171426250Y-234615000D02*
X168886250Y-234615000D01*
D11*
X157814250Y-233925000D02*
G75*
G02*
X160314250Y-231425000I2500000J0D01*
G01*
X161914250Y-237825000D02*
G75*
G02*
X163914250Y-235825000I1999999J1D01*
G01*
D10*
X162028250Y-235885000D02*
G75*
G02*
X158980250Y-235885000I-1524000J0D01*
G01*
X158980250Y-235885000D02*
G75*
G02*
X162028250Y-235885000I1524000J0D01*
G01*
X168378250Y-233345000D02*
G75*
G02*
X165330250Y-233345000I-1524000J0D01*
G01*
X165330250Y-233345000D02*
G75*
G02*
X168378250Y-233345000I1524000J0D01*
G01*
%TO.C,SW40*%
X272613500Y-215565000D02*
X272613500Y-218105000D01*
X272613500Y-218105000D02*
X275153500Y-218105000D01*
D11*
X274495500Y-214875000D02*
X274495500Y-218775000D01*
X274495500Y-218775000D02*
X278595500Y-218775000D01*
D10*
X275153500Y-215565000D02*
X272613500Y-215565000D01*
X275153500Y-218105000D02*
X275153500Y-215565000D01*
D11*
X280595500Y-216775000D02*
X286295500Y-216775000D01*
D10*
X285567500Y-213025000D02*
X288107500Y-213025000D01*
X285567500Y-215565000D02*
X285567500Y-213025000D01*
D11*
X286295500Y-212375000D02*
X276995500Y-212375000D01*
X286295500Y-212375000D02*
X286295500Y-216775000D01*
D10*
X288107500Y-213025000D02*
X288107500Y-215565000D01*
X288107500Y-215565000D02*
X285567500Y-215565000D01*
D11*
X274495500Y-214875000D02*
G75*
G02*
X276995500Y-212375000I2500000J0D01*
G01*
X278595500Y-218775000D02*
G75*
G02*
X280595500Y-216775000I1999999J1D01*
G01*
D10*
X278709500Y-216835000D02*
G75*
G02*
X275661500Y-216835000I-1524000J0D01*
G01*
X275661500Y-216835000D02*
G75*
G02*
X278709500Y-216835000I1524000J0D01*
G01*
X285059500Y-214295000D02*
G75*
G02*
X282011500Y-214295000I-1524000J0D01*
G01*
X282011500Y-214295000D02*
G75*
G02*
X285059500Y-214295000I1524000J0D01*
G01*
%TO.C,SW54*%
X301188500Y-234615000D02*
X301188500Y-237155000D01*
X301188500Y-237155000D02*
X303728500Y-237155000D01*
D11*
X303070500Y-233925000D02*
X303070500Y-237825000D01*
X303070500Y-237825000D02*
X307170500Y-237825000D01*
D10*
X303728500Y-234615000D02*
X301188500Y-234615000D01*
X303728500Y-237155000D02*
X303728500Y-234615000D01*
D11*
X309170500Y-235825000D02*
X314870500Y-235825000D01*
D10*
X314142500Y-232075000D02*
X316682500Y-232075000D01*
X314142500Y-234615000D02*
X314142500Y-232075000D01*
D11*
X314870500Y-231425000D02*
X305570500Y-231425000D01*
X314870500Y-231425000D02*
X314870500Y-235825000D01*
D10*
X316682500Y-232075000D02*
X316682500Y-234615000D01*
X316682500Y-234615000D02*
X314142500Y-234615000D01*
D11*
X303070500Y-233925000D02*
G75*
G02*
X305570500Y-231425000I2500000J0D01*
G01*
X307170500Y-237825000D02*
G75*
G02*
X309170500Y-235825000I1999999J1D01*
G01*
D10*
X307284500Y-235885000D02*
G75*
G02*
X304236500Y-235885000I-1524000J0D01*
G01*
X304236500Y-235885000D02*
G75*
G02*
X307284500Y-235885000I1524000J0D01*
G01*
X313634500Y-233345000D02*
G75*
G02*
X310586500Y-233345000I-1524000J0D01*
G01*
X310586500Y-233345000D02*
G75*
G02*
X313634500Y-233345000I1524000J0D01*
G01*
%TO.C,SW46*%
X398819750Y-215565000D02*
X398819750Y-218105000D01*
X398819750Y-218105000D02*
X401359750Y-218105000D01*
D11*
X400701750Y-214875000D02*
X400701750Y-218775000D01*
X400701750Y-218775000D02*
X404801750Y-218775000D01*
D10*
X401359750Y-215565000D02*
X398819750Y-215565000D01*
X401359750Y-218105000D02*
X401359750Y-215565000D01*
D11*
X406801750Y-216775000D02*
X412501750Y-216775000D01*
D10*
X411773750Y-213025000D02*
X414313750Y-213025000D01*
X411773750Y-215565000D02*
X411773750Y-213025000D01*
D11*
X412501750Y-212375000D02*
X403201750Y-212375000D01*
X412501750Y-212375000D02*
X412501750Y-216775000D01*
D10*
X414313750Y-213025000D02*
X414313750Y-215565000D01*
X414313750Y-215565000D02*
X411773750Y-215565000D01*
D11*
X400701750Y-214875000D02*
G75*
G02*
X403201750Y-212375000I2500000J0D01*
G01*
X404801750Y-218775000D02*
G75*
G02*
X406801750Y-216775000I1999999J1D01*
G01*
D10*
X404915750Y-216835000D02*
G75*
G02*
X401867750Y-216835000I-1524000J0D01*
G01*
X401867750Y-216835000D02*
G75*
G02*
X404915750Y-216835000I1524000J0D01*
G01*
X411265750Y-214295000D02*
G75*
G02*
X408217750Y-214295000I-1524000J0D01*
G01*
X408217750Y-214295000D02*
G75*
G02*
X411265750Y-214295000I1524000J0D01*
G01*
%TO.C,RGB_LED19*%
D13*
X405950000Y-183637500D02*
X413250000Y-183637500D01*
X413250000Y-187377500D01*
X405950000Y-187377500D01*
X405950000Y-183637500D01*
%TO.C,RGB_LED15*%
X320225000Y-183680000D02*
X327525000Y-183680000D01*
X327525000Y-187420000D01*
X320225000Y-187420000D01*
X320225000Y-183680000D01*
%TO.C,RGB_LED38*%
X239262500Y-221780000D02*
X246562500Y-221780000D01*
X246562500Y-225520000D01*
X239262500Y-225520000D01*
X239262500Y-221780000D01*
%TO.C,RGB_LED39*%
X258300000Y-221737500D02*
X265600000Y-221737500D01*
X265600000Y-225477500D01*
X258300000Y-225477500D01*
X258300000Y-221737500D01*
%TO.C,RGB_LED12*%
X263075000Y-183680000D02*
X270375000Y-183680000D01*
X270375000Y-187420000D01*
X263075000Y-187420000D01*
X263075000Y-183680000D01*
%TO.C,RGB_LED16*%
X339275000Y-183680000D02*
X346575000Y-183680000D01*
X346575000Y-187420000D01*
X339275000Y-187420000D01*
X339275000Y-183680000D01*
%TO.C,RGB_LED56*%
X344037500Y-240830000D02*
X351337500Y-240830000D01*
X351337500Y-244570000D01*
X344037500Y-244570000D01*
X344037500Y-240830000D01*
%TO.C,RGB_LED27*%
X291650000Y-202737500D02*
X298950000Y-202737500D01*
X298950000Y-206477500D01*
X291650000Y-206477500D01*
X291650000Y-202737500D01*
%TO.C,R1*%
X141395000Y-152270000D02*
X144355000Y-152270000D01*
X144355000Y-153730000D01*
X141395000Y-153730000D01*
X141395000Y-152270000D01*
%TO.C,RGB_LED59*%
X148775000Y-259880000D02*
X156075000Y-259880000D01*
X156075000Y-263620000D01*
X148775000Y-263620000D01*
X148775000Y-259880000D01*
%TO.C,RGB_LED18*%
X377350000Y-183737500D02*
X384650000Y-183737500D01*
X384650000Y-187477500D01*
X377350000Y-187477500D01*
X377350000Y-183737500D01*
%TO.C,RGB_LED63*%
X358325000Y-259880000D02*
X365625000Y-259880000D01*
X365625000Y-263620000D01*
X358325000Y-263620000D01*
X358325000Y-259880000D01*
%TO.C,RGB_LED28*%
X310650000Y-202837500D02*
X317950000Y-202837500D01*
X317950000Y-206577500D01*
X310650000Y-206577500D01*
X310650000Y-202837500D01*
%TO.C,RGB_LED62*%
X272600000Y-259880000D02*
X279900000Y-259880000D01*
X279900000Y-263620000D01*
X272600000Y-263620000D01*
X272600000Y-259880000D01*
%TO.C,RGB_LED31*%
X367850000Y-202730000D02*
X375150000Y-202730000D01*
X375150000Y-206470000D01*
X367850000Y-206470000D01*
X367850000Y-202730000D01*
%TO.C,RGB_LED49*%
X210650000Y-240837500D02*
X217950000Y-240837500D01*
X217950000Y-244577500D01*
X210650000Y-244577500D01*
X210650000Y-240837500D01*
%TO.C,RGB_LED22*%
X196400000Y-202730000D02*
X203700000Y-202730000D01*
X203700000Y-206470000D01*
X196400000Y-206470000D01*
X196400000Y-202730000D01*
%TO.C,RGB_LED4*%
X224975000Y-154787500D02*
X232275000Y-154787500D01*
X232275000Y-158527500D01*
X224975000Y-158527500D01*
X224975000Y-154787500D01*
%TO.C,RGB_LED65*%
X396450000Y-259937500D02*
X403750000Y-259937500D01*
X403750000Y-263677500D01*
X396450000Y-263677500D01*
X396450000Y-259937500D01*
%TO.C,RGB_LED58*%
X398825000Y-240580000D02*
X406125000Y-240580000D01*
X406125000Y-244320000D01*
X398825000Y-244320000D01*
X398825000Y-240580000D01*
%TO.C,RGB_LED52*%
X267837500Y-240830000D02*
X275137500Y-240830000D01*
X275137500Y-244570000D01*
X267837500Y-244570000D01*
X267837500Y-240830000D01*
%TO.C,C1*%
X173950000Y-152400000D02*
G75*
G02*
X165450000Y-152400000I-4250000J0D01*
G01*
X165450000Y-152400000D02*
G75*
G02*
X173950000Y-152400000I4250000J0D01*
G01*
%TO.C,RGB_LED53*%
X286887500Y-240830000D02*
X294187500Y-240830000D01*
X294187500Y-244570000D01*
X286887500Y-244570000D01*
X286887500Y-240830000D01*
%TO.C,RGB_LED25*%
X253550000Y-202730000D02*
X260850000Y-202730000D01*
X260850000Y-206470000D01*
X253550000Y-206470000D01*
X253550000Y-202730000D01*
%TO.C,RGB_LED40*%
X277362500Y-221780000D02*
X284662500Y-221780000D01*
X284662500Y-225520000D01*
X277362500Y-225520000D01*
X277362500Y-221780000D01*
%TO.C,RGB_LED51*%
X248787500Y-240830000D02*
X256087500Y-240830000D01*
X256087500Y-244570000D01*
X248787500Y-244570000D01*
X248787500Y-240830000D01*
%TO.C,RGB_LED34*%
X155850000Y-221837500D02*
X163150000Y-221837500D01*
X163150000Y-225577500D01*
X155850000Y-225577500D01*
X155850000Y-221837500D01*
%TO.C,RGB_LED60*%
X167825000Y-259880000D02*
X175125000Y-259880000D01*
X175125000Y-263620000D01*
X167825000Y-263620000D01*
X167825000Y-259880000D01*
%TO.C,RGB_LED2*%
X186875000Y-154787500D02*
X194175000Y-154787500D01*
X194175000Y-158527500D01*
X186875000Y-158527500D01*
X186875000Y-154787500D01*
%TO.C,RGB_LED5*%
X244025000Y-154787500D02*
X251325000Y-154787500D01*
X251325000Y-158527500D01*
X244025000Y-158527500D01*
X244025000Y-154787500D01*
%TO.C,RGB_LED24*%
X234500000Y-202730000D02*
X241800000Y-202730000D01*
X241800000Y-206470000D01*
X234500000Y-206470000D01*
X234500000Y-202730000D01*
%TO.C,RGB_LED1*%
X148775000Y-154787500D02*
X156075000Y-154787500D01*
X156075000Y-158527500D01*
X148775000Y-158527500D01*
X148775000Y-154787500D01*
%TO.C,RGB_LED32*%
X386900000Y-202730000D02*
X394200000Y-202730000D01*
X394200000Y-206470000D01*
X386900000Y-206470000D01*
X386900000Y-202730000D01*
%TO.C,RGB_LED10*%
X224975000Y-183680000D02*
X232275000Y-183680000D01*
X232275000Y-187420000D01*
X224975000Y-187420000D01*
X224975000Y-183680000D01*
%TO.C,RGB_LED50*%
X229737500Y-240830000D02*
X237037500Y-240830000D01*
X237037500Y-244570000D01*
X229737500Y-244570000D01*
X229737500Y-240830000D01*
%TO.C,RGB_LED3*%
X205925000Y-154787500D02*
X213225000Y-154787500D01*
X213225000Y-158527500D01*
X205925000Y-158527500D01*
X205925000Y-154787500D01*
%TO.C,RGB_LED44*%
X353562500Y-221780000D02*
X360862500Y-221780000D01*
X360862500Y-225520000D01*
X353562500Y-225520000D01*
X353562500Y-221780000D01*
%TO.C,RGB_LED7*%
X167825000Y-183680000D02*
X175125000Y-183680000D01*
X175125000Y-187420000D01*
X167825000Y-187420000D01*
X167825000Y-183680000D01*
%TO.C,RGB_LED47*%
X160681250Y-240830000D02*
X167981250Y-240830000D01*
X167981250Y-244570000D01*
X160681250Y-244570000D01*
X160681250Y-240830000D01*
%TO.C,RGB_LED55*%
X324987500Y-240830000D02*
X332287500Y-240830000D01*
X332287500Y-244570000D01*
X324987500Y-244570000D01*
X324987500Y-240830000D01*
%TO.C,RGB_LED45*%
X372612500Y-221780000D02*
X379912500Y-221780000D01*
X379912500Y-225520000D01*
X372612500Y-225520000D01*
X372612500Y-221780000D01*
%TO.C,RGB_LED14*%
X301175000Y-183680000D02*
X308475000Y-183680000D01*
X308475000Y-187420000D01*
X301175000Y-187420000D01*
X301175000Y-183680000D01*
%TO.C,RGB_LED21*%
X177350000Y-202730000D02*
X184650000Y-202730000D01*
X184650000Y-206470000D01*
X177350000Y-206470000D01*
X177350000Y-202730000D01*
%TO.C,RGB_LED20*%
X153500000Y-202837500D02*
X160800000Y-202837500D01*
X160800000Y-206577500D01*
X153500000Y-206577500D01*
X153500000Y-202837500D01*
%TO.C,RGB_LED11*%
X244025000Y-183680000D02*
X251325000Y-183680000D01*
X251325000Y-187420000D01*
X244025000Y-187420000D01*
X244025000Y-183680000D01*
%TO.C,RGB_LED33*%
X410650000Y-202737500D02*
X417950000Y-202737500D01*
X417950000Y-206477500D01*
X410650000Y-206477500D01*
X410650000Y-202737500D01*
%TO.C,RGB_LED54*%
X305937500Y-240830000D02*
X313237500Y-240830000D01*
X313237500Y-244570000D01*
X305937500Y-244570000D01*
X305937500Y-240830000D01*
%TO.C,RGB_LED17*%
X358350000Y-183737500D02*
X365650000Y-183737500D01*
X365650000Y-187477500D01*
X358350000Y-187477500D01*
X358350000Y-183737500D01*
%TO.C,RGB_LED66*%
X415475000Y-259880000D02*
X422775000Y-259880000D01*
X422775000Y-263620000D01*
X415475000Y-263620000D01*
X415475000Y-259880000D01*
%TO.C,RGB_LED57*%
X363087500Y-240830000D02*
X370387500Y-240830000D01*
X370387500Y-244570000D01*
X363087500Y-244570000D01*
X363087500Y-240830000D01*
%TO.C,RGB_LED46*%
X403650000Y-221737500D02*
X410950000Y-221737500D01*
X410950000Y-225477500D01*
X403650000Y-225477500D01*
X403650000Y-221737500D01*
%TO.C,RGB_LED29*%
X329750000Y-202730000D02*
X337050000Y-202730000D01*
X337050000Y-206470000D01*
X329750000Y-206470000D01*
X329750000Y-202730000D01*
%TO.C,RGB_LED30*%
X348800000Y-202730000D02*
X356100000Y-202730000D01*
X356100000Y-206470000D01*
X348800000Y-206470000D01*
X348800000Y-202730000D01*
%TO.C,RGB_LED37*%
X220212500Y-221780000D02*
X227512500Y-221780000D01*
X227512500Y-225520000D01*
X220212500Y-225520000D01*
X220212500Y-221780000D01*
%TO.C,RGB_LED13*%
X282125000Y-183680000D02*
X289425000Y-183680000D01*
X289425000Y-187420000D01*
X282125000Y-187420000D01*
X282125000Y-183680000D01*
%TO.C,RGB_LED41*%
X296412500Y-221780000D02*
X303712500Y-221780000D01*
X303712500Y-225520000D01*
X296412500Y-225520000D01*
X296412500Y-221780000D01*
%TO.C,RGB_LED9*%
X205925000Y-183680000D02*
X213225000Y-183680000D01*
X213225000Y-187420000D01*
X205925000Y-187420000D01*
X205925000Y-183680000D01*
%TO.C,RGB_LED64*%
X377375000Y-259880000D02*
X384675000Y-259880000D01*
X384675000Y-263620000D01*
X377375000Y-263620000D01*
X377375000Y-259880000D01*
%TO.C,RGB_LED35*%
X182112500Y-221780000D02*
X189412500Y-221780000D01*
X189412500Y-225520000D01*
X182112500Y-225520000D01*
X182112500Y-221780000D01*
%TO.C,RGB_LED42*%
X315462500Y-221780000D02*
X322762500Y-221780000D01*
X322762500Y-225520000D01*
X315462500Y-225520000D01*
X315462500Y-221780000D01*
%TO.C,RGB_LED43*%
X334512500Y-221780000D02*
X341812500Y-221780000D01*
X341812500Y-225520000D01*
X334512500Y-225520000D01*
X334512500Y-221780000D01*
%TO.C,RGB_LED8*%
X186875000Y-183680000D02*
X194175000Y-183680000D01*
X194175000Y-187420000D01*
X186875000Y-187420000D01*
X186875000Y-183680000D01*
%TO.C,RGB_LED61*%
X186850000Y-259837500D02*
X194150000Y-259837500D01*
X194150000Y-263577500D01*
X186850000Y-263577500D01*
X186850000Y-259837500D01*
%TO.C,RGB_LED6*%
X148775128Y-183737500D02*
X156075128Y-183737500D01*
X156075128Y-187477500D01*
X148775128Y-187477500D01*
X148775128Y-183737500D01*
%TO.C,RGB_LED48*%
X191637500Y-240830000D02*
X198937500Y-240830000D01*
X198937500Y-244570000D01*
X191637500Y-244570000D01*
X191637500Y-240830000D01*
%TO.C,RGB_LED36*%
X201162500Y-221780000D02*
X208462500Y-221780000D01*
X208462500Y-225520000D01*
X201162500Y-225520000D01*
X201162500Y-221780000D01*
%TO.C,RGB_LED26*%
X272600000Y-202730000D02*
X279900000Y-202730000D01*
X279900000Y-206470000D01*
X272600000Y-206470000D01*
X272600000Y-202730000D01*
%TO.C,RGB_LED23*%
X215450000Y-202730000D02*
X222750000Y-202730000D01*
X222750000Y-206470000D01*
X215450000Y-206470000D01*
X215450000Y-202730000D01*
%TD*%
M02*
